G04 #@! TF.GenerationSoftware,KiCad,Pcbnew,8.0.9-8.0.9-0~ubuntu24.04.1*
G04 #@! TF.CreationDate,2025-04-27T15:56:27+09:30*
G04 #@! TF.ProjectId,qspi-pmod-adapter,71737069-2d70-46d6-9f64-2d6164617074,rev?*
G04 #@! TF.SameCoordinates,Original*
G04 #@! TF.FileFunction,Copper,L2,Bot*
G04 #@! TF.FilePolarity,Positive*
%FSLAX46Y46*%
G04 Gerber Fmt 4.6, Leading zero omitted, Abs format (unit mm)*
G04 Created by KiCad (PCBNEW 8.0.9-8.0.9-0~ubuntu24.04.1) date 2025-04-27 15:56:27*
%MOMM*%
%LPD*%
G01*
G04 APERTURE LIST*
G04 Aperture macros list*
%AMRoundRect*
0 Rectangle with rounded corners*
0 $1 Rounding radius*
0 $2 $3 $4 $5 $6 $7 $8 $9 X,Y pos of 4 corners*
0 Add a 4 corners polygon primitive as box body*
4,1,4,$2,$3,$4,$5,$6,$7,$8,$9,$2,$3,0*
0 Add four circle primitives for the rounded corners*
1,1,$1+$1,$2,$3*
1,1,$1+$1,$4,$5*
1,1,$1+$1,$6,$7*
1,1,$1+$1,$8,$9*
0 Add four rect primitives between the rounded corners*
20,1,$1+$1,$2,$3,$4,$5,0*
20,1,$1+$1,$4,$5,$6,$7,0*
20,1,$1+$1,$6,$7,$8,$9,0*
20,1,$1+$1,$8,$9,$2,$3,0*%
G04 Aperture macros list end*
G04 #@! TA.AperFunction,ComponentPad*
%ADD10O,1.700000X1.700000*%
G04 #@! TD*
G04 #@! TA.AperFunction,ComponentPad*
%ADD11C,1.700000*%
G04 #@! TD*
G04 #@! TA.AperFunction,ComponentPad*
%ADD12R,1.700000X1.700000*%
G04 #@! TD*
G04 #@! TA.AperFunction,SMDPad,CuDef*
%ADD13RoundRect,0.250000X0.337500X0.475000X-0.337500X0.475000X-0.337500X-0.475000X0.337500X-0.475000X0*%
G04 #@! TD*
G04 #@! TA.AperFunction,ViaPad*
%ADD14C,0.800000*%
G04 #@! TD*
G04 #@! TA.AperFunction,Conductor*
%ADD15C,0.350000*%
G04 #@! TD*
G04 #@! TA.AperFunction,Conductor*
%ADD16C,0.250000*%
G04 #@! TD*
G04 APERTURE END LIST*
D10*
X110490000Y-83058000D03*
X110490000Y-80518000D03*
X110490000Y-77978000D03*
X110490000Y-75438000D03*
X110490000Y-72898000D03*
X110490000Y-70358000D03*
D11*
X107950000Y-83058000D03*
D10*
X107950000Y-80518000D03*
X107950000Y-77978000D03*
X107950000Y-75438000D03*
X107950000Y-72898000D03*
D12*
X107950000Y-70358000D03*
D10*
X115570000Y-69850000D03*
D12*
X118110000Y-69850000D03*
X121920000Y-72390000D03*
D10*
X121920000Y-74930000D03*
X121920000Y-77470000D03*
X121920000Y-80010000D03*
X121920000Y-82550000D03*
X121920000Y-85090000D03*
X128270000Y-72390000D03*
X128270000Y-74930000D03*
X128270000Y-77470000D03*
X128270000Y-80010000D03*
X128270000Y-82550000D03*
X128270000Y-85090000D03*
D11*
X125730000Y-72390000D03*
D10*
X125730000Y-74930000D03*
X125730000Y-77470000D03*
X125730000Y-80010000D03*
X125730000Y-82550000D03*
D12*
X125730000Y-85090000D03*
D13*
X115167500Y-77216000D03*
X117242500Y-77216000D03*
X117242500Y-75184000D03*
X115167500Y-75184000D03*
D12*
X104140000Y-70358000D03*
D10*
X104140000Y-72898000D03*
X104140000Y-75438000D03*
X104140000Y-77978000D03*
X104140000Y-80518000D03*
D11*
X104140000Y-83058000D03*
D10*
X101600000Y-70358000D03*
X101600000Y-72898000D03*
X101600000Y-75438000D03*
X101600000Y-77978000D03*
X101600000Y-80518000D03*
X101600000Y-83058000D03*
D14*
X115625000Y-76200000D03*
X119253000Y-72000000D03*
X113561172Y-71374950D03*
X112522000Y-75184000D03*
X118110000Y-81280000D03*
X119126000Y-80518000D03*
X119126000Y-76286992D03*
X117470972Y-71300000D03*
X112562008Y-71333992D03*
X116332000Y-74168000D03*
X114554000Y-85852000D03*
D15*
X115167500Y-76200000D02*
X115625000Y-76200000D01*
X127000000Y-73660000D02*
X127000000Y-71000000D01*
X125730000Y-74930000D02*
X127000000Y-73660000D01*
X119117000Y-72136000D02*
X114322222Y-72136000D01*
X119253000Y-72000000D02*
X119117000Y-72136000D01*
X114322222Y-72136000D02*
X113561172Y-71374950D01*
X119126000Y-76286992D02*
X119126000Y-80518000D01*
X110490000Y-83058000D02*
X114808000Y-83058000D01*
X114808000Y-83058000D02*
X117242500Y-80623500D01*
X117242500Y-80623500D02*
X117242500Y-77216000D01*
X113561172Y-71374950D02*
X113561172Y-73398645D01*
X112522000Y-74437817D02*
X112522000Y-75184000D01*
X113561172Y-73398645D02*
X112522000Y-74437817D01*
X112562008Y-71333992D02*
X112562008Y-72857992D01*
X112562008Y-72857992D02*
X111715000Y-73705000D01*
X111715000Y-73705000D02*
X111715000Y-75945412D01*
X111715000Y-75945412D02*
X110997412Y-76663000D01*
X110997412Y-76663000D02*
X109265000Y-76663000D01*
X109265000Y-76663000D02*
X107950000Y-77978000D01*
X125730000Y-72390000D02*
X124415000Y-73705000D01*
X124415000Y-73705000D02*
X121412588Y-73705000D01*
X121412588Y-73705000D02*
X121076588Y-74041000D01*
X121076588Y-74041000D02*
X116459000Y-74041000D01*
X116459000Y-74041000D02*
X116332000Y-74168000D01*
X107950000Y-72898000D02*
X109265000Y-71583000D01*
X109265000Y-71583000D02*
X111028984Y-71583000D01*
X111028984Y-71583000D02*
X112052992Y-70558992D01*
X112052992Y-70558992D02*
X114292580Y-70558992D01*
X114292580Y-70558992D02*
X115033588Y-71300000D01*
X115033588Y-71300000D02*
X117470972Y-71300000D01*
X129495000Y-76245000D02*
X129540000Y-76200000D01*
X127045000Y-76245000D02*
X129495000Y-76245000D01*
X125730000Y-74930000D02*
X127045000Y-76245000D01*
D16*
X120650000Y-83820000D02*
X123190000Y-83820000D01*
X120650000Y-81280000D02*
X123190000Y-81280000D01*
X120650000Y-78740000D02*
X123190000Y-78740000D01*
D15*
X115167500Y-75184000D02*
X115167500Y-76200000D01*
X115167500Y-76200000D02*
X115167500Y-77216000D01*
X117242500Y-77216000D02*
X117242500Y-82444500D01*
X117242500Y-82444500D02*
X119888000Y-85090000D01*
X119888000Y-85090000D02*
X121920000Y-85090000D01*
X117242500Y-75078500D02*
X116332000Y-74168000D01*
X117242500Y-75184000D02*
X117242500Y-75078500D01*
X117242500Y-75184000D02*
X117242500Y-77216000D01*
G04 #@! TA.AperFunction,Conductor*
G36*
X120514737Y-74736185D02*
G01*
X120560492Y-74788989D01*
X120571226Y-74851308D01*
X120564341Y-74929999D01*
X120564341Y-74930000D01*
X120584936Y-75165403D01*
X120584938Y-75165413D01*
X120646094Y-75393655D01*
X120646096Y-75393659D01*
X120646097Y-75393663D01*
X120729155Y-75571781D01*
X120745965Y-75607830D01*
X120745967Y-75607834D01*
X120816811Y-75709009D01*
X120881504Y-75801400D01*
X120881506Y-75801402D01*
X121048597Y-75968493D01*
X121048603Y-75968498D01*
X121234158Y-76098425D01*
X121277783Y-76153002D01*
X121284977Y-76222500D01*
X121253454Y-76284855D01*
X121234158Y-76301575D01*
X121048597Y-76431505D01*
X120881505Y-76598597D01*
X120745965Y-76792169D01*
X120745964Y-76792171D01*
X120646098Y-77006335D01*
X120646094Y-77006344D01*
X120584938Y-77234586D01*
X120584936Y-77234596D01*
X120564341Y-77469999D01*
X120564341Y-77470000D01*
X120584936Y-77705403D01*
X120584938Y-77705413D01*
X120646094Y-77933655D01*
X120646096Y-77933659D01*
X120646097Y-77933663D01*
X120728148Y-78109621D01*
X120745965Y-78147830D01*
X120745967Y-78147834D01*
X120840833Y-78283315D01*
X120881501Y-78341396D01*
X120881506Y-78341402D01*
X121048597Y-78508493D01*
X121048603Y-78508498D01*
X121234158Y-78638425D01*
X121277783Y-78693002D01*
X121284977Y-78762500D01*
X121253454Y-78824855D01*
X121234158Y-78841575D01*
X121048597Y-78971505D01*
X120881505Y-79138597D01*
X120745965Y-79332169D01*
X120745964Y-79332171D01*
X120646098Y-79546335D01*
X120646094Y-79546344D01*
X120584938Y-79774586D01*
X120584936Y-79774596D01*
X120564341Y-80009999D01*
X120564341Y-80010000D01*
X120584936Y-80245403D01*
X120584938Y-80245413D01*
X120646094Y-80473655D01*
X120646096Y-80473659D01*
X120646097Y-80473663D01*
X120650000Y-80482032D01*
X120745965Y-80687830D01*
X120745967Y-80687834D01*
X120842017Y-80825007D01*
X120881501Y-80881396D01*
X120881506Y-80881402D01*
X121048597Y-81048493D01*
X121048603Y-81048498D01*
X121234158Y-81178425D01*
X121277783Y-81233002D01*
X121284977Y-81302500D01*
X121253454Y-81364855D01*
X121234158Y-81381575D01*
X121048597Y-81511505D01*
X120881505Y-81678597D01*
X120745965Y-81872169D01*
X120745964Y-81872171D01*
X120646098Y-82086335D01*
X120646094Y-82086344D01*
X120584938Y-82314586D01*
X120584936Y-82314596D01*
X120564341Y-82549999D01*
X120564341Y-82550000D01*
X120584936Y-82785403D01*
X120584938Y-82785413D01*
X120646094Y-83013655D01*
X120646096Y-83013659D01*
X120646097Y-83013663D01*
X120666772Y-83058000D01*
X120745965Y-83227830D01*
X120745967Y-83227834D01*
X120854281Y-83382521D01*
X120881501Y-83421396D01*
X120881506Y-83421402D01*
X121048597Y-83588493D01*
X121048603Y-83588498D01*
X121234158Y-83718425D01*
X121277783Y-83773002D01*
X121284977Y-83842500D01*
X121253454Y-83904855D01*
X121234158Y-83921575D01*
X121048597Y-84051505D01*
X120881506Y-84218596D01*
X120781359Y-84361623D01*
X120726782Y-84405248D01*
X120679784Y-84414500D01*
X120219163Y-84414500D01*
X120152124Y-84394815D01*
X120131482Y-84378181D01*
X117954319Y-82201018D01*
X117920834Y-82139695D01*
X117918000Y-82113337D01*
X117918000Y-78433507D01*
X117937685Y-78366468D01*
X117976903Y-78327968D01*
X118048656Y-78283712D01*
X118172712Y-78159656D01*
X118220961Y-78081430D01*
X118272909Y-78034706D01*
X118341871Y-78023483D01*
X118405953Y-78051326D01*
X118444810Y-78109395D01*
X118450500Y-78146527D01*
X118450500Y-79874842D01*
X118430815Y-79941881D01*
X118418650Y-79957814D01*
X118393470Y-79985778D01*
X118393465Y-79985785D01*
X118298821Y-80149715D01*
X118298818Y-80149722D01*
X118252480Y-80292337D01*
X118240326Y-80329744D01*
X118220540Y-80518000D01*
X118240326Y-80706256D01*
X118240327Y-80706259D01*
X118298818Y-80886277D01*
X118298821Y-80886284D01*
X118393467Y-81050216D01*
X118485250Y-81152151D01*
X118520129Y-81190888D01*
X118673265Y-81302148D01*
X118673270Y-81302151D01*
X118846192Y-81379142D01*
X118846197Y-81379144D01*
X119031354Y-81418500D01*
X119031355Y-81418500D01*
X119220644Y-81418500D01*
X119220646Y-81418500D01*
X119405803Y-81379144D01*
X119578730Y-81302151D01*
X119731871Y-81190888D01*
X119858533Y-81050216D01*
X119953179Y-80886284D01*
X120011674Y-80706256D01*
X120031460Y-80518000D01*
X120011674Y-80329744D01*
X119953179Y-80149716D01*
X119858533Y-79985784D01*
X119858529Y-79985778D01*
X119833350Y-79957814D01*
X119803120Y-79894822D01*
X119801500Y-79874842D01*
X119801500Y-76930148D01*
X119821185Y-76863109D01*
X119833351Y-76847175D01*
X119844334Y-76834977D01*
X119858533Y-76819208D01*
X119953179Y-76655276D01*
X120011674Y-76475248D01*
X120031460Y-76286992D01*
X120011674Y-76098736D01*
X119953179Y-75918708D01*
X119858533Y-75754776D01*
X119731871Y-75614104D01*
X119722889Y-75607578D01*
X119578734Y-75502843D01*
X119578729Y-75502840D01*
X119405807Y-75425849D01*
X119405802Y-75425847D01*
X119254383Y-75393663D01*
X119220646Y-75386492D01*
X119031354Y-75386492D01*
X118998897Y-75393390D01*
X118846197Y-75425847D01*
X118846192Y-75425849D01*
X118673270Y-75502840D01*
X118673265Y-75502843D01*
X118527384Y-75608832D01*
X118461578Y-75632312D01*
X118393524Y-75616486D01*
X118344829Y-75566380D01*
X118330499Y-75508517D01*
X118330499Y-74840499D01*
X118350184Y-74773461D01*
X118402988Y-74727706D01*
X118454499Y-74716500D01*
X120447698Y-74716500D01*
X120514737Y-74736185D01*
G37*
G04 #@! TD.AperFunction*
G04 #@! TA.AperFunction,Conductor*
G36*
X110024075Y-80325007D02*
G01*
X109990000Y-80452174D01*
X109990000Y-80583826D01*
X110024075Y-80710993D01*
X110056988Y-80768000D01*
X108383012Y-80768000D01*
X108415925Y-80710993D01*
X108450000Y-80583826D01*
X108450000Y-80452174D01*
X108415925Y-80325007D01*
X108383012Y-80268000D01*
X110056988Y-80268000D01*
X110024075Y-80325007D01*
G37*
G04 #@! TD.AperFunction*
G04 #@! TA.AperFunction,Conductor*
G36*
X127084549Y-75596110D02*
G01*
X127101269Y-75615405D01*
X127231505Y-75801401D01*
X127231506Y-75801402D01*
X127398597Y-75968493D01*
X127398603Y-75968498D01*
X127584158Y-76098425D01*
X127627783Y-76153002D01*
X127634977Y-76222500D01*
X127603454Y-76284855D01*
X127584158Y-76301575D01*
X127398597Y-76431505D01*
X127231505Y-76598597D01*
X127101575Y-76784158D01*
X127046998Y-76827783D01*
X126977500Y-76834977D01*
X126915145Y-76803454D01*
X126898425Y-76784158D01*
X126768494Y-76598597D01*
X126601402Y-76431506D01*
X126601401Y-76431505D01*
X126415405Y-76301269D01*
X126371781Y-76246692D01*
X126364588Y-76177193D01*
X126396110Y-76114839D01*
X126415405Y-76098119D01*
X126601082Y-75968105D01*
X126768105Y-75801082D01*
X126898119Y-75615405D01*
X126952696Y-75571781D01*
X127022195Y-75564588D01*
X127084549Y-75596110D01*
G37*
G04 #@! TD.AperFunction*
G04 #@! TA.AperFunction,Conductor*
G36*
X127084855Y-73056546D02*
G01*
X127101575Y-73075842D01*
X127231501Y-73261396D01*
X127231506Y-73261402D01*
X127398597Y-73428493D01*
X127398603Y-73428498D01*
X127584158Y-73558425D01*
X127627783Y-73613002D01*
X127634977Y-73682500D01*
X127603454Y-73744855D01*
X127584158Y-73761575D01*
X127398597Y-73891505D01*
X127231508Y-74058594D01*
X127101269Y-74244595D01*
X127046692Y-74288219D01*
X126977193Y-74295412D01*
X126914839Y-74263890D01*
X126898119Y-74244594D01*
X126768113Y-74058926D01*
X126768108Y-74058920D01*
X126601078Y-73891890D01*
X126415405Y-73761879D01*
X126371780Y-73707302D01*
X126364588Y-73637804D01*
X126396110Y-73575449D01*
X126415406Y-73558730D01*
X126415842Y-73558425D01*
X126601401Y-73428495D01*
X126768495Y-73261401D01*
X126898425Y-73075842D01*
X126953002Y-73032217D01*
X127022500Y-73025023D01*
X127084855Y-73056546D01*
G37*
G04 #@! TD.AperFunction*
G04 #@! TA.AperFunction,Conductor*
G36*
X103674075Y-80325007D02*
G01*
X103640000Y-80452174D01*
X103640000Y-80583826D01*
X103674075Y-80710993D01*
X103706988Y-80768000D01*
X102033012Y-80768000D01*
X102065925Y-80710993D01*
X102100000Y-80583826D01*
X102100000Y-80452174D01*
X102065925Y-80325007D01*
X102033012Y-80268000D01*
X103706988Y-80268000D01*
X103674075Y-80325007D01*
G37*
G04 #@! TD.AperFunction*
G04 #@! TA.AperFunction,Conductor*
G36*
X131214539Y-68265185D02*
G01*
X131260294Y-68317989D01*
X131271500Y-68369500D01*
X131271500Y-87020500D01*
X131251815Y-87087539D01*
X131199011Y-87133294D01*
X131147500Y-87144500D01*
X98976500Y-87144500D01*
X98909461Y-87124815D01*
X98863706Y-87072011D01*
X98852500Y-87020500D01*
X98852500Y-70357999D01*
X100244341Y-70357999D01*
X100244341Y-70358000D01*
X100264936Y-70593403D01*
X100264938Y-70593413D01*
X100326094Y-70821655D01*
X100326096Y-70821659D01*
X100326097Y-70821663D01*
X100382364Y-70942327D01*
X100425965Y-71035830D01*
X100425967Y-71035834D01*
X100498105Y-71138857D01*
X100552098Y-71215967D01*
X100561501Y-71229395D01*
X100561506Y-71229402D01*
X100728597Y-71396493D01*
X100728603Y-71396498D01*
X100914158Y-71526425D01*
X100957783Y-71581002D01*
X100964977Y-71650500D01*
X100933454Y-71712855D01*
X100914158Y-71729575D01*
X100728597Y-71859505D01*
X100561505Y-72026597D01*
X100425965Y-72220169D01*
X100425964Y-72220171D01*
X100326098Y-72434335D01*
X100326094Y-72434344D01*
X100264938Y-72662586D01*
X100264936Y-72662596D01*
X100244341Y-72897999D01*
X100244341Y-72898000D01*
X100264936Y-73133403D01*
X100264938Y-73133413D01*
X100326094Y-73361655D01*
X100326096Y-73361659D01*
X100326097Y-73361663D01*
X100406004Y-73533023D01*
X100425965Y-73575830D01*
X100425967Y-73575834D01*
X100530459Y-73725063D01*
X100561501Y-73769396D01*
X100561506Y-73769402D01*
X100728597Y-73936493D01*
X100728603Y-73936498D01*
X100914158Y-74066425D01*
X100957783Y-74121002D01*
X100964977Y-74190500D01*
X100933454Y-74252855D01*
X100914158Y-74269575D01*
X100728597Y-74399505D01*
X100561505Y-74566597D01*
X100425965Y-74760169D01*
X100425964Y-74760171D01*
X100326098Y-74974335D01*
X100326094Y-74974344D01*
X100264938Y-75202586D01*
X100264936Y-75202596D01*
X100244341Y-75437999D01*
X100244341Y-75438000D01*
X100264936Y-75673403D01*
X100264938Y-75673413D01*
X100326094Y-75901655D01*
X100326096Y-75901659D01*
X100326097Y-75901663D01*
X100409358Y-76080217D01*
X100425965Y-76115830D01*
X100425967Y-76115834D01*
X100500656Y-76222500D01*
X100561501Y-76309396D01*
X100561506Y-76309402D01*
X100728597Y-76476493D01*
X100728603Y-76476498D01*
X100914158Y-76606425D01*
X100957783Y-76661002D01*
X100964977Y-76730500D01*
X100933454Y-76792855D01*
X100914158Y-76809575D01*
X100728597Y-76939505D01*
X100561505Y-77106597D01*
X100425965Y-77300169D01*
X100425964Y-77300171D01*
X100326098Y-77514335D01*
X100326094Y-77514344D01*
X100264938Y-77742586D01*
X100264936Y-77742596D01*
X100244341Y-77977999D01*
X100244341Y-77978000D01*
X100264936Y-78213403D01*
X100264938Y-78213413D01*
X100326094Y-78441655D01*
X100326096Y-78441659D01*
X100326097Y-78441663D01*
X100357263Y-78508498D01*
X100425965Y-78655830D01*
X100425967Y-78655834D01*
X100500656Y-78762500D01*
X100561505Y-78849401D01*
X100728599Y-79016495D01*
X100902981Y-79138599D01*
X100914594Y-79146730D01*
X100958219Y-79201307D01*
X100965413Y-79270805D01*
X100933890Y-79333160D01*
X100914595Y-79349880D01*
X100728922Y-79479890D01*
X100728920Y-79479891D01*
X100561891Y-79646920D01*
X100561886Y-79646926D01*
X100426400Y-79840420D01*
X100426399Y-79840422D01*
X100326570Y-80054507D01*
X100326567Y-80054513D01*
X100269364Y-80267999D01*
X100269364Y-80268000D01*
X101166988Y-80268000D01*
X101134075Y-80325007D01*
X101100000Y-80452174D01*
X101100000Y-80583826D01*
X101134075Y-80710993D01*
X101166988Y-80768000D01*
X100269364Y-80768000D01*
X100326567Y-80981486D01*
X100326570Y-80981492D01*
X100426399Y-81195578D01*
X100561894Y-81389082D01*
X100728917Y-81556105D01*
X100914595Y-81686119D01*
X100958219Y-81740696D01*
X100965412Y-81810195D01*
X100933890Y-81872549D01*
X100914595Y-81889269D01*
X100728594Y-82019508D01*
X100561505Y-82186597D01*
X100425965Y-82380169D01*
X100425964Y-82380171D01*
X100326098Y-82594335D01*
X100326094Y-82594344D01*
X100264938Y-82822586D01*
X100264936Y-82822596D01*
X100244341Y-83057999D01*
X100244341Y-83058000D01*
X100264936Y-83293403D01*
X100264938Y-83293413D01*
X100326094Y-83521655D01*
X100326096Y-83521659D01*
X100326097Y-83521663D01*
X100357263Y-83588498D01*
X100425965Y-83735830D01*
X100425967Y-83735834D01*
X100500656Y-83842500D01*
X100561505Y-83929401D01*
X100728599Y-84096495D01*
X100775137Y-84129081D01*
X100922165Y-84232032D01*
X100922167Y-84232033D01*
X100922170Y-84232035D01*
X101136337Y-84331903D01*
X101364592Y-84393063D01*
X101552918Y-84409539D01*
X101599999Y-84413659D01*
X101600000Y-84413659D01*
X101600001Y-84413659D01*
X101639234Y-84410226D01*
X101835408Y-84393063D01*
X102063663Y-84331903D01*
X102277830Y-84232035D01*
X102471401Y-84096495D01*
X102638495Y-83929401D01*
X102768425Y-83743842D01*
X102823002Y-83700217D01*
X102892500Y-83693023D01*
X102954855Y-83724546D01*
X102971575Y-83743842D01*
X103101500Y-83929395D01*
X103101505Y-83929401D01*
X103268599Y-84096495D01*
X103315137Y-84129081D01*
X103462165Y-84232032D01*
X103462167Y-84232033D01*
X103462170Y-84232035D01*
X103676337Y-84331903D01*
X103904592Y-84393063D01*
X104092918Y-84409539D01*
X104139999Y-84413659D01*
X104140000Y-84413659D01*
X104140001Y-84413659D01*
X104179234Y-84410226D01*
X104375408Y-84393063D01*
X104603663Y-84331903D01*
X104817830Y-84232035D01*
X105011401Y-84096495D01*
X105178495Y-83929401D01*
X105314035Y-83735830D01*
X105413903Y-83521663D01*
X105475063Y-83293408D01*
X105495659Y-83058000D01*
X105475063Y-82822592D01*
X105413903Y-82594337D01*
X105314035Y-82380171D01*
X105313682Y-82379666D01*
X105178494Y-82186597D01*
X105011402Y-82019506D01*
X105011401Y-82019505D01*
X104825405Y-81889269D01*
X104781781Y-81834692D01*
X104774588Y-81765193D01*
X104806110Y-81702839D01*
X104825405Y-81686119D01*
X105011082Y-81556105D01*
X105178105Y-81389082D01*
X105313600Y-81195578D01*
X105413429Y-80981492D01*
X105413432Y-80981486D01*
X105470636Y-80768000D01*
X104573012Y-80768000D01*
X104605925Y-80710993D01*
X104640000Y-80583826D01*
X104640000Y-80452174D01*
X104605925Y-80325007D01*
X104573012Y-80268000D01*
X105470636Y-80268000D01*
X105470635Y-80267999D01*
X105413432Y-80054513D01*
X105413429Y-80054507D01*
X105313600Y-79840422D01*
X105313599Y-79840420D01*
X105178113Y-79646926D01*
X105178108Y-79646920D01*
X105011078Y-79479890D01*
X104825405Y-79349879D01*
X104781780Y-79295302D01*
X104774588Y-79225804D01*
X104806110Y-79163449D01*
X104825406Y-79146730D01*
X105011401Y-79016495D01*
X105178495Y-78849401D01*
X105314035Y-78655830D01*
X105413903Y-78441663D01*
X105475063Y-78213408D01*
X105495659Y-77978000D01*
X105475063Y-77742592D01*
X105413903Y-77514337D01*
X105314035Y-77300171D01*
X105308425Y-77292158D01*
X105178494Y-77106597D01*
X105011402Y-76939506D01*
X105011396Y-76939501D01*
X104825842Y-76809575D01*
X104782217Y-76754998D01*
X104775023Y-76685500D01*
X104806546Y-76623145D01*
X104825842Y-76606425D01*
X104851866Y-76588203D01*
X105011401Y-76476495D01*
X105178495Y-76309401D01*
X105314035Y-76115830D01*
X105413903Y-75901663D01*
X105475063Y-75673408D01*
X105495659Y-75438000D01*
X105475063Y-75202592D01*
X105413903Y-74974337D01*
X105314035Y-74760171D01*
X105308425Y-74752158D01*
X105178494Y-74566597D01*
X105011402Y-74399506D01*
X105011396Y-74399501D01*
X104825842Y-74269575D01*
X104782217Y-74214998D01*
X104775023Y-74145500D01*
X104806546Y-74083145D01*
X104825842Y-74066425D01*
X104885513Y-74024643D01*
X105011401Y-73936495D01*
X105178495Y-73769401D01*
X105314035Y-73575830D01*
X105413903Y-73361663D01*
X105475063Y-73133408D01*
X105495659Y-72898000D01*
X105495659Y-72897999D01*
X106594341Y-72897999D01*
X106594341Y-72898000D01*
X106614936Y-73133403D01*
X106614938Y-73133413D01*
X106676094Y-73361655D01*
X106676096Y-73361659D01*
X106676097Y-73361663D01*
X106756004Y-73533023D01*
X106775965Y-73575830D01*
X106775967Y-73575834D01*
X106880459Y-73725063D01*
X106911501Y-73769396D01*
X106911506Y-73769402D01*
X107078597Y-73936493D01*
X107078603Y-73936498D01*
X107264158Y-74066425D01*
X107307783Y-74121002D01*
X107314977Y-74190500D01*
X107283454Y-74252855D01*
X107264158Y-74269575D01*
X107078597Y-74399505D01*
X106911505Y-74566597D01*
X106775965Y-74760169D01*
X106775964Y-74760171D01*
X106676098Y-74974335D01*
X106676094Y-74974344D01*
X106614938Y-75202586D01*
X106614936Y-75202596D01*
X106594341Y-75437999D01*
X106594341Y-75438000D01*
X106614936Y-75673403D01*
X106614938Y-75673413D01*
X106676094Y-75901655D01*
X106676096Y-75901659D01*
X106676097Y-75901663D01*
X106759358Y-76080217D01*
X106775965Y-76115830D01*
X106775967Y-76115834D01*
X106850656Y-76222500D01*
X106911501Y-76309396D01*
X106911506Y-76309402D01*
X107078597Y-76476493D01*
X107078603Y-76476498D01*
X107264158Y-76606425D01*
X107307783Y-76661002D01*
X107314977Y-76730500D01*
X107283454Y-76792855D01*
X107264158Y-76809575D01*
X107078597Y-76939505D01*
X106911505Y-77106597D01*
X106775965Y-77300169D01*
X106775964Y-77300171D01*
X106676098Y-77514335D01*
X106676094Y-77514344D01*
X106614938Y-77742586D01*
X106614936Y-77742596D01*
X106594341Y-77977999D01*
X106594341Y-77978000D01*
X106614936Y-78213403D01*
X106614938Y-78213413D01*
X106676094Y-78441655D01*
X106676096Y-78441659D01*
X106676097Y-78441663D01*
X106707263Y-78508498D01*
X106775965Y-78655830D01*
X106775967Y-78655834D01*
X106850656Y-78762500D01*
X106911505Y-78849401D01*
X107078599Y-79016495D01*
X107252981Y-79138599D01*
X107264594Y-79146730D01*
X107308219Y-79201307D01*
X107315413Y-79270805D01*
X107283890Y-79333160D01*
X107264595Y-79349880D01*
X107078922Y-79479890D01*
X107078920Y-79479891D01*
X106911891Y-79646920D01*
X106911886Y-79646926D01*
X106776400Y-79840420D01*
X106776399Y-79840422D01*
X106676570Y-80054507D01*
X106676567Y-80054513D01*
X106619364Y-80267999D01*
X106619364Y-80268000D01*
X107516988Y-80268000D01*
X107484075Y-80325007D01*
X107450000Y-80452174D01*
X107450000Y-80583826D01*
X107484075Y-80710993D01*
X107516988Y-80768000D01*
X106619364Y-80768000D01*
X106676567Y-80981486D01*
X106676570Y-80981492D01*
X106776399Y-81195578D01*
X106911894Y-81389082D01*
X107078917Y-81556105D01*
X107264595Y-81686119D01*
X107308219Y-81740696D01*
X107315412Y-81810195D01*
X107283890Y-81872549D01*
X107264595Y-81889269D01*
X107078594Y-82019508D01*
X106911505Y-82186597D01*
X106775965Y-82380169D01*
X106775964Y-82380171D01*
X106676098Y-82594335D01*
X106676094Y-82594344D01*
X106614938Y-82822586D01*
X106614936Y-82822596D01*
X106594341Y-83057999D01*
X106594341Y-83058000D01*
X106614936Y-83293403D01*
X106614938Y-83293413D01*
X106676094Y-83521655D01*
X106676096Y-83521659D01*
X106676097Y-83521663D01*
X106707263Y-83588498D01*
X106775965Y-83735830D01*
X106775967Y-83735834D01*
X106850656Y-83842500D01*
X106911505Y-83929401D01*
X107078599Y-84096495D01*
X107125137Y-84129081D01*
X107272165Y-84232032D01*
X107272167Y-84232033D01*
X107272170Y-84232035D01*
X107486337Y-84331903D01*
X107714592Y-84393063D01*
X107902918Y-84409539D01*
X107949999Y-84413659D01*
X107950000Y-84413659D01*
X107950001Y-84413659D01*
X107989234Y-84410226D01*
X108185408Y-84393063D01*
X108413663Y-84331903D01*
X108627830Y-84232035D01*
X108821401Y-84096495D01*
X108988495Y-83929401D01*
X109118425Y-83743842D01*
X109173002Y-83700217D01*
X109242500Y-83693023D01*
X109304855Y-83724546D01*
X109321575Y-83743842D01*
X109451500Y-83929395D01*
X109451505Y-83929401D01*
X109618599Y-84096495D01*
X109665137Y-84129081D01*
X109812165Y-84232032D01*
X109812167Y-84232033D01*
X109812170Y-84232035D01*
X110026337Y-84331903D01*
X110254592Y-84393063D01*
X110442918Y-84409539D01*
X110489999Y-84413659D01*
X110490000Y-84413659D01*
X110490001Y-84413659D01*
X110529234Y-84410226D01*
X110725408Y-84393063D01*
X110953663Y-84331903D01*
X111167830Y-84232035D01*
X111361401Y-84096495D01*
X111528495Y-83929401D01*
X111628642Y-83786375D01*
X111683219Y-83742752D01*
X111730217Y-83733500D01*
X114874532Y-83733500D01*
X114874533Y-83733499D01*
X115005036Y-83707541D01*
X115127969Y-83656620D01*
X115238606Y-83582695D01*
X116360367Y-82460933D01*
X116421688Y-82427450D01*
X116491379Y-82432434D01*
X116547313Y-82474305D01*
X116569663Y-82524424D01*
X116592957Y-82641530D01*
X116592959Y-82641536D01*
X116643878Y-82764465D01*
X116643883Y-82764475D01*
X116717804Y-82875105D01*
X116717807Y-82875109D01*
X119457390Y-85614692D01*
X119457394Y-85614695D01*
X119568024Y-85688616D01*
X119568028Y-85688618D01*
X119568031Y-85688620D01*
X119690964Y-85739541D01*
X119821464Y-85765499D01*
X119821468Y-85765500D01*
X119821469Y-85765500D01*
X120679783Y-85765500D01*
X120746822Y-85785185D01*
X120781357Y-85818375D01*
X120881505Y-85961401D01*
X121048599Y-86128495D01*
X121145384Y-86196265D01*
X121242165Y-86264032D01*
X121242167Y-86264033D01*
X121242170Y-86264035D01*
X121456337Y-86363903D01*
X121684592Y-86425063D01*
X121861034Y-86440500D01*
X121919999Y-86445659D01*
X121920000Y-86445659D01*
X121920001Y-86445659D01*
X121978966Y-86440500D01*
X122155408Y-86425063D01*
X122383663Y-86363903D01*
X122597830Y-86264035D01*
X122791401Y-86128495D01*
X122958495Y-85961401D01*
X123094035Y-85767830D01*
X123193903Y-85553663D01*
X123255063Y-85325408D01*
X123275659Y-85090000D01*
X123255063Y-84854592D01*
X123193903Y-84626337D01*
X123094035Y-84412171D01*
X123089188Y-84405248D01*
X122958494Y-84218597D01*
X122791402Y-84051506D01*
X122791396Y-84051501D01*
X122605842Y-83921575D01*
X122562217Y-83866998D01*
X122555023Y-83797500D01*
X122586546Y-83735145D01*
X122605842Y-83718425D01*
X122694107Y-83656621D01*
X122791401Y-83588495D01*
X122958495Y-83421401D01*
X123094035Y-83227830D01*
X123193903Y-83013663D01*
X123255063Y-82785408D01*
X123275659Y-82550000D01*
X123255063Y-82314592D01*
X123193903Y-82086337D01*
X123094035Y-81872171D01*
X123088425Y-81864158D01*
X122958494Y-81678597D01*
X122791402Y-81511506D01*
X122791396Y-81511501D01*
X122605842Y-81381575D01*
X122562217Y-81326998D01*
X122555023Y-81257500D01*
X122586546Y-81195145D01*
X122605842Y-81178425D01*
X122643365Y-81152151D01*
X122791401Y-81048495D01*
X122958495Y-80881401D01*
X123094035Y-80687830D01*
X123193903Y-80473663D01*
X123255063Y-80245408D01*
X123275659Y-80010000D01*
X123255063Y-79774592D01*
X123193903Y-79546337D01*
X123094035Y-79332171D01*
X123088425Y-79324158D01*
X122958494Y-79138597D01*
X122791402Y-78971506D01*
X122791396Y-78971501D01*
X122605842Y-78841575D01*
X122562217Y-78786998D01*
X122555023Y-78717500D01*
X122586546Y-78655145D01*
X122605842Y-78638425D01*
X122642120Y-78613023D01*
X122791401Y-78508495D01*
X122958495Y-78341401D01*
X123094035Y-78147830D01*
X123193903Y-77933663D01*
X123255063Y-77705408D01*
X123275659Y-77470000D01*
X123255063Y-77234592D01*
X123193903Y-77006337D01*
X123094035Y-76792171D01*
X123088425Y-76784158D01*
X122958494Y-76598597D01*
X122791402Y-76431506D01*
X122791396Y-76431501D01*
X122605842Y-76301575D01*
X122562217Y-76246998D01*
X122555023Y-76177500D01*
X122586546Y-76115145D01*
X122605842Y-76098425D01*
X122759690Y-75990699D01*
X122791401Y-75968495D01*
X122958495Y-75801401D01*
X123094035Y-75607830D01*
X123193903Y-75393663D01*
X123255063Y-75165408D01*
X123275659Y-74930000D01*
X123255063Y-74694592D01*
X123212728Y-74536593D01*
X123214391Y-74466743D01*
X123253554Y-74408881D01*
X123317782Y-74381377D01*
X123332503Y-74380500D01*
X124318015Y-74380500D01*
X124385054Y-74400185D01*
X124430809Y-74452989D01*
X124440753Y-74522147D01*
X124437790Y-74536594D01*
X124399364Y-74679999D01*
X124399364Y-74680000D01*
X125296988Y-74680000D01*
X125264075Y-74737007D01*
X125230000Y-74864174D01*
X125230000Y-74995826D01*
X125264075Y-75122993D01*
X125296988Y-75180000D01*
X124399364Y-75180000D01*
X124456567Y-75393486D01*
X124456570Y-75393492D01*
X124556399Y-75607578D01*
X124691894Y-75801082D01*
X124858917Y-75968105D01*
X125044595Y-76098119D01*
X125088219Y-76152696D01*
X125095412Y-76222195D01*
X125063890Y-76284549D01*
X125044595Y-76301269D01*
X124858594Y-76431508D01*
X124691505Y-76598597D01*
X124555965Y-76792169D01*
X124555964Y-76792171D01*
X124456098Y-77006335D01*
X124456094Y-77006344D01*
X124394938Y-77234586D01*
X124394936Y-77234596D01*
X124374341Y-77469999D01*
X124374341Y-77470000D01*
X124394936Y-77705403D01*
X124394938Y-77705413D01*
X124456094Y-77933655D01*
X124456096Y-77933659D01*
X124456097Y-77933663D01*
X124538148Y-78109621D01*
X124555965Y-78147830D01*
X124555967Y-78147834D01*
X124650833Y-78283315D01*
X124691501Y-78341396D01*
X124691506Y-78341402D01*
X124858597Y-78508493D01*
X124858603Y-78508498D01*
X125044158Y-78638425D01*
X125087783Y-78693002D01*
X125094977Y-78762500D01*
X125063454Y-78824855D01*
X125044158Y-78841575D01*
X124858597Y-78971505D01*
X124691505Y-79138597D01*
X124555965Y-79332169D01*
X124555964Y-79332171D01*
X124456098Y-79546335D01*
X124456094Y-79546344D01*
X124394938Y-79774586D01*
X124394936Y-79774596D01*
X124374341Y-80009999D01*
X124374341Y-80010000D01*
X124394936Y-80245403D01*
X124394938Y-80245413D01*
X124456094Y-80473655D01*
X124456096Y-80473659D01*
X124456097Y-80473663D01*
X124460000Y-80482032D01*
X124555965Y-80687830D01*
X124555967Y-80687834D01*
X124652017Y-80825007D01*
X124691501Y-80881396D01*
X124691506Y-80881402D01*
X124858597Y-81048493D01*
X124858603Y-81048498D01*
X125044158Y-81178425D01*
X125087783Y-81233002D01*
X125094977Y-81302500D01*
X125063454Y-81364855D01*
X125044158Y-81381575D01*
X124858597Y-81511505D01*
X124691505Y-81678597D01*
X124555965Y-81872169D01*
X124555964Y-81872171D01*
X124456098Y-82086335D01*
X124456094Y-82086344D01*
X124394938Y-82314586D01*
X124394936Y-82314596D01*
X124374341Y-82549999D01*
X124374341Y-82550000D01*
X124394936Y-82785403D01*
X124394938Y-82785413D01*
X124456094Y-83013655D01*
X124456096Y-83013659D01*
X124456097Y-83013663D01*
X124476772Y-83058000D01*
X124555965Y-83227830D01*
X124555967Y-83227834D01*
X124664281Y-83382521D01*
X124691501Y-83421396D01*
X124691506Y-83421402D01*
X124813430Y-83543326D01*
X124846915Y-83604649D01*
X124841931Y-83674341D01*
X124800059Y-83730274D01*
X124769083Y-83747189D01*
X124637669Y-83796203D01*
X124637664Y-83796206D01*
X124522455Y-83882452D01*
X124522452Y-83882455D01*
X124436206Y-83997664D01*
X124436202Y-83997671D01*
X124385908Y-84132517D01*
X124379501Y-84192116D01*
X124379500Y-84192135D01*
X124379500Y-85987870D01*
X124379501Y-85987876D01*
X124385908Y-86047483D01*
X124436202Y-86182328D01*
X124436206Y-86182335D01*
X124522452Y-86297544D01*
X124522455Y-86297547D01*
X124637664Y-86383793D01*
X124637671Y-86383797D01*
X124772517Y-86434091D01*
X124772516Y-86434091D01*
X124779444Y-86434835D01*
X124832127Y-86440500D01*
X126627872Y-86440499D01*
X126687483Y-86434091D01*
X126822331Y-86383796D01*
X126937546Y-86297546D01*
X127023796Y-86182331D01*
X127072810Y-86050916D01*
X127114681Y-85994984D01*
X127180145Y-85970566D01*
X127248418Y-85985417D01*
X127276673Y-86006569D01*
X127398599Y-86128495D01*
X127495384Y-86196265D01*
X127592165Y-86264032D01*
X127592167Y-86264033D01*
X127592170Y-86264035D01*
X127806337Y-86363903D01*
X128034592Y-86425063D01*
X128211034Y-86440500D01*
X128269999Y-86445659D01*
X128270000Y-86445659D01*
X128270001Y-86445659D01*
X128328966Y-86440500D01*
X128505408Y-86425063D01*
X128733663Y-86363903D01*
X128947830Y-86264035D01*
X129141401Y-86128495D01*
X129308495Y-85961401D01*
X129444035Y-85767830D01*
X129543903Y-85553663D01*
X129605063Y-85325408D01*
X129625659Y-85090000D01*
X129605063Y-84854592D01*
X129543903Y-84626337D01*
X129444035Y-84412171D01*
X129439188Y-84405248D01*
X129308494Y-84218597D01*
X129141402Y-84051506D01*
X129141396Y-84051501D01*
X128955842Y-83921575D01*
X128912217Y-83866998D01*
X128905023Y-83797500D01*
X128936546Y-83735145D01*
X128955842Y-83718425D01*
X129044107Y-83656621D01*
X129141401Y-83588495D01*
X129308495Y-83421401D01*
X129444035Y-83227830D01*
X129543903Y-83013663D01*
X129605063Y-82785408D01*
X129625659Y-82550000D01*
X129605063Y-82314592D01*
X129543903Y-82086337D01*
X129444035Y-81872171D01*
X129438425Y-81864158D01*
X129308494Y-81678597D01*
X129141402Y-81511506D01*
X129141396Y-81511501D01*
X128955842Y-81381575D01*
X128912217Y-81326998D01*
X128905023Y-81257500D01*
X128936546Y-81195145D01*
X128955842Y-81178425D01*
X128993365Y-81152151D01*
X129141401Y-81048495D01*
X129308495Y-80881401D01*
X129444035Y-80687830D01*
X129543903Y-80473663D01*
X129605063Y-80245408D01*
X129625659Y-80010000D01*
X129605063Y-79774592D01*
X129543903Y-79546337D01*
X129444035Y-79332171D01*
X129438425Y-79324158D01*
X129308494Y-79138597D01*
X129141402Y-78971506D01*
X129141396Y-78971501D01*
X128955842Y-78841575D01*
X128912217Y-78786998D01*
X128905023Y-78717500D01*
X128936546Y-78655145D01*
X128955842Y-78638425D01*
X128992120Y-78613023D01*
X129141401Y-78508495D01*
X129308495Y-78341401D01*
X129444035Y-78147830D01*
X129543903Y-77933663D01*
X129605063Y-77705408D01*
X129625659Y-77470000D01*
X129605063Y-77234592D01*
X129543903Y-77006337D01*
X129444035Y-76792171D01*
X129438425Y-76784158D01*
X129308494Y-76598597D01*
X129141402Y-76431506D01*
X129141396Y-76431501D01*
X128955842Y-76301575D01*
X128912217Y-76246998D01*
X128905023Y-76177500D01*
X128936546Y-76115145D01*
X128955842Y-76098425D01*
X129109690Y-75990699D01*
X129141401Y-75968495D01*
X129308495Y-75801401D01*
X129444035Y-75607830D01*
X129543903Y-75393663D01*
X129605063Y-75165408D01*
X129625659Y-74930000D01*
X129605063Y-74694592D01*
X129543903Y-74466337D01*
X129444035Y-74252171D01*
X129438731Y-74244595D01*
X129308494Y-74058597D01*
X129141402Y-73891506D01*
X129141396Y-73891501D01*
X128955842Y-73761575D01*
X128912217Y-73706998D01*
X128905023Y-73637500D01*
X128936546Y-73575145D01*
X128955842Y-73558425D01*
X129046262Y-73495112D01*
X129141401Y-73428495D01*
X129308495Y-73261401D01*
X129444035Y-73067830D01*
X129543903Y-72853663D01*
X129605063Y-72625408D01*
X129625659Y-72390000D01*
X129605063Y-72154592D01*
X129543903Y-71926337D01*
X129444035Y-71712171D01*
X129438425Y-71704158D01*
X129308494Y-71518597D01*
X129141402Y-71351506D01*
X129141395Y-71351501D01*
X128947834Y-71215967D01*
X128947830Y-71215965D01*
X128876727Y-71182809D01*
X128733663Y-71116097D01*
X128733659Y-71116096D01*
X128733655Y-71116094D01*
X128505413Y-71054938D01*
X128505403Y-71054936D01*
X128270001Y-71034341D01*
X128269999Y-71034341D01*
X128034596Y-71054936D01*
X128034586Y-71054938D01*
X127806344Y-71116094D01*
X127806335Y-71116098D01*
X127592171Y-71215964D01*
X127592169Y-71215965D01*
X127398597Y-71351505D01*
X127231505Y-71518597D01*
X127101575Y-71704158D01*
X127046998Y-71747783D01*
X126977500Y-71754977D01*
X126915145Y-71723454D01*
X126898425Y-71704158D01*
X126768494Y-71518597D01*
X126601402Y-71351506D01*
X126601395Y-71351501D01*
X126407834Y-71215967D01*
X126407830Y-71215965D01*
X126336727Y-71182809D01*
X126193663Y-71116097D01*
X126193659Y-71116096D01*
X126193655Y-71116094D01*
X125965413Y-71054938D01*
X125965403Y-71054936D01*
X125730001Y-71034341D01*
X125729999Y-71034341D01*
X125494596Y-71054936D01*
X125494586Y-71054938D01*
X125266344Y-71116094D01*
X125266335Y-71116098D01*
X125052171Y-71215964D01*
X125052169Y-71215965D01*
X124858597Y-71351505D01*
X124691505Y-71518597D01*
X124555965Y-71712169D01*
X124555964Y-71712171D01*
X124456098Y-71926335D01*
X124456094Y-71926344D01*
X124394938Y-72154586D01*
X124394936Y-72154596D01*
X124374341Y-72389999D01*
X124374341Y-72390000D01*
X124394936Y-72625403D01*
X124394938Y-72625413D01*
X124406913Y-72670104D01*
X124405250Y-72739954D01*
X124374819Y-72789878D01*
X124171516Y-72993182D01*
X124110196Y-73026666D01*
X124083837Y-73029500D01*
X123394000Y-73029500D01*
X123326961Y-73009815D01*
X123281206Y-72957011D01*
X123270000Y-72905500D01*
X123270000Y-72640000D01*
X122353012Y-72640000D01*
X122385925Y-72582993D01*
X122420000Y-72455826D01*
X122420000Y-72324174D01*
X122385925Y-72197007D01*
X122353012Y-72140000D01*
X123270000Y-72140000D01*
X123270000Y-71492172D01*
X123269999Y-71492155D01*
X123263598Y-71432627D01*
X123263596Y-71432620D01*
X123213354Y-71297913D01*
X123213350Y-71297906D01*
X123127190Y-71182812D01*
X123127187Y-71182809D01*
X123012093Y-71096649D01*
X123012086Y-71096645D01*
X122877379Y-71046403D01*
X122877372Y-71046401D01*
X122817844Y-71040000D01*
X122170000Y-71040000D01*
X122170000Y-71956988D01*
X122112993Y-71924075D01*
X121985826Y-71890000D01*
X121854174Y-71890000D01*
X121727007Y-71924075D01*
X121670000Y-71956988D01*
X121670000Y-71040000D01*
X121022155Y-71040000D01*
X120962627Y-71046401D01*
X120962620Y-71046403D01*
X120827913Y-71096645D01*
X120827906Y-71096649D01*
X120712812Y-71182809D01*
X120712809Y-71182812D01*
X120626649Y-71297906D01*
X120626645Y-71297913D01*
X120576403Y-71432620D01*
X120576401Y-71432627D01*
X120570000Y-71492155D01*
X120570000Y-72140000D01*
X121486988Y-72140000D01*
X121454075Y-72197007D01*
X121420000Y-72324174D01*
X121420000Y-72455826D01*
X121454075Y-72582993D01*
X121486988Y-72640000D01*
X120570000Y-72640000D01*
X120570000Y-73241500D01*
X120550315Y-73308539D01*
X120497511Y-73354294D01*
X120446000Y-73365500D01*
X116769875Y-73365500D01*
X116719439Y-73354779D01*
X116611807Y-73306857D01*
X116611802Y-73306855D01*
X116466001Y-73275865D01*
X116426646Y-73267500D01*
X116237354Y-73267500D01*
X116204897Y-73274398D01*
X116052197Y-73306855D01*
X116052192Y-73306857D01*
X115879270Y-73383848D01*
X115879265Y-73383851D01*
X115726129Y-73495111D01*
X115599466Y-73635785D01*
X115504821Y-73799715D01*
X115504819Y-73799719D01*
X115479383Y-73878004D01*
X115449134Y-73927366D01*
X115417500Y-73959000D01*
X115417500Y-78440999D01*
X115554972Y-78440999D01*
X115554986Y-78440998D01*
X115657697Y-78430505D01*
X115824119Y-78375358D01*
X115824124Y-78375356D01*
X115973345Y-78283315D01*
X116097318Y-78159342D01*
X116099165Y-78156348D01*
X116100969Y-78154724D01*
X116101798Y-78153677D01*
X116101976Y-78153818D01*
X116151110Y-78109621D01*
X116220073Y-78098396D01*
X116284156Y-78126236D01*
X116310243Y-78156341D01*
X116312288Y-78159656D01*
X116436344Y-78283712D01*
X116508096Y-78327968D01*
X116554821Y-78379915D01*
X116567000Y-78433507D01*
X116567000Y-80292337D01*
X116547315Y-80359376D01*
X116530681Y-80380018D01*
X114564518Y-82346181D01*
X114503195Y-82379666D01*
X114476837Y-82382500D01*
X111730216Y-82382500D01*
X111663177Y-82362815D01*
X111628641Y-82329623D01*
X111528494Y-82186597D01*
X111361402Y-82019506D01*
X111361401Y-82019505D01*
X111175405Y-81889269D01*
X111131781Y-81834692D01*
X111124588Y-81765193D01*
X111156110Y-81702839D01*
X111175405Y-81686119D01*
X111361082Y-81556105D01*
X111528105Y-81389082D01*
X111663600Y-81195578D01*
X111763429Y-80981492D01*
X111763432Y-80981486D01*
X111820636Y-80768000D01*
X110923012Y-80768000D01*
X110955925Y-80710993D01*
X110990000Y-80583826D01*
X110990000Y-80452174D01*
X110955925Y-80325007D01*
X110923012Y-80268000D01*
X111820636Y-80268000D01*
X111820635Y-80267999D01*
X111763432Y-80054513D01*
X111763429Y-80054507D01*
X111663600Y-79840422D01*
X111663599Y-79840420D01*
X111528113Y-79646926D01*
X111528108Y-79646920D01*
X111361078Y-79479890D01*
X111175405Y-79349879D01*
X111131780Y-79295302D01*
X111124588Y-79225804D01*
X111156110Y-79163449D01*
X111175406Y-79146730D01*
X111361401Y-79016495D01*
X111528495Y-78849401D01*
X111664035Y-78655830D01*
X111763903Y-78441663D01*
X111825063Y-78213408D01*
X111845659Y-77978000D01*
X111825063Y-77742592D01*
X111824633Y-77740986D01*
X114080001Y-77740986D01*
X114090494Y-77843697D01*
X114145641Y-78010119D01*
X114145643Y-78010124D01*
X114237684Y-78159345D01*
X114361654Y-78283315D01*
X114510875Y-78375356D01*
X114510880Y-78375358D01*
X114677302Y-78430505D01*
X114677309Y-78430506D01*
X114780019Y-78440999D01*
X114917499Y-78440999D01*
X114917500Y-78440998D01*
X114917500Y-77466000D01*
X114080001Y-77466000D01*
X114080001Y-77740986D01*
X111824633Y-77740986D01*
X111763903Y-77514337D01*
X111664035Y-77300171D01*
X111658424Y-77292158D01*
X111580192Y-77180430D01*
X111557865Y-77114224D01*
X111574875Y-77046457D01*
X111594086Y-77021626D01*
X111885213Y-76730500D01*
X111924700Y-76691013D01*
X114080000Y-76691013D01*
X114080000Y-76966000D01*
X114917500Y-76966000D01*
X114917500Y-75434000D01*
X114080001Y-75434000D01*
X114080001Y-75708986D01*
X114090494Y-75811697D01*
X114145641Y-75978119D01*
X114145643Y-75978124D01*
X114241475Y-76133491D01*
X114239108Y-76134950D01*
X114260461Y-76187912D01*
X114247406Y-76256551D01*
X114241139Y-76266301D01*
X114241475Y-76266509D01*
X114145643Y-76421875D01*
X114145641Y-76421880D01*
X114090494Y-76588302D01*
X114090493Y-76588309D01*
X114080000Y-76691013D01*
X111924700Y-76691013D01*
X112239695Y-76376018D01*
X112274029Y-76324633D01*
X112274030Y-76324633D01*
X112300842Y-76284504D01*
X112313620Y-76265381D01*
X112342318Y-76196097D01*
X112356840Y-76161040D01*
X112400685Y-76106639D01*
X112466980Y-76084579D01*
X112471398Y-76084500D01*
X112616644Y-76084500D01*
X112616646Y-76084500D01*
X112801803Y-76045144D01*
X112974730Y-75968151D01*
X113127871Y-75856888D01*
X113254533Y-75716216D01*
X113349179Y-75552284D01*
X113407674Y-75372256D01*
X113427460Y-75184000D01*
X113407674Y-74995744D01*
X113349179Y-74815716D01*
X113305327Y-74739763D01*
X113288855Y-74671864D01*
X113293303Y-74659013D01*
X114080000Y-74659013D01*
X114080000Y-74934000D01*
X114917500Y-74934000D01*
X114917500Y-73959000D01*
X114780027Y-73959000D01*
X114780012Y-73959001D01*
X114677302Y-73969494D01*
X114510880Y-74024641D01*
X114510875Y-74024643D01*
X114361654Y-74116684D01*
X114237684Y-74240654D01*
X114145643Y-74389875D01*
X114145641Y-74389880D01*
X114090494Y-74556302D01*
X114090493Y-74556309D01*
X114080000Y-74659013D01*
X113293303Y-74659013D01*
X113311708Y-74605837D01*
X113325034Y-74590083D01*
X113674464Y-74240654D01*
X114085867Y-73829251D01*
X114159792Y-73718614D01*
X114210712Y-73595681D01*
X114230717Y-73495112D01*
X114236672Y-73465178D01*
X114236672Y-72935500D01*
X114256357Y-72868461D01*
X114309161Y-72822706D01*
X114360672Y-72811500D01*
X114388753Y-72811500D01*
X118835339Y-72811500D01*
X118885775Y-72822221D01*
X118973192Y-72861142D01*
X118973197Y-72861144D01*
X119158354Y-72900500D01*
X119158355Y-72900500D01*
X119347644Y-72900500D01*
X119347646Y-72900500D01*
X119532803Y-72861144D01*
X119705730Y-72784151D01*
X119858871Y-72672888D01*
X119985533Y-72532216D01*
X120080179Y-72368284D01*
X120138674Y-72188256D01*
X120158460Y-72000000D01*
X120138674Y-71811744D01*
X120080179Y-71631716D01*
X119985533Y-71467784D01*
X119858871Y-71327112D01*
X119842864Y-71315482D01*
X119705734Y-71215851D01*
X119705729Y-71215848D01*
X119532807Y-71138857D01*
X119532803Y-71138856D01*
X119483891Y-71128459D01*
X119422409Y-71095266D01*
X119388633Y-71034103D01*
X119393287Y-70964388D01*
X119400844Y-70947736D01*
X119403791Y-70942336D01*
X119403796Y-70942331D01*
X119454091Y-70807483D01*
X119460500Y-70747873D01*
X119460499Y-68952128D01*
X119454091Y-68892517D01*
X119452810Y-68889083D01*
X119403797Y-68757671D01*
X119403793Y-68757664D01*
X119317547Y-68642455D01*
X119317544Y-68642452D01*
X119202335Y-68556206D01*
X119202328Y-68556202D01*
X119067482Y-68505908D01*
X119067483Y-68505908D01*
X119007883Y-68499501D01*
X119007881Y-68499500D01*
X119007873Y-68499500D01*
X119007864Y-68499500D01*
X117212129Y-68499500D01*
X117212123Y-68499501D01*
X117152516Y-68505908D01*
X117017671Y-68556202D01*
X117017664Y-68556206D01*
X116902455Y-68642452D01*
X116902452Y-68642455D01*
X116816206Y-68757664D01*
X116816203Y-68757669D01*
X116767189Y-68889083D01*
X116725317Y-68945016D01*
X116659853Y-68969433D01*
X116591580Y-68954581D01*
X116563326Y-68933430D01*
X116441402Y-68811506D01*
X116441395Y-68811501D01*
X116247834Y-68675967D01*
X116247830Y-68675965D01*
X116247828Y-68675964D01*
X116033663Y-68576097D01*
X116033659Y-68576096D01*
X116033655Y-68576094D01*
X115805413Y-68514938D01*
X115805403Y-68514936D01*
X115570001Y-68494341D01*
X115569999Y-68494341D01*
X115334596Y-68514936D01*
X115334586Y-68514938D01*
X115106344Y-68576094D01*
X115106335Y-68576098D01*
X114892171Y-68675964D01*
X114892169Y-68675965D01*
X114698597Y-68811505D01*
X114531505Y-68978597D01*
X114395965Y-69172169D01*
X114395964Y-69172171D01*
X114296098Y-69386335D01*
X114296094Y-69386344D01*
X114234938Y-69614586D01*
X114234936Y-69614596D01*
X114221314Y-69770300D01*
X114195861Y-69835368D01*
X114139270Y-69876347D01*
X114097786Y-69883492D01*
X112119523Y-69883492D01*
X111986461Y-69883492D01*
X111949535Y-69890837D01*
X111873610Y-69905939D01*
X111804019Y-69899711D01*
X111748842Y-69856847D01*
X111737038Y-69836726D01*
X111664035Y-69680171D01*
X111664034Y-69680169D01*
X111528494Y-69486597D01*
X111361402Y-69319506D01*
X111361395Y-69319501D01*
X111167834Y-69183967D01*
X111167830Y-69183965D01*
X111142533Y-69172169D01*
X110953663Y-69084097D01*
X110953659Y-69084096D01*
X110953655Y-69084094D01*
X110725413Y-69022938D01*
X110725403Y-69022936D01*
X110490001Y-69002341D01*
X110489999Y-69002341D01*
X110254596Y-69022936D01*
X110254586Y-69022938D01*
X110026344Y-69084094D01*
X110026335Y-69084098D01*
X109812171Y-69183964D01*
X109812169Y-69183965D01*
X109618600Y-69319503D01*
X109496673Y-69441430D01*
X109435350Y-69474914D01*
X109365658Y-69469930D01*
X109309725Y-69428058D01*
X109292810Y-69397081D01*
X109243797Y-69265671D01*
X109243793Y-69265664D01*
X109157547Y-69150455D01*
X109157544Y-69150452D01*
X109042335Y-69064206D01*
X109042328Y-69064202D01*
X108907482Y-69013908D01*
X108907483Y-69013908D01*
X108847883Y-69007501D01*
X108847881Y-69007500D01*
X108847873Y-69007500D01*
X108847864Y-69007500D01*
X107052129Y-69007500D01*
X107052123Y-69007501D01*
X106992516Y-69013908D01*
X106857671Y-69064202D01*
X106857664Y-69064206D01*
X106742455Y-69150452D01*
X106742452Y-69150455D01*
X106656206Y-69265664D01*
X106656202Y-69265671D01*
X106605908Y-69400517D01*
X106599501Y-69460116D01*
X106599501Y-69460123D01*
X106599500Y-69460135D01*
X106599500Y-71255870D01*
X106599501Y-71255876D01*
X106605908Y-71315483D01*
X106656202Y-71450328D01*
X106656206Y-71450335D01*
X106742452Y-71565544D01*
X106742455Y-71565547D01*
X106857664Y-71651793D01*
X106857671Y-71651797D01*
X106989081Y-71700810D01*
X107045015Y-71742681D01*
X107069432Y-71808145D01*
X107054580Y-71876418D01*
X107033430Y-71904673D01*
X106911503Y-72026600D01*
X106775965Y-72220169D01*
X106775964Y-72220171D01*
X106676098Y-72434335D01*
X106676094Y-72434344D01*
X106614938Y-72662586D01*
X106614936Y-72662596D01*
X106594341Y-72897999D01*
X105495659Y-72897999D01*
X105475063Y-72662592D01*
X105413903Y-72434337D01*
X105314035Y-72220171D01*
X105308424Y-72212158D01*
X105178496Y-72026600D01*
X105141797Y-71989901D01*
X105056567Y-71904671D01*
X105023084Y-71843351D01*
X105028068Y-71773659D01*
X105069939Y-71717725D01*
X105100915Y-71700810D01*
X105232331Y-71651796D01*
X105347546Y-71565546D01*
X105433796Y-71450331D01*
X105484091Y-71315483D01*
X105490500Y-71255873D01*
X105490499Y-69460128D01*
X105484091Y-69400517D01*
X105482810Y-69397083D01*
X105433797Y-69265671D01*
X105433793Y-69265664D01*
X105347547Y-69150455D01*
X105347544Y-69150452D01*
X105232335Y-69064206D01*
X105232328Y-69064202D01*
X105097482Y-69013908D01*
X105097483Y-69013908D01*
X105037883Y-69007501D01*
X105037881Y-69007500D01*
X105037873Y-69007500D01*
X105037864Y-69007500D01*
X103242129Y-69007500D01*
X103242123Y-69007501D01*
X103182516Y-69013908D01*
X103047671Y-69064202D01*
X103047664Y-69064206D01*
X102932455Y-69150452D01*
X102932452Y-69150455D01*
X102846206Y-69265664D01*
X102846203Y-69265669D01*
X102797189Y-69397083D01*
X102755317Y-69453016D01*
X102689853Y-69477433D01*
X102621580Y-69462581D01*
X102593326Y-69441430D01*
X102471402Y-69319506D01*
X102471395Y-69319501D01*
X102277834Y-69183967D01*
X102277830Y-69183965D01*
X102252533Y-69172169D01*
X102063663Y-69084097D01*
X102063659Y-69084096D01*
X102063655Y-69084094D01*
X101835413Y-69022938D01*
X101835403Y-69022936D01*
X101600001Y-69002341D01*
X101599999Y-69002341D01*
X101364596Y-69022936D01*
X101364586Y-69022938D01*
X101136344Y-69084094D01*
X101136335Y-69084098D01*
X100922171Y-69183964D01*
X100922169Y-69183965D01*
X100728597Y-69319505D01*
X100561505Y-69486597D01*
X100425965Y-69680169D01*
X100425964Y-69680171D01*
X100326098Y-69894335D01*
X100326094Y-69894344D01*
X100264938Y-70122586D01*
X100264936Y-70122596D01*
X100244341Y-70357999D01*
X98852500Y-70357999D01*
X98852500Y-68369500D01*
X98872185Y-68302461D01*
X98924989Y-68256706D01*
X98976500Y-68245500D01*
X131147500Y-68245500D01*
X131214539Y-68265185D01*
G37*
G04 #@! TD.AperFunction*
M02*
