G04 #@! TF.GenerationSoftware,KiCad,Pcbnew,8.0.9-8.0.9-0~ubuntu24.04.1*
G04 #@! TF.CreationDate,2025-04-08T01:43:19+09:30*
G04 #@! TF.ProjectId,qspi-pmod-adapter,71737069-2d70-46d6-9f64-2d6164617074,rev?*
G04 #@! TF.SameCoordinates,Original*
G04 #@! TF.FileFunction,Legend,Bot*
G04 #@! TF.FilePolarity,Positive*
%FSLAX46Y46*%
G04 Gerber Fmt 4.6, Leading zero omitted, Abs format (unit mm)*
G04 Created by KiCad (PCBNEW 8.0.9-8.0.9-0~ubuntu24.04.1) date 2025-04-08 01:43:19*
%MOMM*%
%LPD*%
G01*
G04 APERTURE LIST*
%ADD10C,0.100000*%
%ADD11R,1.700000X1.700000*%
%ADD12O,1.700000X1.700000*%
%ADD13C,1.700000*%
G04 APERTURE END LIST*
D10*
X130706895Y-69057142D02*
X129906895Y-69057142D01*
X129906895Y-69057142D02*
X129906895Y-69361904D01*
X129906895Y-69361904D02*
X129944990Y-69438094D01*
X129944990Y-69438094D02*
X129983085Y-69476189D01*
X129983085Y-69476189D02*
X130059276Y-69514285D01*
X130059276Y-69514285D02*
X130173561Y-69514285D01*
X130173561Y-69514285D02*
X130249752Y-69476189D01*
X130249752Y-69476189D02*
X130287847Y-69438094D01*
X130287847Y-69438094D02*
X130325942Y-69361904D01*
X130325942Y-69361904D02*
X130325942Y-69057142D01*
X130706895Y-69971427D02*
X130668800Y-69895237D01*
X130668800Y-69895237D02*
X130592609Y-69857142D01*
X130592609Y-69857142D02*
X129906895Y-69857142D01*
X130173561Y-70619047D02*
X130706895Y-70619047D01*
X130173561Y-70276190D02*
X130592609Y-70276190D01*
X130592609Y-70276190D02*
X130668800Y-70314285D01*
X130668800Y-70314285D02*
X130706895Y-70390475D01*
X130706895Y-70390475D02*
X130706895Y-70504761D01*
X130706895Y-70504761D02*
X130668800Y-70580952D01*
X130668800Y-70580952D02*
X130630704Y-70619047D01*
X130173561Y-71342857D02*
X130821180Y-71342857D01*
X130821180Y-71342857D02*
X130897371Y-71304762D01*
X130897371Y-71304762D02*
X130935466Y-71266666D01*
X130935466Y-71266666D02*
X130973561Y-71190476D01*
X130973561Y-71190476D02*
X130973561Y-71076190D01*
X130973561Y-71076190D02*
X130935466Y-71000000D01*
X130668800Y-71342857D02*
X130706895Y-71266666D01*
X130706895Y-71266666D02*
X130706895Y-71114285D01*
X130706895Y-71114285D02*
X130668800Y-71038095D01*
X130668800Y-71038095D02*
X130630704Y-71000000D01*
X130630704Y-71000000D02*
X130554514Y-70961904D01*
X130554514Y-70961904D02*
X130325942Y-70961904D01*
X130325942Y-70961904D02*
X130249752Y-71000000D01*
X130249752Y-71000000D02*
X130211657Y-71038095D01*
X130211657Y-71038095D02*
X130173561Y-71114285D01*
X130173561Y-71114285D02*
X130173561Y-71266666D01*
X130173561Y-71266666D02*
X130211657Y-71342857D01*
X129906895Y-72219048D02*
X129906895Y-72676191D01*
X130706895Y-72447619D02*
X129906895Y-72447619D01*
X130706895Y-72942858D02*
X130173561Y-72942858D01*
X129906895Y-72942858D02*
X129944990Y-72904762D01*
X129944990Y-72904762D02*
X129983085Y-72942858D01*
X129983085Y-72942858D02*
X129944990Y-72980953D01*
X129944990Y-72980953D02*
X129906895Y-72942858D01*
X129906895Y-72942858D02*
X129983085Y-72942858D01*
X130173561Y-73323810D02*
X130706895Y-73323810D01*
X130249752Y-73323810D02*
X130211657Y-73361905D01*
X130211657Y-73361905D02*
X130173561Y-73438095D01*
X130173561Y-73438095D02*
X130173561Y-73552381D01*
X130173561Y-73552381D02*
X130211657Y-73628572D01*
X130211657Y-73628572D02*
X130287847Y-73666667D01*
X130287847Y-73666667D02*
X130706895Y-73666667D01*
X130173561Y-73971429D02*
X130706895Y-74161905D01*
X130173561Y-74352382D02*
X130706895Y-74161905D01*
X130706895Y-74161905D02*
X130897371Y-74085715D01*
X130897371Y-74085715D02*
X130935466Y-74047620D01*
X130935466Y-74047620D02*
X130973561Y-73971429D01*
X130783085Y-75800001D02*
X130744990Y-75723811D01*
X130744990Y-75723811D02*
X130668800Y-75647620D01*
X130668800Y-75647620D02*
X130554514Y-75533334D01*
X130554514Y-75533334D02*
X130516419Y-75457144D01*
X130516419Y-75457144D02*
X130516419Y-75380953D01*
X130706895Y-75419049D02*
X130668800Y-75342858D01*
X130668800Y-75342858D02*
X130592609Y-75266668D01*
X130592609Y-75266668D02*
X130440228Y-75228572D01*
X130440228Y-75228572D02*
X130173561Y-75228572D01*
X130173561Y-75228572D02*
X130021180Y-75266668D01*
X130021180Y-75266668D02*
X129944990Y-75342858D01*
X129944990Y-75342858D02*
X129906895Y-75419049D01*
X129906895Y-75419049D02*
X129906895Y-75571430D01*
X129906895Y-75571430D02*
X129944990Y-75647620D01*
X129944990Y-75647620D02*
X130021180Y-75723811D01*
X130021180Y-75723811D02*
X130173561Y-75761906D01*
X130173561Y-75761906D02*
X130440228Y-75761906D01*
X130440228Y-75761906D02*
X130592609Y-75723811D01*
X130592609Y-75723811D02*
X130668800Y-75647620D01*
X130668800Y-75647620D02*
X130706895Y-75571430D01*
X130706895Y-75571430D02*
X130706895Y-75419049D01*
X130668800Y-76066667D02*
X130706895Y-76180953D01*
X130706895Y-76180953D02*
X130706895Y-76371429D01*
X130706895Y-76371429D02*
X130668800Y-76447620D01*
X130668800Y-76447620D02*
X130630704Y-76485715D01*
X130630704Y-76485715D02*
X130554514Y-76523810D01*
X130554514Y-76523810D02*
X130478323Y-76523810D01*
X130478323Y-76523810D02*
X130402133Y-76485715D01*
X130402133Y-76485715D02*
X130364038Y-76447620D01*
X130364038Y-76447620D02*
X130325942Y-76371429D01*
X130325942Y-76371429D02*
X130287847Y-76219048D01*
X130287847Y-76219048D02*
X130249752Y-76142858D01*
X130249752Y-76142858D02*
X130211657Y-76104763D01*
X130211657Y-76104763D02*
X130135466Y-76066667D01*
X130135466Y-76066667D02*
X130059276Y-76066667D01*
X130059276Y-76066667D02*
X129983085Y-76104763D01*
X129983085Y-76104763D02*
X129944990Y-76142858D01*
X129944990Y-76142858D02*
X129906895Y-76219048D01*
X129906895Y-76219048D02*
X129906895Y-76409525D01*
X129906895Y-76409525D02*
X129944990Y-76523810D01*
X130706895Y-76866668D02*
X129906895Y-76866668D01*
X129906895Y-76866668D02*
X129906895Y-77171430D01*
X129906895Y-77171430D02*
X129944990Y-77247620D01*
X129944990Y-77247620D02*
X129983085Y-77285715D01*
X129983085Y-77285715D02*
X130059276Y-77323811D01*
X130059276Y-77323811D02*
X130173561Y-77323811D01*
X130173561Y-77323811D02*
X130249752Y-77285715D01*
X130249752Y-77285715D02*
X130287847Y-77247620D01*
X130287847Y-77247620D02*
X130325942Y-77171430D01*
X130325942Y-77171430D02*
X130325942Y-76866668D01*
X130706895Y-77666668D02*
X129906895Y-77666668D01*
X130706895Y-78657144D02*
X129906895Y-78657144D01*
X129906895Y-78657144D02*
X129906895Y-78961906D01*
X129906895Y-78961906D02*
X129944990Y-79038096D01*
X129944990Y-79038096D02*
X129983085Y-79076191D01*
X129983085Y-79076191D02*
X130059276Y-79114287D01*
X130059276Y-79114287D02*
X130173561Y-79114287D01*
X130173561Y-79114287D02*
X130249752Y-79076191D01*
X130249752Y-79076191D02*
X130287847Y-79038096D01*
X130287847Y-79038096D02*
X130325942Y-78961906D01*
X130325942Y-78961906D02*
X130325942Y-78657144D01*
X130706895Y-79457144D02*
X129906895Y-79457144D01*
X129906895Y-79457144D02*
X130478323Y-79723810D01*
X130478323Y-79723810D02*
X129906895Y-79990477D01*
X129906895Y-79990477D02*
X130706895Y-79990477D01*
X129906895Y-80523811D02*
X129906895Y-80676192D01*
X129906895Y-80676192D02*
X129944990Y-80752382D01*
X129944990Y-80752382D02*
X130021180Y-80828573D01*
X130021180Y-80828573D02*
X130173561Y-80866668D01*
X130173561Y-80866668D02*
X130440228Y-80866668D01*
X130440228Y-80866668D02*
X130592609Y-80828573D01*
X130592609Y-80828573D02*
X130668800Y-80752382D01*
X130668800Y-80752382D02*
X130706895Y-80676192D01*
X130706895Y-80676192D02*
X130706895Y-80523811D01*
X130706895Y-80523811D02*
X130668800Y-80447620D01*
X130668800Y-80447620D02*
X130592609Y-80371430D01*
X130592609Y-80371430D02*
X130440228Y-80333334D01*
X130440228Y-80333334D02*
X130173561Y-80333334D01*
X130173561Y-80333334D02*
X130021180Y-80371430D01*
X130021180Y-80371430D02*
X129944990Y-80447620D01*
X129944990Y-80447620D02*
X129906895Y-80523811D01*
X130706895Y-81209525D02*
X129906895Y-81209525D01*
X129906895Y-81209525D02*
X129906895Y-81400001D01*
X129906895Y-81400001D02*
X129944990Y-81514287D01*
X129944990Y-81514287D02*
X130021180Y-81590477D01*
X130021180Y-81590477D02*
X130097371Y-81628572D01*
X130097371Y-81628572D02*
X130249752Y-81666668D01*
X130249752Y-81666668D02*
X130364038Y-81666668D01*
X130364038Y-81666668D02*
X130516419Y-81628572D01*
X130516419Y-81628572D02*
X130592609Y-81590477D01*
X130592609Y-81590477D02*
X130668800Y-81514287D01*
X130668800Y-81514287D02*
X130706895Y-81400001D01*
X130706895Y-81400001D02*
X130706895Y-81209525D01*
X130706895Y-82619049D02*
X130173561Y-82619049D01*
X129906895Y-82619049D02*
X129944990Y-82580953D01*
X129944990Y-82580953D02*
X129983085Y-82619049D01*
X129983085Y-82619049D02*
X129944990Y-82657144D01*
X129944990Y-82657144D02*
X129906895Y-82619049D01*
X129906895Y-82619049D02*
X129983085Y-82619049D01*
X130173561Y-83000001D02*
X130706895Y-83000001D01*
X130249752Y-83000001D02*
X130211657Y-83038096D01*
X130211657Y-83038096D02*
X130173561Y-83114286D01*
X130173561Y-83114286D02*
X130173561Y-83228572D01*
X130173561Y-83228572D02*
X130211657Y-83304763D01*
X130211657Y-83304763D02*
X130287847Y-83342858D01*
X130287847Y-83342858D02*
X130706895Y-83342858D01*
X99972895Y-69704759D02*
X99172895Y-69704759D01*
X99172895Y-69704759D02*
X99172895Y-70009521D01*
X99172895Y-70009521D02*
X99210990Y-70085711D01*
X99210990Y-70085711D02*
X99249085Y-70123806D01*
X99249085Y-70123806D02*
X99325276Y-70161902D01*
X99325276Y-70161902D02*
X99439561Y-70161902D01*
X99439561Y-70161902D02*
X99515752Y-70123806D01*
X99515752Y-70123806D02*
X99553847Y-70085711D01*
X99553847Y-70085711D02*
X99591942Y-70009521D01*
X99591942Y-70009521D02*
X99591942Y-69704759D01*
X99972895Y-70619044D02*
X99934800Y-70542854D01*
X99934800Y-70542854D02*
X99858609Y-70504759D01*
X99858609Y-70504759D02*
X99172895Y-70504759D01*
X99439561Y-71266664D02*
X99972895Y-71266664D01*
X99439561Y-70923807D02*
X99858609Y-70923807D01*
X99858609Y-70923807D02*
X99934800Y-70961902D01*
X99934800Y-70961902D02*
X99972895Y-71038092D01*
X99972895Y-71038092D02*
X99972895Y-71152378D01*
X99972895Y-71152378D02*
X99934800Y-71228569D01*
X99934800Y-71228569D02*
X99896704Y-71266664D01*
X99439561Y-71990474D02*
X100087180Y-71990474D01*
X100087180Y-71990474D02*
X100163371Y-71952379D01*
X100163371Y-71952379D02*
X100201466Y-71914283D01*
X100201466Y-71914283D02*
X100239561Y-71838093D01*
X100239561Y-71838093D02*
X100239561Y-71723807D01*
X100239561Y-71723807D02*
X100201466Y-71647617D01*
X99934800Y-71990474D02*
X99972895Y-71914283D01*
X99972895Y-71914283D02*
X99972895Y-71761902D01*
X99972895Y-71761902D02*
X99934800Y-71685712D01*
X99934800Y-71685712D02*
X99896704Y-71647617D01*
X99896704Y-71647617D02*
X99820514Y-71609521D01*
X99820514Y-71609521D02*
X99591942Y-71609521D01*
X99591942Y-71609521D02*
X99515752Y-71647617D01*
X99515752Y-71647617D02*
X99477657Y-71685712D01*
X99477657Y-71685712D02*
X99439561Y-71761902D01*
X99439561Y-71761902D02*
X99439561Y-71914283D01*
X99439561Y-71914283D02*
X99477657Y-71990474D01*
X99972895Y-72980951D02*
X99439561Y-72980951D01*
X99172895Y-72980951D02*
X99210990Y-72942855D01*
X99210990Y-72942855D02*
X99249085Y-72980951D01*
X99249085Y-72980951D02*
X99210990Y-73019046D01*
X99210990Y-73019046D02*
X99172895Y-72980951D01*
X99172895Y-72980951D02*
X99249085Y-72980951D01*
X99439561Y-73361903D02*
X99972895Y-73361903D01*
X99515752Y-73361903D02*
X99477657Y-73399998D01*
X99477657Y-73399998D02*
X99439561Y-73476188D01*
X99439561Y-73476188D02*
X99439561Y-73590474D01*
X99439561Y-73590474D02*
X99477657Y-73666665D01*
X99477657Y-73666665D02*
X99553847Y-73704760D01*
X99553847Y-73704760D02*
X99972895Y-73704760D01*
X99439561Y-73971427D02*
X99439561Y-74276189D01*
X99172895Y-74085713D02*
X99858609Y-74085713D01*
X99858609Y-74085713D02*
X99934800Y-74123808D01*
X99934800Y-74123808D02*
X99972895Y-74199998D01*
X99972895Y-74199998D02*
X99972895Y-74276189D01*
X99972895Y-74657141D02*
X99934800Y-74580951D01*
X99934800Y-74580951D02*
X99896704Y-74542856D01*
X99896704Y-74542856D02*
X99820514Y-74504760D01*
X99820514Y-74504760D02*
X99591942Y-74504760D01*
X99591942Y-74504760D02*
X99515752Y-74542856D01*
X99515752Y-74542856D02*
X99477657Y-74580951D01*
X99477657Y-74580951D02*
X99439561Y-74657141D01*
X99439561Y-74657141D02*
X99439561Y-74771427D01*
X99439561Y-74771427D02*
X99477657Y-74847618D01*
X99477657Y-74847618D02*
X99515752Y-74885713D01*
X99515752Y-74885713D02*
X99591942Y-74923808D01*
X99591942Y-74923808D02*
X99820514Y-74923808D01*
X99820514Y-74923808D02*
X99896704Y-74885713D01*
X99896704Y-74885713D02*
X99934800Y-74847618D01*
X99934800Y-74847618D02*
X99972895Y-74771427D01*
X99972895Y-74771427D02*
X99972895Y-74657141D01*
X99972895Y-76219047D02*
X99172895Y-76219047D01*
X99934800Y-76219047D02*
X99972895Y-76142856D01*
X99972895Y-76142856D02*
X99972895Y-75990475D01*
X99972895Y-75990475D02*
X99934800Y-75914285D01*
X99934800Y-75914285D02*
X99896704Y-75876190D01*
X99896704Y-75876190D02*
X99820514Y-75838094D01*
X99820514Y-75838094D02*
X99591942Y-75838094D01*
X99591942Y-75838094D02*
X99515752Y-75876190D01*
X99515752Y-75876190D02*
X99477657Y-75914285D01*
X99477657Y-75914285D02*
X99439561Y-75990475D01*
X99439561Y-75990475D02*
X99439561Y-76142856D01*
X99439561Y-76142856D02*
X99477657Y-76219047D01*
X99934800Y-76904762D02*
X99972895Y-76828571D01*
X99972895Y-76828571D02*
X99972895Y-76676190D01*
X99972895Y-76676190D02*
X99934800Y-76600000D01*
X99934800Y-76600000D02*
X99858609Y-76561904D01*
X99858609Y-76561904D02*
X99553847Y-76561904D01*
X99553847Y-76561904D02*
X99477657Y-76600000D01*
X99477657Y-76600000D02*
X99439561Y-76676190D01*
X99439561Y-76676190D02*
X99439561Y-76828571D01*
X99439561Y-76828571D02*
X99477657Y-76904762D01*
X99477657Y-76904762D02*
X99553847Y-76942857D01*
X99553847Y-76942857D02*
X99630038Y-76942857D01*
X99630038Y-76942857D02*
X99706228Y-76561904D01*
X99972895Y-77285714D02*
X99439561Y-77285714D01*
X99515752Y-77285714D02*
X99477657Y-77323809D01*
X99477657Y-77323809D02*
X99439561Y-77399999D01*
X99439561Y-77399999D02*
X99439561Y-77514285D01*
X99439561Y-77514285D02*
X99477657Y-77590476D01*
X99477657Y-77590476D02*
X99553847Y-77628571D01*
X99553847Y-77628571D02*
X99972895Y-77628571D01*
X99553847Y-77628571D02*
X99477657Y-77666666D01*
X99477657Y-77666666D02*
X99439561Y-77742857D01*
X99439561Y-77742857D02*
X99439561Y-77857142D01*
X99439561Y-77857142D02*
X99477657Y-77933333D01*
X99477657Y-77933333D02*
X99553847Y-77971428D01*
X99553847Y-77971428D02*
X99972895Y-77971428D01*
X99972895Y-78466666D02*
X99934800Y-78390476D01*
X99934800Y-78390476D02*
X99896704Y-78352381D01*
X99896704Y-78352381D02*
X99820514Y-78314285D01*
X99820514Y-78314285D02*
X99591942Y-78314285D01*
X99591942Y-78314285D02*
X99515752Y-78352381D01*
X99515752Y-78352381D02*
X99477657Y-78390476D01*
X99477657Y-78390476D02*
X99439561Y-78466666D01*
X99439561Y-78466666D02*
X99439561Y-78580952D01*
X99439561Y-78580952D02*
X99477657Y-78657143D01*
X99477657Y-78657143D02*
X99515752Y-78695238D01*
X99515752Y-78695238D02*
X99591942Y-78733333D01*
X99591942Y-78733333D02*
X99820514Y-78733333D01*
X99820514Y-78733333D02*
X99896704Y-78695238D01*
X99896704Y-78695238D02*
X99934800Y-78657143D01*
X99934800Y-78657143D02*
X99972895Y-78580952D01*
X99972895Y-78580952D02*
X99972895Y-78466666D01*
X99972895Y-79685715D02*
X99172895Y-79685715D01*
X99477657Y-79685715D02*
X99439561Y-79761905D01*
X99439561Y-79761905D02*
X99439561Y-79914286D01*
X99439561Y-79914286D02*
X99477657Y-79990477D01*
X99477657Y-79990477D02*
X99515752Y-80028572D01*
X99515752Y-80028572D02*
X99591942Y-80066667D01*
X99591942Y-80066667D02*
X99820514Y-80066667D01*
X99820514Y-80066667D02*
X99896704Y-80028572D01*
X99896704Y-80028572D02*
X99934800Y-79990477D01*
X99934800Y-79990477D02*
X99972895Y-79914286D01*
X99972895Y-79914286D02*
X99972895Y-79761905D01*
X99972895Y-79761905D02*
X99934800Y-79685715D01*
X99972895Y-80523810D02*
X99934800Y-80447620D01*
X99934800Y-80447620D02*
X99896704Y-80409525D01*
X99896704Y-80409525D02*
X99820514Y-80371429D01*
X99820514Y-80371429D02*
X99591942Y-80371429D01*
X99591942Y-80371429D02*
X99515752Y-80409525D01*
X99515752Y-80409525D02*
X99477657Y-80447620D01*
X99477657Y-80447620D02*
X99439561Y-80523810D01*
X99439561Y-80523810D02*
X99439561Y-80638096D01*
X99439561Y-80638096D02*
X99477657Y-80714287D01*
X99477657Y-80714287D02*
X99515752Y-80752382D01*
X99515752Y-80752382D02*
X99591942Y-80790477D01*
X99591942Y-80790477D02*
X99820514Y-80790477D01*
X99820514Y-80790477D02*
X99896704Y-80752382D01*
X99896704Y-80752382D02*
X99934800Y-80714287D01*
X99934800Y-80714287D02*
X99972895Y-80638096D01*
X99972895Y-80638096D02*
X99972895Y-80523810D01*
X99972895Y-81476192D02*
X99553847Y-81476192D01*
X99553847Y-81476192D02*
X99477657Y-81438097D01*
X99477657Y-81438097D02*
X99439561Y-81361906D01*
X99439561Y-81361906D02*
X99439561Y-81209525D01*
X99439561Y-81209525D02*
X99477657Y-81133335D01*
X99934800Y-81476192D02*
X99972895Y-81400001D01*
X99972895Y-81400001D02*
X99972895Y-81209525D01*
X99972895Y-81209525D02*
X99934800Y-81133335D01*
X99934800Y-81133335D02*
X99858609Y-81095239D01*
X99858609Y-81095239D02*
X99782419Y-81095239D01*
X99782419Y-81095239D02*
X99706228Y-81133335D01*
X99706228Y-81133335D02*
X99668133Y-81209525D01*
X99668133Y-81209525D02*
X99668133Y-81400001D01*
X99668133Y-81400001D02*
X99630038Y-81476192D01*
X99972895Y-81857145D02*
X99439561Y-81857145D01*
X99591942Y-81857145D02*
X99515752Y-81895240D01*
X99515752Y-81895240D02*
X99477657Y-81933335D01*
X99477657Y-81933335D02*
X99439561Y-82009526D01*
X99439561Y-82009526D02*
X99439561Y-82085716D01*
X99972895Y-82695240D02*
X99172895Y-82695240D01*
X99934800Y-82695240D02*
X99972895Y-82619049D01*
X99972895Y-82619049D02*
X99972895Y-82466668D01*
X99972895Y-82466668D02*
X99934800Y-82390478D01*
X99934800Y-82390478D02*
X99896704Y-82352383D01*
X99896704Y-82352383D02*
X99820514Y-82314287D01*
X99820514Y-82314287D02*
X99591942Y-82314287D01*
X99591942Y-82314287D02*
X99515752Y-82352383D01*
X99515752Y-82352383D02*
X99477657Y-82390478D01*
X99477657Y-82390478D02*
X99439561Y-82466668D01*
X99439561Y-82466668D02*
X99439561Y-82619049D01*
X99439561Y-82619049D02*
X99477657Y-82695240D01*
X107592895Y-69114285D02*
X106792895Y-69114285D01*
X106792895Y-69114285D02*
X106792895Y-69419047D01*
X106792895Y-69419047D02*
X106830990Y-69495237D01*
X106830990Y-69495237D02*
X106869085Y-69533332D01*
X106869085Y-69533332D02*
X106945276Y-69571428D01*
X106945276Y-69571428D02*
X107059561Y-69571428D01*
X107059561Y-69571428D02*
X107135752Y-69533332D01*
X107135752Y-69533332D02*
X107173847Y-69495237D01*
X107173847Y-69495237D02*
X107211942Y-69419047D01*
X107211942Y-69419047D02*
X107211942Y-69114285D01*
X107592895Y-69914285D02*
X106792895Y-69914285D01*
X106792895Y-69914285D02*
X107364323Y-70180951D01*
X107364323Y-70180951D02*
X106792895Y-70447618D01*
X106792895Y-70447618D02*
X107592895Y-70447618D01*
X106792895Y-70980952D02*
X106792895Y-71133333D01*
X106792895Y-71133333D02*
X106830990Y-71209523D01*
X106830990Y-71209523D02*
X106907180Y-71285714D01*
X106907180Y-71285714D02*
X107059561Y-71323809D01*
X107059561Y-71323809D02*
X107326228Y-71323809D01*
X107326228Y-71323809D02*
X107478609Y-71285714D01*
X107478609Y-71285714D02*
X107554800Y-71209523D01*
X107554800Y-71209523D02*
X107592895Y-71133333D01*
X107592895Y-71133333D02*
X107592895Y-70980952D01*
X107592895Y-70980952D02*
X107554800Y-70904761D01*
X107554800Y-70904761D02*
X107478609Y-70828571D01*
X107478609Y-70828571D02*
X107326228Y-70790475D01*
X107326228Y-70790475D02*
X107059561Y-70790475D01*
X107059561Y-70790475D02*
X106907180Y-70828571D01*
X106907180Y-70828571D02*
X106830990Y-70904761D01*
X106830990Y-70904761D02*
X106792895Y-70980952D01*
X107592895Y-71666666D02*
X106792895Y-71666666D01*
X106792895Y-71666666D02*
X106792895Y-71857142D01*
X106792895Y-71857142D02*
X106830990Y-71971428D01*
X106830990Y-71971428D02*
X106907180Y-72047618D01*
X106907180Y-72047618D02*
X106983371Y-72085713D01*
X106983371Y-72085713D02*
X107135752Y-72123809D01*
X107135752Y-72123809D02*
X107250038Y-72123809D01*
X107250038Y-72123809D02*
X107402419Y-72085713D01*
X107402419Y-72085713D02*
X107478609Y-72047618D01*
X107478609Y-72047618D02*
X107554800Y-71971428D01*
X107554800Y-71971428D02*
X107592895Y-71857142D01*
X107592895Y-71857142D02*
X107592895Y-71666666D01*
X107059561Y-73076190D02*
X107859561Y-73076190D01*
X107097657Y-73076190D02*
X107059561Y-73152380D01*
X107059561Y-73152380D02*
X107059561Y-73304761D01*
X107059561Y-73304761D02*
X107097657Y-73380952D01*
X107097657Y-73380952D02*
X107135752Y-73419047D01*
X107135752Y-73419047D02*
X107211942Y-73457142D01*
X107211942Y-73457142D02*
X107440514Y-73457142D01*
X107440514Y-73457142D02*
X107516704Y-73419047D01*
X107516704Y-73419047D02*
X107554800Y-73380952D01*
X107554800Y-73380952D02*
X107592895Y-73304761D01*
X107592895Y-73304761D02*
X107592895Y-73152380D01*
X107592895Y-73152380D02*
X107554800Y-73076190D01*
X107592895Y-74142857D02*
X107173847Y-74142857D01*
X107173847Y-74142857D02*
X107097657Y-74104762D01*
X107097657Y-74104762D02*
X107059561Y-74028571D01*
X107059561Y-74028571D02*
X107059561Y-73876190D01*
X107059561Y-73876190D02*
X107097657Y-73800000D01*
X107554800Y-74142857D02*
X107592895Y-74066666D01*
X107592895Y-74066666D02*
X107592895Y-73876190D01*
X107592895Y-73876190D02*
X107554800Y-73800000D01*
X107554800Y-73800000D02*
X107478609Y-73761904D01*
X107478609Y-73761904D02*
X107402419Y-73761904D01*
X107402419Y-73761904D02*
X107326228Y-73800000D01*
X107326228Y-73800000D02*
X107288133Y-73876190D01*
X107288133Y-73876190D02*
X107288133Y-74066666D01*
X107288133Y-74066666D02*
X107250038Y-74142857D01*
X107554800Y-74485714D02*
X107592895Y-74561905D01*
X107592895Y-74561905D02*
X107592895Y-74714286D01*
X107592895Y-74714286D02*
X107554800Y-74790476D01*
X107554800Y-74790476D02*
X107478609Y-74828572D01*
X107478609Y-74828572D02*
X107440514Y-74828572D01*
X107440514Y-74828572D02*
X107364323Y-74790476D01*
X107364323Y-74790476D02*
X107326228Y-74714286D01*
X107326228Y-74714286D02*
X107326228Y-74600000D01*
X107326228Y-74600000D02*
X107288133Y-74523810D01*
X107288133Y-74523810D02*
X107211942Y-74485714D01*
X107211942Y-74485714D02*
X107173847Y-74485714D01*
X107173847Y-74485714D02*
X107097657Y-74523810D01*
X107097657Y-74523810D02*
X107059561Y-74600000D01*
X107059561Y-74600000D02*
X107059561Y-74714286D01*
X107059561Y-74714286D02*
X107097657Y-74790476D01*
X107554800Y-75133333D02*
X107592895Y-75209524D01*
X107592895Y-75209524D02*
X107592895Y-75361905D01*
X107592895Y-75361905D02*
X107554800Y-75438095D01*
X107554800Y-75438095D02*
X107478609Y-75476191D01*
X107478609Y-75476191D02*
X107440514Y-75476191D01*
X107440514Y-75476191D02*
X107364323Y-75438095D01*
X107364323Y-75438095D02*
X107326228Y-75361905D01*
X107326228Y-75361905D02*
X107326228Y-75247619D01*
X107326228Y-75247619D02*
X107288133Y-75171429D01*
X107288133Y-75171429D02*
X107211942Y-75133333D01*
X107211942Y-75133333D02*
X107173847Y-75133333D01*
X107173847Y-75133333D02*
X107097657Y-75171429D01*
X107097657Y-75171429D02*
X107059561Y-75247619D01*
X107059561Y-75247619D02*
X107059561Y-75361905D01*
X107059561Y-75361905D02*
X107097657Y-75438095D01*
X107288133Y-75819048D02*
X107288133Y-76428572D01*
X107059561Y-76695238D02*
X107059561Y-77000000D01*
X106792895Y-76809524D02*
X107478609Y-76809524D01*
X107478609Y-76809524D02*
X107554800Y-76847619D01*
X107554800Y-76847619D02*
X107592895Y-76923809D01*
X107592895Y-76923809D02*
X107592895Y-77000000D01*
X107592895Y-77266667D02*
X106792895Y-77266667D01*
X107592895Y-77609524D02*
X107173847Y-77609524D01*
X107173847Y-77609524D02*
X107097657Y-77571429D01*
X107097657Y-77571429D02*
X107059561Y-77495238D01*
X107059561Y-77495238D02*
X107059561Y-77380952D01*
X107059561Y-77380952D02*
X107097657Y-77304762D01*
X107097657Y-77304762D02*
X107135752Y-77266667D01*
X107592895Y-77990477D02*
X107059561Y-77990477D01*
X107211942Y-77990477D02*
X107135752Y-78028572D01*
X107135752Y-78028572D02*
X107097657Y-78066667D01*
X107097657Y-78066667D02*
X107059561Y-78142858D01*
X107059561Y-78142858D02*
X107059561Y-78219048D01*
X107059561Y-78828572D02*
X107592895Y-78828572D01*
X107059561Y-78485715D02*
X107478609Y-78485715D01*
X107478609Y-78485715D02*
X107554800Y-78523810D01*
X107554800Y-78523810D02*
X107592895Y-78600000D01*
X107592895Y-78600000D02*
X107592895Y-78714286D01*
X107592895Y-78714286D02*
X107554800Y-78790477D01*
X107554800Y-78790477D02*
X107516704Y-78828572D01*
X107554800Y-79780953D02*
X107592895Y-79857144D01*
X107592895Y-79857144D02*
X107592895Y-80009525D01*
X107592895Y-80009525D02*
X107554800Y-80085715D01*
X107554800Y-80085715D02*
X107478609Y-80123811D01*
X107478609Y-80123811D02*
X107440514Y-80123811D01*
X107440514Y-80123811D02*
X107364323Y-80085715D01*
X107364323Y-80085715D02*
X107326228Y-80009525D01*
X107326228Y-80009525D02*
X107326228Y-79895239D01*
X107326228Y-79895239D02*
X107288133Y-79819049D01*
X107288133Y-79819049D02*
X107211942Y-79780953D01*
X107211942Y-79780953D02*
X107173847Y-79780953D01*
X107173847Y-79780953D02*
X107097657Y-79819049D01*
X107097657Y-79819049D02*
X107059561Y-79895239D01*
X107059561Y-79895239D02*
X107059561Y-80009525D01*
X107059561Y-80009525D02*
X107097657Y-80085715D01*
X107592895Y-80580953D02*
X107554800Y-80504763D01*
X107554800Y-80504763D02*
X107516704Y-80466668D01*
X107516704Y-80466668D02*
X107440514Y-80428572D01*
X107440514Y-80428572D02*
X107211942Y-80428572D01*
X107211942Y-80428572D02*
X107135752Y-80466668D01*
X107135752Y-80466668D02*
X107097657Y-80504763D01*
X107097657Y-80504763D02*
X107059561Y-80580953D01*
X107059561Y-80580953D02*
X107059561Y-80695239D01*
X107059561Y-80695239D02*
X107097657Y-80771430D01*
X107097657Y-80771430D02*
X107135752Y-80809525D01*
X107135752Y-80809525D02*
X107211942Y-80847620D01*
X107211942Y-80847620D02*
X107440514Y-80847620D01*
X107440514Y-80847620D02*
X107516704Y-80809525D01*
X107516704Y-80809525D02*
X107554800Y-80771430D01*
X107554800Y-80771430D02*
X107592895Y-80695239D01*
X107592895Y-80695239D02*
X107592895Y-80580953D01*
X107554800Y-81533335D02*
X107592895Y-81457144D01*
X107592895Y-81457144D02*
X107592895Y-81304763D01*
X107592895Y-81304763D02*
X107554800Y-81228573D01*
X107554800Y-81228573D02*
X107516704Y-81190478D01*
X107516704Y-81190478D02*
X107440514Y-81152382D01*
X107440514Y-81152382D02*
X107211942Y-81152382D01*
X107211942Y-81152382D02*
X107135752Y-81190478D01*
X107135752Y-81190478D02*
X107097657Y-81228573D01*
X107097657Y-81228573D02*
X107059561Y-81304763D01*
X107059561Y-81304763D02*
X107059561Y-81457144D01*
X107059561Y-81457144D02*
X107097657Y-81533335D01*
X107592895Y-81876192D02*
X106792895Y-81876192D01*
X107288133Y-81952382D02*
X107592895Y-82180954D01*
X107059561Y-82180954D02*
X107364323Y-81876192D01*
X107554800Y-82828573D02*
X107592895Y-82752382D01*
X107592895Y-82752382D02*
X107592895Y-82600001D01*
X107592895Y-82600001D02*
X107554800Y-82523811D01*
X107554800Y-82523811D02*
X107478609Y-82485715D01*
X107478609Y-82485715D02*
X107173847Y-82485715D01*
X107173847Y-82485715D02*
X107097657Y-82523811D01*
X107097657Y-82523811D02*
X107059561Y-82600001D01*
X107059561Y-82600001D02*
X107059561Y-82752382D01*
X107059561Y-82752382D02*
X107097657Y-82828573D01*
X107097657Y-82828573D02*
X107173847Y-82866668D01*
X107173847Y-82866668D02*
X107250038Y-82866668D01*
X107250038Y-82866668D02*
X107326228Y-82485715D01*
X107059561Y-83095239D02*
X107059561Y-83400001D01*
X106792895Y-83209525D02*
X107478609Y-83209525D01*
X107478609Y-83209525D02*
X107554800Y-83247620D01*
X107554800Y-83247620D02*
X107592895Y-83323810D01*
X107592895Y-83323810D02*
X107592895Y-83400001D01*
%LPC*%
D11*
X109220000Y-69850000D03*
D12*
X109220000Y-72390000D03*
X109220000Y-74930000D03*
X109220000Y-77470000D03*
X109220000Y-80010000D03*
D13*
X109220000Y-82550000D03*
D12*
X111760000Y-69850000D03*
X111760000Y-72390000D03*
X111760000Y-74930000D03*
X111760000Y-77470000D03*
X111760000Y-80010000D03*
X111760000Y-82550000D03*
D11*
X125730000Y-69850000D03*
D12*
X125730000Y-72390000D03*
X125730000Y-74930000D03*
X125730000Y-77470000D03*
X125730000Y-80010000D03*
D13*
X125730000Y-82550000D03*
D12*
X128270000Y-69850000D03*
X128270000Y-72390000D03*
X128270000Y-74930000D03*
X128270000Y-77470000D03*
X128270000Y-80010000D03*
X128270000Y-82550000D03*
D11*
X104140000Y-69850000D03*
D12*
X104140000Y-72390000D03*
X104140000Y-74930000D03*
X104140000Y-77470000D03*
X104140000Y-80010000D03*
D13*
X104140000Y-82550000D03*
D12*
X101600000Y-69850000D03*
X101600000Y-72390000D03*
X101600000Y-74930000D03*
X101600000Y-77470000D03*
X101600000Y-80010000D03*
X101600000Y-82550000D03*
%LPD*%
M02*
