G04 #@! TF.GenerationSoftware,KiCad,Pcbnew,8.0.9-8.0.9-0~ubuntu24.04.1*
G04 #@! TF.CreationDate,2025-04-27T15:56:27+09:30*
G04 #@! TF.ProjectId,qspi-pmod-adapter,71737069-2d70-46d6-9f64-2d6164617074,rev?*
G04 #@! TF.SameCoordinates,Original*
G04 #@! TF.FileFunction,Soldermask,Top*
G04 #@! TF.FilePolarity,Negative*
%FSLAX46Y46*%
G04 Gerber Fmt 4.6, Leading zero omitted, Abs format (unit mm)*
G04 Created by KiCad (PCBNEW 8.0.9-8.0.9-0~ubuntu24.04.1) date 2025-04-27 15:56:27*
%MOMM*%
%LPD*%
G01*
G04 APERTURE LIST*
G04 Aperture macros list*
%AMRoundRect*
0 Rectangle with rounded corners*
0 $1 Rounding radius*
0 $2 $3 $4 $5 $6 $7 $8 $9 X,Y pos of 4 corners*
0 Add a 4 corners polygon primitive as box body*
4,1,4,$2,$3,$4,$5,$6,$7,$8,$9,$2,$3,0*
0 Add four circle primitives for the rounded corners*
1,1,$1+$1,$2,$3*
1,1,$1+$1,$4,$5*
1,1,$1+$1,$6,$7*
1,1,$1+$1,$8,$9*
0 Add four rect primitives between the rounded corners*
20,1,$1+$1,$2,$3,$4,$5,0*
20,1,$1+$1,$4,$5,$6,$7,0*
20,1,$1+$1,$6,$7,$8,$9,0*
20,1,$1+$1,$8,$9,$2,$3,0*%
G04 Aperture macros list end*
%ADD10O,1.700000X1.700000*%
%ADD11C,1.700000*%
%ADD12R,1.700000X1.700000*%
%ADD13RoundRect,0.250000X-0.350000X-0.450000X0.350000X-0.450000X0.350000X0.450000X-0.350000X0.450000X0*%
%ADD14RoundRect,0.250000X0.350000X0.450000X-0.350000X0.450000X-0.350000X-0.450000X0.350000X-0.450000X0*%
%ADD15RoundRect,0.250000X0.325000X0.450000X-0.325000X0.450000X-0.325000X-0.450000X0.325000X-0.450000X0*%
%ADD16RoundRect,0.250000X-0.325000X-0.450000X0.325000X-0.450000X0.325000X0.450000X-0.325000X0.450000X0*%
%ADD17RoundRect,0.150000X0.150000X-0.650000X0.150000X0.650000X-0.150000X0.650000X-0.150000X-0.650000X0*%
G04 APERTURE END LIST*
D10*
X110490000Y-83058000D03*
X110490000Y-80518000D03*
X110490000Y-77978000D03*
X110490000Y-75438000D03*
X110490000Y-72898000D03*
X110490000Y-70358000D03*
D11*
X107950000Y-83058000D03*
D10*
X107950000Y-80518000D03*
X107950000Y-77978000D03*
X107950000Y-75438000D03*
X107950000Y-72898000D03*
D12*
X107950000Y-70358000D03*
D13*
X111268000Y-85852000D03*
X113268000Y-85852000D03*
D14*
X122793000Y-69596000D03*
X120793000Y-69596000D03*
D10*
X115570000Y-69850000D03*
D12*
X118110000Y-69850000D03*
X121920000Y-72390000D03*
D10*
X121920000Y-74930000D03*
X121920000Y-77470000D03*
X121920000Y-80010000D03*
X121920000Y-82550000D03*
X121920000Y-85090000D03*
X128270000Y-72390000D03*
X128270000Y-74930000D03*
X128270000Y-77470000D03*
X128270000Y-80010000D03*
X128270000Y-82550000D03*
X128270000Y-85090000D03*
D11*
X125730000Y-72390000D03*
D10*
X125730000Y-74930000D03*
X125730000Y-77470000D03*
X125730000Y-80010000D03*
X125730000Y-82550000D03*
D12*
X125730000Y-85090000D03*
D15*
X107197000Y-85852000D03*
X105147000Y-85852000D03*
D16*
X125594000Y-69596000D03*
X127644000Y-69596000D03*
D17*
X114300000Y-72752400D03*
X115570000Y-72752400D03*
X116840000Y-72752400D03*
X118110000Y-72752400D03*
X118110000Y-79952400D03*
X116840000Y-79952400D03*
X115570000Y-79952400D03*
X114300000Y-79952400D03*
D12*
X104140000Y-70358000D03*
D10*
X104140000Y-72898000D03*
X104140000Y-75438000D03*
X104140000Y-77978000D03*
X104140000Y-80518000D03*
D11*
X104140000Y-83058000D03*
D10*
X101600000Y-70358000D03*
X101600000Y-72898000D03*
X101600000Y-75438000D03*
X101600000Y-77978000D03*
X101600000Y-80518000D03*
X101600000Y-83058000D03*
M02*
