%TF.GenerationSoftware,KiCad,Pcbnew,8.0.9-8.0.9-0~ubuntu24.04.1*%
%TF.CreationDate,2025-04-08T01:43:22+09:30*%
%TF.ProjectId,qspi-pmod-adapter,71737069-2d70-46d6-9f64-2d6164617074,rev?*%
%TF.SameCoordinates,Original*%
%TF.FileFunction,Drillmap*%
%TF.FilePolarity,Positive*%
%FSLAX45Y45*%
G04 Gerber Fmt 4.5, Leading zero omitted, Abs format (unit mm)*
G04 Created by KiCad (PCBNEW 8.0.9-8.0.9-0~ubuntu24.04.1) date 2025-04-08 01:43:22*
%MOMM*%
%LPD*%
G01*
G04 APERTURE LIST*
%ADD10C,0.150000*%
%ADD11C,0.200000*%
G04 APERTURE END LIST*
D10*
X9855200Y-6794500D02*
X13157200Y-6794500D01*
X13157200Y-8445500D01*
X9855200Y-8445500D01*
X9855200Y-6794500D01*
D11*
X10108477Y-8764484D02*
X10108477Y-8564484D01*
X10108477Y-8564484D02*
X10156096Y-8564484D01*
X10156096Y-8564484D02*
X10184667Y-8574008D01*
X10184667Y-8574008D02*
X10203715Y-8593055D01*
X10203715Y-8593055D02*
X10213239Y-8612103D01*
X10213239Y-8612103D02*
X10222763Y-8650198D01*
X10222763Y-8650198D02*
X10222763Y-8678770D01*
X10222763Y-8678770D02*
X10213239Y-8716865D01*
X10213239Y-8716865D02*
X10203715Y-8735912D01*
X10203715Y-8735912D02*
X10184667Y-8754960D01*
X10184667Y-8754960D02*
X10156096Y-8764484D01*
X10156096Y-8764484D02*
X10108477Y-8764484D01*
X10308477Y-8764484D02*
X10308477Y-8631150D01*
X10308477Y-8669246D02*
X10318001Y-8650198D01*
X10318001Y-8650198D02*
X10327524Y-8640674D01*
X10327524Y-8640674D02*
X10346572Y-8631150D01*
X10346572Y-8631150D02*
X10365620Y-8631150D01*
X10432286Y-8764484D02*
X10432286Y-8631150D01*
X10432286Y-8564484D02*
X10422763Y-8574008D01*
X10422763Y-8574008D02*
X10432286Y-8583531D01*
X10432286Y-8583531D02*
X10441810Y-8574008D01*
X10441810Y-8574008D02*
X10432286Y-8564484D01*
X10432286Y-8564484D02*
X10432286Y-8583531D01*
X10556096Y-8764484D02*
X10537048Y-8754960D01*
X10537048Y-8754960D02*
X10527524Y-8735912D01*
X10527524Y-8735912D02*
X10527524Y-8564484D01*
X10660858Y-8764484D02*
X10641810Y-8754960D01*
X10641810Y-8754960D02*
X10632286Y-8735912D01*
X10632286Y-8735912D02*
X10632286Y-8564484D01*
X10889429Y-8764484D02*
X10889429Y-8564484D01*
X10889429Y-8564484D02*
X10956096Y-8707341D01*
X10956096Y-8707341D02*
X11022763Y-8564484D01*
X11022763Y-8564484D02*
X11022763Y-8764484D01*
X11203715Y-8764484D02*
X11203715Y-8659722D01*
X11203715Y-8659722D02*
X11194191Y-8640674D01*
X11194191Y-8640674D02*
X11175144Y-8631150D01*
X11175144Y-8631150D02*
X11137048Y-8631150D01*
X11137048Y-8631150D02*
X11118001Y-8640674D01*
X11203715Y-8754960D02*
X11184667Y-8764484D01*
X11184667Y-8764484D02*
X11137048Y-8764484D01*
X11137048Y-8764484D02*
X11118001Y-8754960D01*
X11118001Y-8754960D02*
X11108477Y-8735912D01*
X11108477Y-8735912D02*
X11108477Y-8716865D01*
X11108477Y-8716865D02*
X11118001Y-8697817D01*
X11118001Y-8697817D02*
X11137048Y-8688293D01*
X11137048Y-8688293D02*
X11184667Y-8688293D01*
X11184667Y-8688293D02*
X11203715Y-8678770D01*
X11298953Y-8631150D02*
X11298953Y-8831150D01*
X11298953Y-8640674D02*
X11318001Y-8631150D01*
X11318001Y-8631150D02*
X11356096Y-8631150D01*
X11356096Y-8631150D02*
X11375143Y-8640674D01*
X11375143Y-8640674D02*
X11384667Y-8650198D01*
X11384667Y-8650198D02*
X11394191Y-8669246D01*
X11394191Y-8669246D02*
X11394191Y-8726389D01*
X11394191Y-8726389D02*
X11384667Y-8745436D01*
X11384667Y-8745436D02*
X11375143Y-8754960D01*
X11375143Y-8754960D02*
X11356096Y-8764484D01*
X11356096Y-8764484D02*
X11318001Y-8764484D01*
X11318001Y-8764484D02*
X11298953Y-8754960D01*
X11479905Y-8745436D02*
X11489429Y-8754960D01*
X11489429Y-8754960D02*
X11479905Y-8764484D01*
X11479905Y-8764484D02*
X11470382Y-8754960D01*
X11470382Y-8754960D02*
X11479905Y-8745436D01*
X11479905Y-8745436D02*
X11479905Y-8764484D01*
X11479905Y-8640674D02*
X11489429Y-8650198D01*
X11489429Y-8650198D02*
X11479905Y-8659722D01*
X11479905Y-8659722D02*
X11470382Y-8650198D01*
X11470382Y-8650198D02*
X11479905Y-8640674D01*
X11479905Y-8640674D02*
X11479905Y-8659722D01*
M02*
