M48
; DRILL file {KiCad 8.0.9-8.0.9-0~ubuntu24.04.1} date 2025-04-27T15:56:48+0930
; FORMAT={-:-/ absolute / metric / decimal}
; #@! TF.CreationDate,2025-04-27T15:56:48+09:30
; #@! TF.GenerationSoftware,Kicad,Pcbnew,8.0.9-8.0.9-0~ubuntu24.04.1
; #@! TF.FileFunction,Plated,1,2,PTH
FMAT,2
METRIC
; #@! TA.AperFunction,Plated,PTH,ViaDrill
T1C0.400
; #@! TA.AperFunction,Plated,PTH,ComponentDrill
T2C1.000
%
G90
G05
T1
X112.522Y-75.184
X112.562Y-71.334
X113.561Y-71.375
X114.554Y-85.852
X115.625Y-76.2
X116.332Y-74.168
X117.471Y-71.3
X118.11Y-81.28
X119.126Y-76.287
X119.126Y-80.518
X119.253Y-72.0
T2
X101.6Y-70.358
X101.6Y-72.898
X101.6Y-75.438
X101.6Y-77.978
X101.6Y-80.518
X101.6Y-83.058
X104.14Y-70.358
X104.14Y-72.898
X104.14Y-75.438
X104.14Y-77.978
X104.14Y-80.518
X104.14Y-83.058
X107.95Y-70.358
X107.95Y-72.898
X107.95Y-75.438
X107.95Y-77.978
X107.95Y-80.518
X107.95Y-83.058
X110.49Y-70.358
X110.49Y-72.898
X110.49Y-75.438
X110.49Y-77.978
X110.49Y-80.518
X110.49Y-83.058
X115.57Y-69.85
X118.11Y-69.85
X121.92Y-72.39
X121.92Y-74.93
X121.92Y-77.47
X121.92Y-80.01
X121.92Y-82.55
X121.92Y-85.09
X125.73Y-72.39
X125.73Y-74.93
X125.73Y-77.47
X125.73Y-80.01
X125.73Y-82.55
X125.73Y-85.09
X128.27Y-72.39
X128.27Y-74.93
X128.27Y-77.47
X128.27Y-80.01
X128.27Y-82.55
X128.27Y-85.09
M30
