G04 #@! TF.GenerationSoftware,KiCad,Pcbnew,8.0.9-8.0.9-0~ubuntu24.04.1*
G04 #@! TF.CreationDate,2025-04-08T01:43:19+09:30*
G04 #@! TF.ProjectId,qspi-pmod-adapter,71737069-2d70-46d6-9f64-2d6164617074,rev?*
G04 #@! TF.SameCoordinates,Original*
G04 #@! TF.FileFunction,Copper,L2,Bot*
G04 #@! TF.FilePolarity,Positive*
%FSLAX46Y46*%
G04 Gerber Fmt 4.6, Leading zero omitted, Abs format (unit mm)*
G04 Created by KiCad (PCBNEW 8.0.9-8.0.9-0~ubuntu24.04.1) date 2025-04-08 01:43:19*
%MOMM*%
%LPD*%
G01*
G04 APERTURE LIST*
G04 #@! TA.AperFunction,ComponentPad*
%ADD10R,1.700000X1.700000*%
G04 #@! TD*
G04 #@! TA.AperFunction,ComponentPad*
%ADD11O,1.700000X1.700000*%
G04 #@! TD*
G04 #@! TA.AperFunction,ComponentPad*
%ADD12C,1.700000*%
G04 #@! TD*
G04 #@! TA.AperFunction,ViaPad*
%ADD13C,0.800000*%
G04 #@! TD*
G04 #@! TA.AperFunction,Conductor*
%ADD14C,0.350000*%
G04 #@! TD*
G04 APERTURE END LIST*
D10*
X109220000Y-69850000D03*
D11*
X109220000Y-72390000D03*
X109220000Y-74930000D03*
X109220000Y-77470000D03*
X109220000Y-80010000D03*
D12*
X109220000Y-82550000D03*
D11*
X111760000Y-69850000D03*
X111760000Y-72390000D03*
X111760000Y-74930000D03*
X111760000Y-77470000D03*
X111760000Y-80010000D03*
X111760000Y-82550000D03*
D10*
X125730000Y-69850000D03*
D11*
X125730000Y-72390000D03*
X125730000Y-74930000D03*
X125730000Y-77470000D03*
X125730000Y-80010000D03*
D12*
X125730000Y-82550000D03*
D11*
X128270000Y-69850000D03*
X128270000Y-72390000D03*
X128270000Y-74930000D03*
X128270000Y-77470000D03*
X128270000Y-80010000D03*
X128270000Y-82550000D03*
D10*
X104140000Y-69850000D03*
D11*
X104140000Y-72390000D03*
X104140000Y-74930000D03*
X104140000Y-77470000D03*
X104140000Y-80010000D03*
D12*
X104140000Y-82550000D03*
D11*
X101600000Y-69850000D03*
X101600000Y-72390000D03*
X101600000Y-74930000D03*
X101600000Y-77470000D03*
X101600000Y-80010000D03*
X101600000Y-82550000D03*
D13*
X113665000Y-82550000D03*
X116840000Y-74155000D03*
X119380000Y-77470000D03*
X114935000Y-76835000D03*
X115820000Y-70100000D03*
X120650000Y-77470000D03*
X121920000Y-71120000D03*
X119149492Y-74699492D03*
D14*
X113665000Y-82550000D02*
X116840000Y-79375000D01*
X116840000Y-79375000D02*
X116840000Y-74155000D01*
X121920000Y-74930000D02*
X119380000Y-77470000D01*
X125730000Y-74930000D02*
X121920000Y-74930000D01*
X115820000Y-70235000D02*
X115820000Y-70100000D01*
X114935000Y-76835000D02*
X114935000Y-71120000D01*
X114935000Y-71120000D02*
X115820000Y-70235000D01*
X126955000Y-75437412D02*
X126192412Y-76200000D01*
X121920000Y-76200000D02*
X120650000Y-77470000D01*
X128270000Y-69850000D02*
X126955000Y-71165000D01*
X126192412Y-76200000D02*
X121920000Y-76200000D01*
X126955000Y-71165000D02*
X126955000Y-75437412D01*
X119206016Y-74699492D02*
X120015000Y-73890508D01*
X120015000Y-73025000D02*
X121920000Y-71120000D01*
X119149492Y-74699492D02*
X119206016Y-74699492D01*
X120015000Y-73890508D02*
X120015000Y-73025000D01*
G04 #@! TA.AperFunction,Conductor*
G36*
X103674075Y-79817007D02*
G01*
X103640000Y-79944174D01*
X103640000Y-80075826D01*
X103674075Y-80202993D01*
X103706988Y-80260000D01*
X102033012Y-80260000D01*
X102065925Y-80202993D01*
X102100000Y-80075826D01*
X102100000Y-79944174D01*
X102065925Y-79817007D01*
X102033012Y-79760000D01*
X103706988Y-79760000D01*
X103674075Y-79817007D01*
G37*
G04 #@! TD.AperFunction*
G04 #@! TA.AperFunction,Conductor*
G36*
X111294075Y-79817007D02*
G01*
X111260000Y-79944174D01*
X111260000Y-80075826D01*
X111294075Y-80202993D01*
X111326988Y-80260000D01*
X109653012Y-80260000D01*
X109685925Y-80202993D01*
X109720000Y-80075826D01*
X109720000Y-79944174D01*
X109685925Y-79817007D01*
X109653012Y-79760000D01*
X111326988Y-79760000D01*
X111294075Y-79817007D01*
G37*
G04 #@! TD.AperFunction*
G04 #@! TA.AperFunction,Conductor*
G36*
X127804075Y-79817007D02*
G01*
X127770000Y-79944174D01*
X127770000Y-80075826D01*
X127804075Y-80202993D01*
X127836988Y-80260000D01*
X126163012Y-80260000D01*
X126195925Y-80202993D01*
X126230000Y-80075826D01*
X126230000Y-79944174D01*
X126195925Y-79817007D01*
X126163012Y-79760000D01*
X127836988Y-79760000D01*
X127804075Y-79817007D01*
G37*
G04 #@! TD.AperFunction*
G04 #@! TA.AperFunction,Conductor*
G36*
X131214539Y-68265185D02*
G01*
X131260294Y-68317989D01*
X131271500Y-68369500D01*
X131271500Y-84030500D01*
X131251815Y-84097539D01*
X131199011Y-84143294D01*
X131147500Y-84154500D01*
X98976500Y-84154500D01*
X98909461Y-84134815D01*
X98863706Y-84082011D01*
X98852500Y-84030500D01*
X98852500Y-69849999D01*
X100244341Y-69849999D01*
X100244341Y-69850000D01*
X100264936Y-70085403D01*
X100264938Y-70085413D01*
X100326094Y-70313655D01*
X100326096Y-70313659D01*
X100326097Y-70313663D01*
X100398195Y-70468277D01*
X100425965Y-70527830D01*
X100425967Y-70527834D01*
X100561501Y-70721395D01*
X100561506Y-70721402D01*
X100728597Y-70888493D01*
X100728603Y-70888498D01*
X100914158Y-71018425D01*
X100957783Y-71073002D01*
X100964977Y-71142500D01*
X100933454Y-71204855D01*
X100914158Y-71221575D01*
X100728597Y-71351505D01*
X100561505Y-71518597D01*
X100425965Y-71712169D01*
X100425964Y-71712171D01*
X100326098Y-71926335D01*
X100326094Y-71926344D01*
X100264938Y-72154586D01*
X100264936Y-72154596D01*
X100244341Y-72389999D01*
X100244341Y-72390000D01*
X100264936Y-72625403D01*
X100264938Y-72625413D01*
X100326094Y-72853655D01*
X100326096Y-72853659D01*
X100326097Y-72853663D01*
X100330000Y-72862032D01*
X100425965Y-73067830D01*
X100425967Y-73067834D01*
X100534281Y-73222521D01*
X100561501Y-73261396D01*
X100561506Y-73261402D01*
X100728597Y-73428493D01*
X100728603Y-73428498D01*
X100914158Y-73558425D01*
X100957783Y-73613002D01*
X100964977Y-73682500D01*
X100933454Y-73744855D01*
X100914158Y-73761575D01*
X100728597Y-73891505D01*
X100561505Y-74058597D01*
X100425965Y-74252169D01*
X100425964Y-74252171D01*
X100326098Y-74466335D01*
X100326094Y-74466344D01*
X100264938Y-74694586D01*
X100264936Y-74694596D01*
X100244341Y-74929999D01*
X100244341Y-74930000D01*
X100264936Y-75165403D01*
X100264938Y-75165413D01*
X100326094Y-75393655D01*
X100326096Y-75393659D01*
X100326097Y-75393663D01*
X100403957Y-75560634D01*
X100425965Y-75607830D01*
X100425967Y-75607834D01*
X100534281Y-75762521D01*
X100561501Y-75801396D01*
X100561506Y-75801402D01*
X100728597Y-75968493D01*
X100728603Y-75968498D01*
X100914158Y-76098425D01*
X100957783Y-76153002D01*
X100964977Y-76222500D01*
X100933454Y-76284855D01*
X100914158Y-76301575D01*
X100728597Y-76431505D01*
X100561505Y-76598597D01*
X100425965Y-76792169D01*
X100425964Y-76792171D01*
X100326098Y-77006335D01*
X100326094Y-77006344D01*
X100264938Y-77234586D01*
X100264936Y-77234596D01*
X100244341Y-77469999D01*
X100244341Y-77470000D01*
X100264936Y-77705403D01*
X100264938Y-77705413D01*
X100326094Y-77933655D01*
X100326096Y-77933659D01*
X100326097Y-77933663D01*
X100330000Y-77942032D01*
X100425965Y-78147830D01*
X100425967Y-78147834D01*
X100500412Y-78254151D01*
X100561501Y-78341396D01*
X100561506Y-78341402D01*
X100728597Y-78508493D01*
X100728603Y-78508498D01*
X100914594Y-78638730D01*
X100958219Y-78693307D01*
X100965413Y-78762805D01*
X100933890Y-78825160D01*
X100914595Y-78841880D01*
X100728922Y-78971890D01*
X100728920Y-78971891D01*
X100561891Y-79138920D01*
X100561886Y-79138926D01*
X100426400Y-79332420D01*
X100426399Y-79332422D01*
X100326570Y-79546507D01*
X100326567Y-79546513D01*
X100269364Y-79759999D01*
X100269364Y-79760000D01*
X101166988Y-79760000D01*
X101134075Y-79817007D01*
X101100000Y-79944174D01*
X101100000Y-80075826D01*
X101134075Y-80202993D01*
X101166988Y-80260000D01*
X100269364Y-80260000D01*
X100326567Y-80473486D01*
X100326570Y-80473492D01*
X100426399Y-80687578D01*
X100561894Y-80881082D01*
X100728917Y-81048105D01*
X100914595Y-81178119D01*
X100958219Y-81232696D01*
X100965412Y-81302195D01*
X100933890Y-81364549D01*
X100914595Y-81381269D01*
X100728594Y-81511508D01*
X100561505Y-81678597D01*
X100425965Y-81872169D01*
X100425964Y-81872171D01*
X100326098Y-82086335D01*
X100326094Y-82086344D01*
X100264938Y-82314586D01*
X100264936Y-82314596D01*
X100244341Y-82549999D01*
X100244341Y-82550000D01*
X100264936Y-82785403D01*
X100264938Y-82785413D01*
X100326094Y-83013655D01*
X100326096Y-83013659D01*
X100326097Y-83013663D01*
X100330000Y-83022032D01*
X100425965Y-83227830D01*
X100425967Y-83227834D01*
X100500412Y-83334151D01*
X100561505Y-83421401D01*
X100728599Y-83588495D01*
X100825384Y-83656265D01*
X100922165Y-83724032D01*
X100922167Y-83724033D01*
X100922170Y-83724035D01*
X101136337Y-83823903D01*
X101364592Y-83885063D01*
X101552918Y-83901539D01*
X101599999Y-83905659D01*
X101600000Y-83905659D01*
X101600001Y-83905659D01*
X101639234Y-83902226D01*
X101835408Y-83885063D01*
X102063663Y-83823903D01*
X102277830Y-83724035D01*
X102471401Y-83588495D01*
X102638495Y-83421401D01*
X102768425Y-83235842D01*
X102823002Y-83192217D01*
X102892500Y-83185023D01*
X102954855Y-83216546D01*
X102971575Y-83235842D01*
X103101500Y-83421395D01*
X103101505Y-83421401D01*
X103268599Y-83588495D01*
X103365384Y-83656265D01*
X103462165Y-83724032D01*
X103462167Y-83724033D01*
X103462170Y-83724035D01*
X103676337Y-83823903D01*
X103904592Y-83885063D01*
X104092918Y-83901539D01*
X104139999Y-83905659D01*
X104140000Y-83905659D01*
X104140001Y-83905659D01*
X104179234Y-83902226D01*
X104375408Y-83885063D01*
X104603663Y-83823903D01*
X104817830Y-83724035D01*
X105011401Y-83588495D01*
X105178495Y-83421401D01*
X105314035Y-83227830D01*
X105413903Y-83013663D01*
X105475063Y-82785408D01*
X105495659Y-82550000D01*
X105475063Y-82314592D01*
X105413903Y-82086337D01*
X105314035Y-81872171D01*
X105311935Y-81869171D01*
X105178494Y-81678597D01*
X105011402Y-81511506D01*
X105011401Y-81511505D01*
X104825405Y-81381269D01*
X104781781Y-81326692D01*
X104774588Y-81257193D01*
X104806110Y-81194839D01*
X104825405Y-81178119D01*
X105011082Y-81048105D01*
X105178105Y-80881082D01*
X105313600Y-80687578D01*
X105413429Y-80473492D01*
X105413432Y-80473486D01*
X105470636Y-80260000D01*
X104573012Y-80260000D01*
X104605925Y-80202993D01*
X104640000Y-80075826D01*
X104640000Y-79944174D01*
X104605925Y-79817007D01*
X104573012Y-79760000D01*
X105470636Y-79760000D01*
X105470635Y-79759999D01*
X105413432Y-79546513D01*
X105413429Y-79546507D01*
X105313600Y-79332422D01*
X105313599Y-79332420D01*
X105178113Y-79138926D01*
X105178108Y-79138920D01*
X105011078Y-78971890D01*
X104825405Y-78841879D01*
X104781780Y-78787302D01*
X104774588Y-78717804D01*
X104806110Y-78655449D01*
X104825406Y-78638730D01*
X105011401Y-78508495D01*
X105178495Y-78341401D01*
X105314035Y-78147830D01*
X105413903Y-77933663D01*
X105475063Y-77705408D01*
X105495659Y-77470000D01*
X105475063Y-77234592D01*
X105418436Y-77023256D01*
X105413905Y-77006344D01*
X105413904Y-77006343D01*
X105413903Y-77006337D01*
X105314035Y-76792171D01*
X105308425Y-76784158D01*
X105178494Y-76598597D01*
X105011402Y-76431506D01*
X105011396Y-76431501D01*
X104825842Y-76301575D01*
X104782217Y-76246998D01*
X104775023Y-76177500D01*
X104806546Y-76115145D01*
X104825842Y-76098425D01*
X104958431Y-76005585D01*
X105011401Y-75968495D01*
X105178495Y-75801401D01*
X105314035Y-75607830D01*
X105413903Y-75393663D01*
X105475063Y-75165408D01*
X105495659Y-74930000D01*
X105475063Y-74694592D01*
X105413903Y-74466337D01*
X105314035Y-74252171D01*
X105309188Y-74245248D01*
X105178494Y-74058597D01*
X105011402Y-73891506D01*
X105011396Y-73891501D01*
X104825842Y-73761575D01*
X104782217Y-73706998D01*
X104775023Y-73637500D01*
X104806546Y-73575145D01*
X104825842Y-73558425D01*
X104934829Y-73482111D01*
X105011401Y-73428495D01*
X105178495Y-73261401D01*
X105314035Y-73067830D01*
X105413903Y-72853663D01*
X105475063Y-72625408D01*
X105495659Y-72390000D01*
X105495659Y-72389999D01*
X107864341Y-72389999D01*
X107864341Y-72390000D01*
X107884936Y-72625403D01*
X107884938Y-72625413D01*
X107946094Y-72853655D01*
X107946096Y-72853659D01*
X107946097Y-72853663D01*
X107950000Y-72862032D01*
X108045965Y-73067830D01*
X108045967Y-73067834D01*
X108154281Y-73222521D01*
X108181501Y-73261396D01*
X108181506Y-73261402D01*
X108348597Y-73428493D01*
X108348603Y-73428498D01*
X108534158Y-73558425D01*
X108577783Y-73613002D01*
X108584977Y-73682500D01*
X108553454Y-73744855D01*
X108534158Y-73761575D01*
X108348597Y-73891505D01*
X108181505Y-74058597D01*
X108045965Y-74252169D01*
X108045964Y-74252171D01*
X107946098Y-74466335D01*
X107946094Y-74466344D01*
X107884938Y-74694586D01*
X107884936Y-74694596D01*
X107864341Y-74929999D01*
X107864341Y-74930000D01*
X107884936Y-75165403D01*
X107884938Y-75165413D01*
X107946094Y-75393655D01*
X107946096Y-75393659D01*
X107946097Y-75393663D01*
X108023957Y-75560634D01*
X108045965Y-75607830D01*
X108045967Y-75607834D01*
X108154281Y-75762521D01*
X108181501Y-75801396D01*
X108181506Y-75801402D01*
X108348597Y-75968493D01*
X108348603Y-75968498D01*
X108534158Y-76098425D01*
X108577783Y-76153002D01*
X108584977Y-76222500D01*
X108553454Y-76284855D01*
X108534158Y-76301575D01*
X108348597Y-76431505D01*
X108181505Y-76598597D01*
X108045965Y-76792169D01*
X108045964Y-76792171D01*
X107946098Y-77006335D01*
X107946094Y-77006344D01*
X107884938Y-77234586D01*
X107884936Y-77234596D01*
X107864341Y-77469999D01*
X107864341Y-77470000D01*
X107884936Y-77705403D01*
X107884938Y-77705413D01*
X107946094Y-77933655D01*
X107946096Y-77933659D01*
X107946097Y-77933663D01*
X107950000Y-77942032D01*
X108045965Y-78147830D01*
X108045967Y-78147834D01*
X108120412Y-78254151D01*
X108181501Y-78341396D01*
X108181506Y-78341402D01*
X108348597Y-78508493D01*
X108348603Y-78508498D01*
X108534594Y-78638730D01*
X108578219Y-78693307D01*
X108585413Y-78762805D01*
X108553890Y-78825160D01*
X108534595Y-78841880D01*
X108348922Y-78971890D01*
X108348920Y-78971891D01*
X108181891Y-79138920D01*
X108181886Y-79138926D01*
X108046400Y-79332420D01*
X108046399Y-79332422D01*
X107946570Y-79546507D01*
X107946567Y-79546513D01*
X107889364Y-79759999D01*
X107889364Y-79760000D01*
X108786988Y-79760000D01*
X108754075Y-79817007D01*
X108720000Y-79944174D01*
X108720000Y-80075826D01*
X108754075Y-80202993D01*
X108786988Y-80260000D01*
X107889364Y-80260000D01*
X107946567Y-80473486D01*
X107946570Y-80473492D01*
X108046399Y-80687578D01*
X108181894Y-80881082D01*
X108348917Y-81048105D01*
X108534595Y-81178119D01*
X108578219Y-81232696D01*
X108585412Y-81302195D01*
X108553890Y-81364549D01*
X108534595Y-81381269D01*
X108348594Y-81511508D01*
X108181505Y-81678597D01*
X108045965Y-81872169D01*
X108045964Y-81872171D01*
X107946098Y-82086335D01*
X107946094Y-82086344D01*
X107884938Y-82314586D01*
X107884936Y-82314596D01*
X107864341Y-82549999D01*
X107864341Y-82550000D01*
X107884936Y-82785403D01*
X107884938Y-82785413D01*
X107946094Y-83013655D01*
X107946096Y-83013659D01*
X107946097Y-83013663D01*
X107950000Y-83022032D01*
X108045965Y-83227830D01*
X108045967Y-83227834D01*
X108120412Y-83334151D01*
X108181505Y-83421401D01*
X108348599Y-83588495D01*
X108445384Y-83656265D01*
X108542165Y-83724032D01*
X108542167Y-83724033D01*
X108542170Y-83724035D01*
X108756337Y-83823903D01*
X108984592Y-83885063D01*
X109172918Y-83901539D01*
X109219999Y-83905659D01*
X109220000Y-83905659D01*
X109220001Y-83905659D01*
X109259234Y-83902226D01*
X109455408Y-83885063D01*
X109683663Y-83823903D01*
X109897830Y-83724035D01*
X110091401Y-83588495D01*
X110258495Y-83421401D01*
X110388425Y-83235842D01*
X110443002Y-83192217D01*
X110512500Y-83185023D01*
X110574855Y-83216546D01*
X110591575Y-83235842D01*
X110721500Y-83421395D01*
X110721505Y-83421401D01*
X110888599Y-83588495D01*
X110985384Y-83656265D01*
X111082165Y-83724032D01*
X111082167Y-83724033D01*
X111082170Y-83724035D01*
X111296337Y-83823903D01*
X111524592Y-83885063D01*
X111712918Y-83901539D01*
X111759999Y-83905659D01*
X111760000Y-83905659D01*
X111760001Y-83905659D01*
X111799234Y-83902226D01*
X111995408Y-83885063D01*
X112223663Y-83823903D01*
X112437830Y-83724035D01*
X112631401Y-83588495D01*
X112798495Y-83421401D01*
X112906134Y-83267675D01*
X112960708Y-83224053D01*
X113030207Y-83216859D01*
X113080592Y-83238483D01*
X113212265Y-83334148D01*
X113212270Y-83334151D01*
X113385192Y-83411142D01*
X113385197Y-83411144D01*
X113570354Y-83450500D01*
X113570355Y-83450500D01*
X113759644Y-83450500D01*
X113759646Y-83450500D01*
X113944803Y-83411144D01*
X114117730Y-83334151D01*
X114270871Y-83222888D01*
X114397533Y-83082216D01*
X114492179Y-82918284D01*
X114550674Y-82738256D01*
X114560016Y-82649362D01*
X114586599Y-82584749D01*
X114595647Y-82574652D01*
X117364695Y-79805606D01*
X117438620Y-79694969D01*
X117489540Y-79572036D01*
X117515500Y-79441531D01*
X117515500Y-79308469D01*
X117515500Y-77470000D01*
X118474540Y-77470000D01*
X118494326Y-77658256D01*
X118494327Y-77658259D01*
X118552818Y-77838277D01*
X118552821Y-77838284D01*
X118647467Y-78002216D01*
X118740035Y-78105023D01*
X118774129Y-78142888D01*
X118927265Y-78254148D01*
X118927270Y-78254151D01*
X119100192Y-78331142D01*
X119100197Y-78331144D01*
X119285354Y-78370500D01*
X119285355Y-78370500D01*
X119474644Y-78370500D01*
X119474646Y-78370500D01*
X119659803Y-78331144D01*
X119832730Y-78254151D01*
X119942117Y-78174676D01*
X120007920Y-78151198D01*
X120075974Y-78167023D01*
X120087871Y-78174668D01*
X120197266Y-78254148D01*
X120197270Y-78254151D01*
X120370192Y-78331142D01*
X120370197Y-78331144D01*
X120555354Y-78370500D01*
X120555355Y-78370500D01*
X120744644Y-78370500D01*
X120744646Y-78370500D01*
X120929803Y-78331144D01*
X121102730Y-78254151D01*
X121255871Y-78142888D01*
X121382533Y-78002216D01*
X121477179Y-77838284D01*
X121535674Y-77658256D01*
X121545016Y-77569362D01*
X121571599Y-77504749D01*
X121580646Y-77494653D01*
X122163482Y-76911819D01*
X122224805Y-76878334D01*
X122251163Y-76875500D01*
X124329554Y-76875500D01*
X124396593Y-76895185D01*
X124442348Y-76947989D01*
X124452292Y-77017147D01*
X124449329Y-77031593D01*
X124394938Y-77234586D01*
X124394936Y-77234596D01*
X124374341Y-77469999D01*
X124374341Y-77470000D01*
X124394936Y-77705403D01*
X124394938Y-77705413D01*
X124456094Y-77933655D01*
X124456096Y-77933659D01*
X124456097Y-77933663D01*
X124460000Y-77942032D01*
X124555965Y-78147830D01*
X124555967Y-78147834D01*
X124630412Y-78254151D01*
X124691501Y-78341396D01*
X124691506Y-78341402D01*
X124858597Y-78508493D01*
X124858603Y-78508498D01*
X125044594Y-78638730D01*
X125088219Y-78693307D01*
X125095413Y-78762805D01*
X125063890Y-78825160D01*
X125044595Y-78841880D01*
X124858922Y-78971890D01*
X124858920Y-78971891D01*
X124691891Y-79138920D01*
X124691886Y-79138926D01*
X124556400Y-79332420D01*
X124556399Y-79332422D01*
X124456570Y-79546507D01*
X124456567Y-79546513D01*
X124399364Y-79759999D01*
X124399364Y-79760000D01*
X125296988Y-79760000D01*
X125264075Y-79817007D01*
X125230000Y-79944174D01*
X125230000Y-80075826D01*
X125264075Y-80202993D01*
X125296988Y-80260000D01*
X124399364Y-80260000D01*
X124456567Y-80473486D01*
X124456570Y-80473492D01*
X124556399Y-80687578D01*
X124691894Y-80881082D01*
X124858917Y-81048105D01*
X125044595Y-81178119D01*
X125088219Y-81232696D01*
X125095412Y-81302195D01*
X125063890Y-81364549D01*
X125044595Y-81381269D01*
X124858594Y-81511508D01*
X124691505Y-81678597D01*
X124555965Y-81872169D01*
X124555964Y-81872171D01*
X124456098Y-82086335D01*
X124456094Y-82086344D01*
X124394938Y-82314586D01*
X124394936Y-82314596D01*
X124374341Y-82549999D01*
X124374341Y-82550000D01*
X124394936Y-82785403D01*
X124394938Y-82785413D01*
X124456094Y-83013655D01*
X124456096Y-83013659D01*
X124456097Y-83013663D01*
X124460000Y-83022032D01*
X124555965Y-83227830D01*
X124555967Y-83227834D01*
X124630412Y-83334151D01*
X124691505Y-83421401D01*
X124858599Y-83588495D01*
X124955384Y-83656265D01*
X125052165Y-83724032D01*
X125052167Y-83724033D01*
X125052170Y-83724035D01*
X125266337Y-83823903D01*
X125494592Y-83885063D01*
X125682918Y-83901539D01*
X125729999Y-83905659D01*
X125730000Y-83905659D01*
X125730001Y-83905659D01*
X125769234Y-83902226D01*
X125965408Y-83885063D01*
X126193663Y-83823903D01*
X126407830Y-83724035D01*
X126601401Y-83588495D01*
X126768495Y-83421401D01*
X126898425Y-83235842D01*
X126953002Y-83192217D01*
X127022500Y-83185023D01*
X127084855Y-83216546D01*
X127101575Y-83235842D01*
X127231500Y-83421395D01*
X127231505Y-83421401D01*
X127398599Y-83588495D01*
X127495384Y-83656265D01*
X127592165Y-83724032D01*
X127592167Y-83724033D01*
X127592170Y-83724035D01*
X127806337Y-83823903D01*
X128034592Y-83885063D01*
X128222918Y-83901539D01*
X128269999Y-83905659D01*
X128270000Y-83905659D01*
X128270001Y-83905659D01*
X128309234Y-83902226D01*
X128505408Y-83885063D01*
X128733663Y-83823903D01*
X128947830Y-83724035D01*
X129141401Y-83588495D01*
X129308495Y-83421401D01*
X129444035Y-83227830D01*
X129543903Y-83013663D01*
X129605063Y-82785408D01*
X129625659Y-82550000D01*
X129605063Y-82314592D01*
X129543903Y-82086337D01*
X129444035Y-81872171D01*
X129441935Y-81869171D01*
X129308494Y-81678597D01*
X129141402Y-81511506D01*
X129141401Y-81511505D01*
X128955405Y-81381269D01*
X128911781Y-81326692D01*
X128904588Y-81257193D01*
X128936110Y-81194839D01*
X128955405Y-81178119D01*
X129141082Y-81048105D01*
X129308105Y-80881082D01*
X129443600Y-80687578D01*
X129543429Y-80473492D01*
X129543432Y-80473486D01*
X129600636Y-80260000D01*
X128703012Y-80260000D01*
X128735925Y-80202993D01*
X128770000Y-80075826D01*
X128770000Y-79944174D01*
X128735925Y-79817007D01*
X128703012Y-79760000D01*
X129600636Y-79760000D01*
X129600635Y-79759999D01*
X129543432Y-79546513D01*
X129543429Y-79546507D01*
X129443600Y-79332422D01*
X129443599Y-79332420D01*
X129308113Y-79138926D01*
X129308108Y-79138920D01*
X129141078Y-78971890D01*
X128955405Y-78841879D01*
X128911780Y-78787302D01*
X128904588Y-78717804D01*
X128936110Y-78655449D01*
X128955406Y-78638730D01*
X129141401Y-78508495D01*
X129308495Y-78341401D01*
X129444035Y-78147830D01*
X129543903Y-77933663D01*
X129605063Y-77705408D01*
X129625659Y-77470000D01*
X129605063Y-77234592D01*
X129548436Y-77023256D01*
X129543905Y-77006344D01*
X129543904Y-77006343D01*
X129543903Y-77006337D01*
X129444035Y-76792171D01*
X129438425Y-76784158D01*
X129308494Y-76598597D01*
X129141402Y-76431506D01*
X129141396Y-76431501D01*
X128955842Y-76301575D01*
X128912217Y-76246998D01*
X128905023Y-76177500D01*
X128936546Y-76115145D01*
X128955842Y-76098425D01*
X129088431Y-76005585D01*
X129141401Y-75968495D01*
X129308495Y-75801401D01*
X129444035Y-75607830D01*
X129543903Y-75393663D01*
X129605063Y-75165408D01*
X129625659Y-74930000D01*
X129605063Y-74694592D01*
X129543903Y-74466337D01*
X129444035Y-74252171D01*
X129439188Y-74245248D01*
X129308494Y-74058597D01*
X129141402Y-73891506D01*
X129141396Y-73891501D01*
X128955842Y-73761575D01*
X128912217Y-73706998D01*
X128905023Y-73637500D01*
X128936546Y-73575145D01*
X128955842Y-73558425D01*
X129064829Y-73482111D01*
X129141401Y-73428495D01*
X129308495Y-73261401D01*
X129444035Y-73067830D01*
X129543903Y-72853663D01*
X129605063Y-72625408D01*
X129625659Y-72390000D01*
X129605063Y-72154592D01*
X129543903Y-71926337D01*
X129444035Y-71712171D01*
X129438425Y-71704158D01*
X129308494Y-71518597D01*
X129141402Y-71351506D01*
X129141396Y-71351501D01*
X128955842Y-71221575D01*
X128912217Y-71166998D01*
X128905023Y-71097500D01*
X128936546Y-71035145D01*
X128955842Y-71018425D01*
X129028853Y-70967302D01*
X129141401Y-70888495D01*
X129308495Y-70721401D01*
X129444035Y-70527830D01*
X129543903Y-70313663D01*
X129605063Y-70085408D01*
X129625659Y-69850000D01*
X129605063Y-69614592D01*
X129558626Y-69441285D01*
X129543905Y-69386344D01*
X129543904Y-69386343D01*
X129543903Y-69386337D01*
X129444035Y-69172171D01*
X129308495Y-68978599D01*
X129308494Y-68978597D01*
X129141402Y-68811506D01*
X129141395Y-68811501D01*
X128947834Y-68675967D01*
X128947830Y-68675965D01*
X128947828Y-68675964D01*
X128733663Y-68576097D01*
X128733659Y-68576096D01*
X128733655Y-68576094D01*
X128505413Y-68514938D01*
X128505403Y-68514936D01*
X128270001Y-68494341D01*
X128269999Y-68494341D01*
X128034596Y-68514936D01*
X128034586Y-68514938D01*
X127806344Y-68576094D01*
X127806335Y-68576098D01*
X127592171Y-68675964D01*
X127592169Y-68675965D01*
X127398600Y-68811503D01*
X127276673Y-68933430D01*
X127215350Y-68966914D01*
X127145658Y-68961930D01*
X127089725Y-68920058D01*
X127072810Y-68889081D01*
X127023797Y-68757671D01*
X127023793Y-68757664D01*
X126937547Y-68642455D01*
X126937544Y-68642452D01*
X126822335Y-68556206D01*
X126822328Y-68556202D01*
X126687482Y-68505908D01*
X126687483Y-68505908D01*
X126627883Y-68499501D01*
X126627881Y-68499500D01*
X126627873Y-68499500D01*
X126627864Y-68499500D01*
X124832129Y-68499500D01*
X124832123Y-68499501D01*
X124772516Y-68505908D01*
X124637671Y-68556202D01*
X124637664Y-68556206D01*
X124522455Y-68642452D01*
X124522452Y-68642455D01*
X124436206Y-68757664D01*
X124436202Y-68757671D01*
X124385908Y-68892517D01*
X124379501Y-68952116D01*
X124379501Y-68952123D01*
X124379500Y-68952135D01*
X124379500Y-70747870D01*
X124379501Y-70747876D01*
X124385908Y-70807483D01*
X124436202Y-70942328D01*
X124436206Y-70942335D01*
X124522452Y-71057544D01*
X124522455Y-71057547D01*
X124637664Y-71143793D01*
X124637671Y-71143797D01*
X124769081Y-71192810D01*
X124825015Y-71234681D01*
X124849432Y-71300145D01*
X124834580Y-71368418D01*
X124813430Y-71396673D01*
X124691503Y-71518600D01*
X124555965Y-71712169D01*
X124555964Y-71712171D01*
X124456098Y-71926335D01*
X124456094Y-71926344D01*
X124394938Y-72154586D01*
X124394936Y-72154596D01*
X124374341Y-72389999D01*
X124374341Y-72390000D01*
X124394936Y-72625403D01*
X124394938Y-72625413D01*
X124456094Y-72853655D01*
X124456096Y-72853659D01*
X124456097Y-72853663D01*
X124460000Y-72862032D01*
X124555965Y-73067830D01*
X124555967Y-73067834D01*
X124664281Y-73222521D01*
X124691501Y-73261396D01*
X124691506Y-73261402D01*
X124858597Y-73428493D01*
X124858603Y-73428498D01*
X125044158Y-73558425D01*
X125087783Y-73613002D01*
X125094977Y-73682500D01*
X125063454Y-73744855D01*
X125044158Y-73761575D01*
X124858597Y-73891505D01*
X124691506Y-74058596D01*
X124591359Y-74201623D01*
X124536782Y-74245248D01*
X124489784Y-74254500D01*
X121853467Y-74254500D01*
X121722969Y-74280458D01*
X121722959Y-74280461D01*
X121600030Y-74331380D01*
X121600027Y-74331381D01*
X121527981Y-74379522D01*
X121489391Y-74405306D01*
X121489388Y-74405309D01*
X119360928Y-76533770D01*
X119299605Y-76567255D01*
X119286224Y-76569408D01*
X119285359Y-76569498D01*
X119100197Y-76608855D01*
X119100192Y-76608857D01*
X118927270Y-76685848D01*
X118927265Y-76685851D01*
X118774129Y-76797111D01*
X118647466Y-76937785D01*
X118552821Y-77101715D01*
X118552818Y-77101722D01*
X118509645Y-77234596D01*
X118494326Y-77281744D01*
X118474540Y-77470000D01*
X117515500Y-77470000D01*
X117515500Y-74798156D01*
X117535185Y-74731117D01*
X117547351Y-74715183D01*
X117561479Y-74699492D01*
X118244032Y-74699492D01*
X118263818Y-74887748D01*
X118263819Y-74887751D01*
X118322310Y-75067769D01*
X118322313Y-75067776D01*
X118416959Y-75231708D01*
X118543621Y-75372380D01*
X118696757Y-75483640D01*
X118696762Y-75483643D01*
X118869684Y-75560634D01*
X118869689Y-75560636D01*
X119054846Y-75599992D01*
X119054847Y-75599992D01*
X119244136Y-75599992D01*
X119244138Y-75599992D01*
X119429295Y-75560636D01*
X119602222Y-75483643D01*
X119755363Y-75372380D01*
X119882025Y-75231708D01*
X119976671Y-75067776D01*
X120035166Y-74887748D01*
X120037869Y-74862021D01*
X120064450Y-74797407D01*
X120073491Y-74787316D01*
X120539695Y-74321114D01*
X120613620Y-74210477D01*
X120664540Y-74087544D01*
X120676662Y-74026603D01*
X120690500Y-73957041D01*
X120690500Y-73356163D01*
X120710185Y-73289124D01*
X120726819Y-73268482D01*
X121290277Y-72705024D01*
X121939073Y-72056227D01*
X122000394Y-72022744D01*
X122013793Y-72020589D01*
X122014631Y-72020500D01*
X122014646Y-72020500D01*
X122199803Y-71981144D01*
X122372730Y-71904151D01*
X122525871Y-71792888D01*
X122652533Y-71652216D01*
X122747179Y-71488284D01*
X122805674Y-71308256D01*
X122825460Y-71120000D01*
X122805674Y-70931744D01*
X122747179Y-70751716D01*
X122652533Y-70587784D01*
X122525871Y-70447112D01*
X122525870Y-70447111D01*
X122372734Y-70335851D01*
X122372729Y-70335848D01*
X122199807Y-70258857D01*
X122199802Y-70258855D01*
X122054001Y-70227865D01*
X122014646Y-70219500D01*
X121825354Y-70219500D01*
X121792897Y-70226398D01*
X121640197Y-70258855D01*
X121640192Y-70258857D01*
X121467270Y-70335848D01*
X121467265Y-70335851D01*
X121314129Y-70447111D01*
X121187466Y-70587785D01*
X121092821Y-70751715D01*
X121092818Y-70751722D01*
X121034327Y-70931739D01*
X121034327Y-70931740D01*
X121034326Y-70931744D01*
X121033213Y-70942335D01*
X121024983Y-71020636D01*
X120998398Y-71085250D01*
X120989343Y-71095354D01*
X119490307Y-72594390D01*
X119490304Y-72594394D01*
X119416383Y-72705024D01*
X119416378Y-72705034D01*
X119365459Y-72827963D01*
X119365457Y-72827971D01*
X119339500Y-72958464D01*
X119339500Y-73559345D01*
X119319815Y-73626384D01*
X119303181Y-73647026D01*
X119187534Y-73762673D01*
X119126211Y-73796158D01*
X119099853Y-73798992D01*
X119054846Y-73798992D01*
X119022389Y-73805890D01*
X118869689Y-73838347D01*
X118869684Y-73838349D01*
X118696762Y-73915340D01*
X118696757Y-73915343D01*
X118543621Y-74026603D01*
X118416958Y-74167277D01*
X118322313Y-74331207D01*
X118322310Y-74331214D01*
X118278404Y-74466344D01*
X118263818Y-74511236D01*
X118244032Y-74699492D01*
X117561479Y-74699492D01*
X117572533Y-74687216D01*
X117667179Y-74523284D01*
X117725674Y-74343256D01*
X117745460Y-74155000D01*
X117725674Y-73966744D01*
X117667179Y-73786716D01*
X117572533Y-73622784D01*
X117445871Y-73482112D01*
X117445870Y-73482111D01*
X117292734Y-73370851D01*
X117292729Y-73370848D01*
X117119807Y-73293857D01*
X117119802Y-73293855D01*
X116974001Y-73262865D01*
X116934646Y-73254500D01*
X116745354Y-73254500D01*
X116712915Y-73261395D01*
X116560197Y-73293855D01*
X116560192Y-73293857D01*
X116387270Y-73370848D01*
X116387265Y-73370851D01*
X116234129Y-73482111D01*
X116107466Y-73622785D01*
X116012821Y-73786715D01*
X116012818Y-73786722D01*
X115954327Y-73966740D01*
X115954326Y-73966744D01*
X115934540Y-74155000D01*
X115954326Y-74343256D01*
X115954327Y-74343259D01*
X116012818Y-74523277D01*
X116012821Y-74523284D01*
X116107466Y-74687215D01*
X116132649Y-74715183D01*
X116162879Y-74778174D01*
X116164500Y-74798156D01*
X116164500Y-79043837D01*
X116144815Y-79110876D01*
X116128181Y-79131518D01*
X113645928Y-81613770D01*
X113584605Y-81647255D01*
X113571224Y-81649408D01*
X113570359Y-81649498D01*
X113385197Y-81688855D01*
X113385192Y-81688857D01*
X113212270Y-81765848D01*
X113212265Y-81765851D01*
X113080592Y-81861517D01*
X113014785Y-81884997D01*
X112946732Y-81869171D01*
X112906133Y-81832323D01*
X112798495Y-81678599D01*
X112631401Y-81511505D01*
X112445405Y-81381269D01*
X112401781Y-81326692D01*
X112394588Y-81257193D01*
X112426110Y-81194839D01*
X112445405Y-81178119D01*
X112631082Y-81048105D01*
X112798105Y-80881082D01*
X112933600Y-80687578D01*
X113033429Y-80473492D01*
X113033432Y-80473486D01*
X113090636Y-80260000D01*
X112193012Y-80260000D01*
X112225925Y-80202993D01*
X112260000Y-80075826D01*
X112260000Y-79944174D01*
X112225925Y-79817007D01*
X112193012Y-79760000D01*
X113090636Y-79760000D01*
X113090635Y-79759999D01*
X113033432Y-79546513D01*
X113033429Y-79546507D01*
X112933600Y-79332422D01*
X112933599Y-79332420D01*
X112798113Y-79138926D01*
X112798108Y-79138920D01*
X112631078Y-78971890D01*
X112445405Y-78841879D01*
X112401780Y-78787302D01*
X112394588Y-78717804D01*
X112426110Y-78655449D01*
X112445406Y-78638730D01*
X112631401Y-78508495D01*
X112798495Y-78341401D01*
X112934035Y-78147830D01*
X113033903Y-77933663D01*
X113095063Y-77705408D01*
X113115659Y-77470000D01*
X113095063Y-77234592D01*
X113038436Y-77023256D01*
X113033905Y-77006344D01*
X113033904Y-77006343D01*
X113033903Y-77006337D01*
X112954007Y-76835000D01*
X114029540Y-76835000D01*
X114049326Y-77023256D01*
X114049327Y-77023259D01*
X114107818Y-77203277D01*
X114107821Y-77203284D01*
X114202467Y-77367216D01*
X114317203Y-77494643D01*
X114329129Y-77507888D01*
X114482265Y-77619148D01*
X114482270Y-77619151D01*
X114655192Y-77696142D01*
X114655197Y-77696144D01*
X114840354Y-77735500D01*
X114840355Y-77735500D01*
X115029644Y-77735500D01*
X115029646Y-77735500D01*
X115214803Y-77696144D01*
X115387730Y-77619151D01*
X115540871Y-77507888D01*
X115667533Y-77367216D01*
X115762179Y-77203284D01*
X115820674Y-77023256D01*
X115840460Y-76835000D01*
X115820674Y-76646744D01*
X115762179Y-76466716D01*
X115667533Y-76302784D01*
X115667529Y-76302778D01*
X115642350Y-76274814D01*
X115612120Y-76211822D01*
X115610500Y-76191842D01*
X115610500Y-71451162D01*
X115630185Y-71384123D01*
X115646815Y-71363485D01*
X116009514Y-71000785D01*
X116070835Y-70967302D01*
X116071332Y-70967195D01*
X116081147Y-70965109D01*
X116099800Y-70961145D01*
X116099801Y-70961144D01*
X116099803Y-70961144D01*
X116272730Y-70884151D01*
X116425871Y-70772888D01*
X116552533Y-70632216D01*
X116647179Y-70468284D01*
X116705674Y-70288256D01*
X116725460Y-70100000D01*
X116705674Y-69911744D01*
X116647179Y-69731716D01*
X116552533Y-69567784D01*
X116425871Y-69427112D01*
X116425870Y-69427111D01*
X116272734Y-69315851D01*
X116272729Y-69315848D01*
X116099807Y-69238857D01*
X116099802Y-69238855D01*
X115942107Y-69205337D01*
X115914646Y-69199500D01*
X115725354Y-69199500D01*
X115697902Y-69205335D01*
X115540197Y-69238855D01*
X115540192Y-69238857D01*
X115367270Y-69315848D01*
X115367265Y-69315851D01*
X115214129Y-69427111D01*
X115087466Y-69567785D01*
X114992821Y-69731715D01*
X114992818Y-69731722D01*
X114934327Y-69911740D01*
X114934326Y-69911744D01*
X114916074Y-70085403D01*
X114914540Y-70100000D01*
X114916457Y-70118238D01*
X114903887Y-70186968D01*
X114880817Y-70218880D01*
X114410307Y-70689390D01*
X114410304Y-70689394D01*
X114336383Y-70800024D01*
X114336378Y-70800034D01*
X114285459Y-70922963D01*
X114285457Y-70922970D01*
X114265355Y-71024034D01*
X114265355Y-71024037D01*
X114259500Y-71053469D01*
X114259500Y-76191842D01*
X114239815Y-76258881D01*
X114227650Y-76274814D01*
X114202470Y-76302778D01*
X114202465Y-76302785D01*
X114107821Y-76466715D01*
X114107818Y-76466722D01*
X114061636Y-76608857D01*
X114049326Y-76646744D01*
X114029540Y-76835000D01*
X112954007Y-76835000D01*
X112934035Y-76792171D01*
X112928425Y-76784158D01*
X112798494Y-76598597D01*
X112631402Y-76431506D01*
X112631396Y-76431501D01*
X112445842Y-76301575D01*
X112402217Y-76246998D01*
X112395023Y-76177500D01*
X112426546Y-76115145D01*
X112445842Y-76098425D01*
X112578431Y-76005585D01*
X112631401Y-75968495D01*
X112798495Y-75801401D01*
X112934035Y-75607830D01*
X113033903Y-75393663D01*
X113095063Y-75165408D01*
X113115659Y-74930000D01*
X113095063Y-74694592D01*
X113033903Y-74466337D01*
X112934035Y-74252171D01*
X112929188Y-74245248D01*
X112798494Y-74058597D01*
X112631402Y-73891506D01*
X112631396Y-73891501D01*
X112445842Y-73761575D01*
X112402217Y-73706998D01*
X112395023Y-73637500D01*
X112426546Y-73575145D01*
X112445842Y-73558425D01*
X112554829Y-73482111D01*
X112631401Y-73428495D01*
X112798495Y-73261401D01*
X112934035Y-73067830D01*
X113033903Y-72853663D01*
X113095063Y-72625408D01*
X113115659Y-72390000D01*
X113095063Y-72154592D01*
X113033903Y-71926337D01*
X112934035Y-71712171D01*
X112928425Y-71704158D01*
X112798494Y-71518597D01*
X112631402Y-71351506D01*
X112631396Y-71351501D01*
X112445842Y-71221575D01*
X112402217Y-71166998D01*
X112395023Y-71097500D01*
X112426546Y-71035145D01*
X112445842Y-71018425D01*
X112518853Y-70967302D01*
X112631401Y-70888495D01*
X112798495Y-70721401D01*
X112934035Y-70527830D01*
X113033903Y-70313663D01*
X113095063Y-70085408D01*
X113115659Y-69850000D01*
X113095063Y-69614592D01*
X113048626Y-69441285D01*
X113033905Y-69386344D01*
X113033904Y-69386343D01*
X113033903Y-69386337D01*
X112934035Y-69172171D01*
X112798495Y-68978599D01*
X112798494Y-68978597D01*
X112631402Y-68811506D01*
X112631395Y-68811501D01*
X112437834Y-68675967D01*
X112437830Y-68675965D01*
X112437828Y-68675964D01*
X112223663Y-68576097D01*
X112223659Y-68576096D01*
X112223655Y-68576094D01*
X111995413Y-68514938D01*
X111995403Y-68514936D01*
X111760001Y-68494341D01*
X111759999Y-68494341D01*
X111524596Y-68514936D01*
X111524586Y-68514938D01*
X111296344Y-68576094D01*
X111296335Y-68576098D01*
X111082171Y-68675964D01*
X111082169Y-68675965D01*
X110888600Y-68811503D01*
X110766673Y-68933430D01*
X110705350Y-68966914D01*
X110635658Y-68961930D01*
X110579725Y-68920058D01*
X110562810Y-68889081D01*
X110513797Y-68757671D01*
X110513793Y-68757664D01*
X110427547Y-68642455D01*
X110427544Y-68642452D01*
X110312335Y-68556206D01*
X110312328Y-68556202D01*
X110177482Y-68505908D01*
X110177483Y-68505908D01*
X110117883Y-68499501D01*
X110117881Y-68499500D01*
X110117873Y-68499500D01*
X110117864Y-68499500D01*
X108322129Y-68499500D01*
X108322123Y-68499501D01*
X108262516Y-68505908D01*
X108127671Y-68556202D01*
X108127664Y-68556206D01*
X108012455Y-68642452D01*
X108012452Y-68642455D01*
X107926206Y-68757664D01*
X107926202Y-68757671D01*
X107875908Y-68892517D01*
X107869501Y-68952116D01*
X107869501Y-68952123D01*
X107869500Y-68952135D01*
X107869500Y-70747870D01*
X107869501Y-70747876D01*
X107875908Y-70807483D01*
X107926202Y-70942328D01*
X107926206Y-70942335D01*
X108012452Y-71057544D01*
X108012455Y-71057547D01*
X108127664Y-71143793D01*
X108127671Y-71143797D01*
X108259081Y-71192810D01*
X108315015Y-71234681D01*
X108339432Y-71300145D01*
X108324580Y-71368418D01*
X108303430Y-71396673D01*
X108181503Y-71518600D01*
X108045965Y-71712169D01*
X108045964Y-71712171D01*
X107946098Y-71926335D01*
X107946094Y-71926344D01*
X107884938Y-72154586D01*
X107884936Y-72154596D01*
X107864341Y-72389999D01*
X105495659Y-72389999D01*
X105475063Y-72154592D01*
X105413903Y-71926337D01*
X105314035Y-71712171D01*
X105308424Y-71704158D01*
X105178496Y-71518600D01*
X105148173Y-71488277D01*
X105056567Y-71396671D01*
X105023084Y-71335351D01*
X105028068Y-71265659D01*
X105069939Y-71209725D01*
X105100915Y-71192810D01*
X105232331Y-71143796D01*
X105347546Y-71057546D01*
X105433796Y-70942331D01*
X105484091Y-70807483D01*
X105490500Y-70747873D01*
X105490499Y-68952128D01*
X105484091Y-68892517D01*
X105482810Y-68889083D01*
X105433797Y-68757671D01*
X105433793Y-68757664D01*
X105347547Y-68642455D01*
X105347544Y-68642452D01*
X105232335Y-68556206D01*
X105232328Y-68556202D01*
X105097482Y-68505908D01*
X105097483Y-68505908D01*
X105037883Y-68499501D01*
X105037881Y-68499500D01*
X105037873Y-68499500D01*
X105037864Y-68499500D01*
X103242129Y-68499500D01*
X103242123Y-68499501D01*
X103182516Y-68505908D01*
X103047671Y-68556202D01*
X103047664Y-68556206D01*
X102932455Y-68642452D01*
X102932452Y-68642455D01*
X102846206Y-68757664D01*
X102846203Y-68757669D01*
X102797189Y-68889083D01*
X102755317Y-68945016D01*
X102689853Y-68969433D01*
X102621580Y-68954581D01*
X102593326Y-68933430D01*
X102471402Y-68811506D01*
X102471395Y-68811501D01*
X102277834Y-68675967D01*
X102277830Y-68675965D01*
X102277828Y-68675964D01*
X102063663Y-68576097D01*
X102063659Y-68576096D01*
X102063655Y-68576094D01*
X101835413Y-68514938D01*
X101835403Y-68514936D01*
X101600001Y-68494341D01*
X101599999Y-68494341D01*
X101364596Y-68514936D01*
X101364586Y-68514938D01*
X101136344Y-68576094D01*
X101136335Y-68576098D01*
X100922171Y-68675964D01*
X100922169Y-68675965D01*
X100728597Y-68811505D01*
X100561505Y-68978597D01*
X100425965Y-69172169D01*
X100425964Y-69172171D01*
X100326098Y-69386335D01*
X100326094Y-69386344D01*
X100264938Y-69614586D01*
X100264936Y-69614596D01*
X100244341Y-69849999D01*
X98852500Y-69849999D01*
X98852500Y-68369500D01*
X98872185Y-68302461D01*
X98924989Y-68256706D01*
X98976500Y-68245500D01*
X131147500Y-68245500D01*
X131214539Y-68265185D01*
G37*
G04 #@! TD.AperFunction*
M02*
