%TF.GenerationSoftware,KiCad,Pcbnew,8.0.9-8.0.9-0~ubuntu24.04.1*%
%TF.CreationDate,2025-04-08T01:43:22+09:30*%
%TF.ProjectId,qspi-pmod-adapter,71737069-2d70-46d6-9f64-2d6164617074,rev?*%
%TF.SameCoordinates,Original*%
%TF.FileFunction,Drillmap*%
%TF.FilePolarity,Positive*%
%FSLAX45Y45*%
G04 Gerber Fmt 4.5, Leading zero omitted, Abs format (unit mm)*
G04 Created by KiCad (PCBNEW 8.0.9-8.0.9-0~ubuntu24.04.1) date 2025-04-08 01:43:22*
%MOMM*%
%LPD*%
G01*
G04 APERTURE LIST*
%ADD10C,0.150000*%
%ADD11C,0.200000*%
%ADD12C,0.100000*%
G04 APERTURE END LIST*
D10*
X9855200Y-6794500D02*
X13157200Y-6794500D01*
X13157200Y-8445500D01*
X9855200Y-8445500D01*
X9855200Y-6794500D01*
D11*
D12*
X11346500Y-8235000D02*
X11386500Y-8275000D01*
X11386500Y-8235000D02*
X11346500Y-8275000D01*
X11473500Y-7663500D02*
X11513500Y-7703500D01*
X11513500Y-7663500D02*
X11473500Y-7703500D01*
X11562000Y-6990000D02*
X11602000Y-7030000D01*
X11602000Y-6990000D02*
X11562000Y-7030000D01*
X11664000Y-7395500D02*
X11704000Y-7435500D01*
X11704000Y-7395500D02*
X11664000Y-7435500D01*
X11894949Y-7449949D02*
X11934949Y-7489949D01*
X11934949Y-7449949D02*
X11894949Y-7489949D01*
X11918000Y-7727000D02*
X11958000Y-7767000D01*
X11958000Y-7727000D02*
X11918000Y-7767000D01*
X12045000Y-7727000D02*
X12085000Y-7767000D01*
X12085000Y-7727000D02*
X12045000Y-7767000D01*
X12172000Y-7092000D02*
X12212000Y-7132000D01*
X12212000Y-7092000D02*
X12172000Y-7132000D01*
X10210000Y-6985000D02*
G75*
G02*
X10110000Y-6985000I-50000J0D01*
G01*
X10110000Y-6985000D02*
G75*
G02*
X10210000Y-6985000I50000J0D01*
G01*
X10210000Y-7239000D02*
G75*
G02*
X10110000Y-7239000I-50000J0D01*
G01*
X10110000Y-7239000D02*
G75*
G02*
X10210000Y-7239000I50000J0D01*
G01*
X10210000Y-7493000D02*
G75*
G02*
X10110000Y-7493000I-50000J0D01*
G01*
X10110000Y-7493000D02*
G75*
G02*
X10210000Y-7493000I50000J0D01*
G01*
X10210000Y-7747000D02*
G75*
G02*
X10110000Y-7747000I-50000J0D01*
G01*
X10110000Y-7747000D02*
G75*
G02*
X10210000Y-7747000I50000J0D01*
G01*
X10210000Y-8001000D02*
G75*
G02*
X10110000Y-8001000I-50000J0D01*
G01*
X10110000Y-8001000D02*
G75*
G02*
X10210000Y-8001000I50000J0D01*
G01*
X10210000Y-8255000D02*
G75*
G02*
X10110000Y-8255000I-50000J0D01*
G01*
X10110000Y-8255000D02*
G75*
G02*
X10210000Y-8255000I50000J0D01*
G01*
X10464000Y-6985000D02*
G75*
G02*
X10364000Y-6985000I-50000J0D01*
G01*
X10364000Y-6985000D02*
G75*
G02*
X10464000Y-6985000I50000J0D01*
G01*
X10464000Y-7239000D02*
G75*
G02*
X10364000Y-7239000I-50000J0D01*
G01*
X10364000Y-7239000D02*
G75*
G02*
X10464000Y-7239000I50000J0D01*
G01*
X10464000Y-7493000D02*
G75*
G02*
X10364000Y-7493000I-50000J0D01*
G01*
X10364000Y-7493000D02*
G75*
G02*
X10464000Y-7493000I50000J0D01*
G01*
X10464000Y-7747000D02*
G75*
G02*
X10364000Y-7747000I-50000J0D01*
G01*
X10364000Y-7747000D02*
G75*
G02*
X10464000Y-7747000I50000J0D01*
G01*
X10464000Y-8001000D02*
G75*
G02*
X10364000Y-8001000I-50000J0D01*
G01*
X10364000Y-8001000D02*
G75*
G02*
X10464000Y-8001000I50000J0D01*
G01*
X10464000Y-8255000D02*
G75*
G02*
X10364000Y-8255000I-50000J0D01*
G01*
X10364000Y-8255000D02*
G75*
G02*
X10464000Y-8255000I50000J0D01*
G01*
X10972000Y-6985000D02*
G75*
G02*
X10872000Y-6985000I-50000J0D01*
G01*
X10872000Y-6985000D02*
G75*
G02*
X10972000Y-6985000I50000J0D01*
G01*
X10972000Y-7239000D02*
G75*
G02*
X10872000Y-7239000I-50000J0D01*
G01*
X10872000Y-7239000D02*
G75*
G02*
X10972000Y-7239000I50000J0D01*
G01*
X10972000Y-7493000D02*
G75*
G02*
X10872000Y-7493000I-50000J0D01*
G01*
X10872000Y-7493000D02*
G75*
G02*
X10972000Y-7493000I50000J0D01*
G01*
X10972000Y-7747000D02*
G75*
G02*
X10872000Y-7747000I-50000J0D01*
G01*
X10872000Y-7747000D02*
G75*
G02*
X10972000Y-7747000I50000J0D01*
G01*
X10972000Y-8001000D02*
G75*
G02*
X10872000Y-8001000I-50000J0D01*
G01*
X10872000Y-8001000D02*
G75*
G02*
X10972000Y-8001000I50000J0D01*
G01*
X10972000Y-8255000D02*
G75*
G02*
X10872000Y-8255000I-50000J0D01*
G01*
X10872000Y-8255000D02*
G75*
G02*
X10972000Y-8255000I50000J0D01*
G01*
X11226000Y-6985000D02*
G75*
G02*
X11126000Y-6985000I-50000J0D01*
G01*
X11126000Y-6985000D02*
G75*
G02*
X11226000Y-6985000I50000J0D01*
G01*
X11226000Y-7239000D02*
G75*
G02*
X11126000Y-7239000I-50000J0D01*
G01*
X11126000Y-7239000D02*
G75*
G02*
X11226000Y-7239000I50000J0D01*
G01*
X11226000Y-7493000D02*
G75*
G02*
X11126000Y-7493000I-50000J0D01*
G01*
X11126000Y-7493000D02*
G75*
G02*
X11226000Y-7493000I50000J0D01*
G01*
X11226000Y-7747000D02*
G75*
G02*
X11126000Y-7747000I-50000J0D01*
G01*
X11126000Y-7747000D02*
G75*
G02*
X11226000Y-7747000I50000J0D01*
G01*
X11226000Y-8001000D02*
G75*
G02*
X11126000Y-8001000I-50000J0D01*
G01*
X11126000Y-8001000D02*
G75*
G02*
X11226000Y-8001000I50000J0D01*
G01*
X11226000Y-8255000D02*
G75*
G02*
X11126000Y-8255000I-50000J0D01*
G01*
X11126000Y-8255000D02*
G75*
G02*
X11226000Y-8255000I50000J0D01*
G01*
X12623000Y-6985000D02*
G75*
G02*
X12523000Y-6985000I-50000J0D01*
G01*
X12523000Y-6985000D02*
G75*
G02*
X12623000Y-6985000I50000J0D01*
G01*
X12623000Y-7239000D02*
G75*
G02*
X12523000Y-7239000I-50000J0D01*
G01*
X12523000Y-7239000D02*
G75*
G02*
X12623000Y-7239000I50000J0D01*
G01*
X12623000Y-7493000D02*
G75*
G02*
X12523000Y-7493000I-50000J0D01*
G01*
X12523000Y-7493000D02*
G75*
G02*
X12623000Y-7493000I50000J0D01*
G01*
X12623000Y-7747000D02*
G75*
G02*
X12523000Y-7747000I-50000J0D01*
G01*
X12523000Y-7747000D02*
G75*
G02*
X12623000Y-7747000I50000J0D01*
G01*
X12623000Y-8001000D02*
G75*
G02*
X12523000Y-8001000I-50000J0D01*
G01*
X12523000Y-8001000D02*
G75*
G02*
X12623000Y-8001000I50000J0D01*
G01*
X12623000Y-8255000D02*
G75*
G02*
X12523000Y-8255000I-50000J0D01*
G01*
X12523000Y-8255000D02*
G75*
G02*
X12623000Y-8255000I50000J0D01*
G01*
X12877000Y-6985000D02*
G75*
G02*
X12777000Y-6985000I-50000J0D01*
G01*
X12777000Y-6985000D02*
G75*
G02*
X12877000Y-6985000I50000J0D01*
G01*
X12877000Y-7239000D02*
G75*
G02*
X12777000Y-7239000I-50000J0D01*
G01*
X12777000Y-7239000D02*
G75*
G02*
X12877000Y-7239000I50000J0D01*
G01*
X12877000Y-7493000D02*
G75*
G02*
X12777000Y-7493000I-50000J0D01*
G01*
X12777000Y-7493000D02*
G75*
G02*
X12877000Y-7493000I50000J0D01*
G01*
X12877000Y-7747000D02*
G75*
G02*
X12777000Y-7747000I-50000J0D01*
G01*
X12777000Y-7747000D02*
G75*
G02*
X12877000Y-7747000I50000J0D01*
G01*
X12877000Y-8001000D02*
G75*
G02*
X12777000Y-8001000I-50000J0D01*
G01*
X12777000Y-8001000D02*
G75*
G02*
X12877000Y-8001000I50000J0D01*
G01*
X12877000Y-8255000D02*
G75*
G02*
X12777000Y-8255000I-50000J0D01*
G01*
X12777000Y-8255000D02*
G75*
G02*
X12877000Y-8255000I50000J0D01*
G01*
D11*
X10108477Y-8764484D02*
X10108477Y-8564484D01*
X10108477Y-8564484D02*
X10156096Y-8564484D01*
X10156096Y-8564484D02*
X10184667Y-8574008D01*
X10184667Y-8574008D02*
X10203715Y-8593055D01*
X10203715Y-8593055D02*
X10213239Y-8612103D01*
X10213239Y-8612103D02*
X10222763Y-8650198D01*
X10222763Y-8650198D02*
X10222763Y-8678770D01*
X10222763Y-8678770D02*
X10213239Y-8716865D01*
X10213239Y-8716865D02*
X10203715Y-8735912D01*
X10203715Y-8735912D02*
X10184667Y-8754960D01*
X10184667Y-8754960D02*
X10156096Y-8764484D01*
X10156096Y-8764484D02*
X10108477Y-8764484D01*
X10308477Y-8764484D02*
X10308477Y-8631150D01*
X10308477Y-8669246D02*
X10318001Y-8650198D01*
X10318001Y-8650198D02*
X10327524Y-8640674D01*
X10327524Y-8640674D02*
X10346572Y-8631150D01*
X10346572Y-8631150D02*
X10365620Y-8631150D01*
X10432286Y-8764484D02*
X10432286Y-8631150D01*
X10432286Y-8564484D02*
X10422763Y-8574008D01*
X10422763Y-8574008D02*
X10432286Y-8583531D01*
X10432286Y-8583531D02*
X10441810Y-8574008D01*
X10441810Y-8574008D02*
X10432286Y-8564484D01*
X10432286Y-8564484D02*
X10432286Y-8583531D01*
X10556096Y-8764484D02*
X10537048Y-8754960D01*
X10537048Y-8754960D02*
X10527524Y-8735912D01*
X10527524Y-8735912D02*
X10527524Y-8564484D01*
X10660858Y-8764484D02*
X10641810Y-8754960D01*
X10641810Y-8754960D02*
X10632286Y-8735912D01*
X10632286Y-8735912D02*
X10632286Y-8564484D01*
X10889429Y-8764484D02*
X10889429Y-8564484D01*
X10889429Y-8564484D02*
X10956096Y-8707341D01*
X10956096Y-8707341D02*
X11022763Y-8564484D01*
X11022763Y-8564484D02*
X11022763Y-8764484D01*
X11203715Y-8764484D02*
X11203715Y-8659722D01*
X11203715Y-8659722D02*
X11194191Y-8640674D01*
X11194191Y-8640674D02*
X11175144Y-8631150D01*
X11175144Y-8631150D02*
X11137048Y-8631150D01*
X11137048Y-8631150D02*
X11118001Y-8640674D01*
X11203715Y-8754960D02*
X11184667Y-8764484D01*
X11184667Y-8764484D02*
X11137048Y-8764484D01*
X11137048Y-8764484D02*
X11118001Y-8754960D01*
X11118001Y-8754960D02*
X11108477Y-8735912D01*
X11108477Y-8735912D02*
X11108477Y-8716865D01*
X11108477Y-8716865D02*
X11118001Y-8697817D01*
X11118001Y-8697817D02*
X11137048Y-8688293D01*
X11137048Y-8688293D02*
X11184667Y-8688293D01*
X11184667Y-8688293D02*
X11203715Y-8678770D01*
X11298953Y-8631150D02*
X11298953Y-8831150D01*
X11298953Y-8640674D02*
X11318001Y-8631150D01*
X11318001Y-8631150D02*
X11356096Y-8631150D01*
X11356096Y-8631150D02*
X11375143Y-8640674D01*
X11375143Y-8640674D02*
X11384667Y-8650198D01*
X11384667Y-8650198D02*
X11394191Y-8669246D01*
X11394191Y-8669246D02*
X11394191Y-8726389D01*
X11394191Y-8726389D02*
X11384667Y-8745436D01*
X11384667Y-8745436D02*
X11375143Y-8754960D01*
X11375143Y-8754960D02*
X11356096Y-8764484D01*
X11356096Y-8764484D02*
X11318001Y-8764484D01*
X11318001Y-8764484D02*
X11298953Y-8754960D01*
X11479905Y-8745436D02*
X11489429Y-8754960D01*
X11489429Y-8754960D02*
X11479905Y-8764484D01*
X11479905Y-8764484D02*
X11470382Y-8754960D01*
X11470382Y-8754960D02*
X11479905Y-8745436D01*
X11479905Y-8745436D02*
X11479905Y-8764484D01*
X11479905Y-8640674D02*
X11489429Y-8650198D01*
X11489429Y-8650198D02*
X11479905Y-8659722D01*
X11479905Y-8659722D02*
X11470382Y-8650198D01*
X11470382Y-8650198D02*
X11479905Y-8640674D01*
X11479905Y-8640674D02*
X11479905Y-8659722D01*
D12*
X9807700Y-9073000D02*
X9847700Y-9113000D01*
X9847700Y-9073000D02*
X9807700Y-9113000D01*
D11*
X10146572Y-8984484D02*
X10165620Y-8984484D01*
X10165620Y-8984484D02*
X10184667Y-8994008D01*
X10184667Y-8994008D02*
X10194191Y-9003531D01*
X10194191Y-9003531D02*
X10203715Y-9022579D01*
X10203715Y-9022579D02*
X10213239Y-9060674D01*
X10213239Y-9060674D02*
X10213239Y-9108293D01*
X10213239Y-9108293D02*
X10203715Y-9146389D01*
X10203715Y-9146389D02*
X10194191Y-9165436D01*
X10194191Y-9165436D02*
X10184667Y-9174960D01*
X10184667Y-9174960D02*
X10165620Y-9184484D01*
X10165620Y-9184484D02*
X10146572Y-9184484D01*
X10146572Y-9184484D02*
X10127524Y-9174960D01*
X10127524Y-9174960D02*
X10118001Y-9165436D01*
X10118001Y-9165436D02*
X10108477Y-9146389D01*
X10108477Y-9146389D02*
X10098953Y-9108293D01*
X10098953Y-9108293D02*
X10098953Y-9060674D01*
X10098953Y-9060674D02*
X10108477Y-9022579D01*
X10108477Y-9022579D02*
X10118001Y-9003531D01*
X10118001Y-9003531D02*
X10127524Y-8994008D01*
X10127524Y-8994008D02*
X10146572Y-8984484D01*
X10298953Y-9165436D02*
X10308477Y-9174960D01*
X10308477Y-9174960D02*
X10298953Y-9184484D01*
X10298953Y-9184484D02*
X10289429Y-9174960D01*
X10289429Y-9174960D02*
X10298953Y-9165436D01*
X10298953Y-9165436D02*
X10298953Y-9184484D01*
X10479905Y-9051150D02*
X10479905Y-9184484D01*
X10432286Y-8974960D02*
X10384667Y-9117817D01*
X10384667Y-9117817D02*
X10508477Y-9117817D01*
X10622763Y-8984484D02*
X10641810Y-8984484D01*
X10641810Y-8984484D02*
X10660858Y-8994008D01*
X10660858Y-8994008D02*
X10670382Y-9003531D01*
X10670382Y-9003531D02*
X10679905Y-9022579D01*
X10679905Y-9022579D02*
X10689429Y-9060674D01*
X10689429Y-9060674D02*
X10689429Y-9108293D01*
X10689429Y-9108293D02*
X10679905Y-9146389D01*
X10679905Y-9146389D02*
X10670382Y-9165436D01*
X10670382Y-9165436D02*
X10660858Y-9174960D01*
X10660858Y-9174960D02*
X10641810Y-9184484D01*
X10641810Y-9184484D02*
X10622763Y-9184484D01*
X10622763Y-9184484D02*
X10603715Y-9174960D01*
X10603715Y-9174960D02*
X10594191Y-9165436D01*
X10594191Y-9165436D02*
X10584667Y-9146389D01*
X10584667Y-9146389D02*
X10575144Y-9108293D01*
X10575144Y-9108293D02*
X10575144Y-9060674D01*
X10575144Y-9060674D02*
X10584667Y-9022579D01*
X10584667Y-9022579D02*
X10594191Y-9003531D01*
X10594191Y-9003531D02*
X10603715Y-8994008D01*
X10603715Y-8994008D02*
X10622763Y-8984484D01*
X10813239Y-8984484D02*
X10832286Y-8984484D01*
X10832286Y-8984484D02*
X10851334Y-8994008D01*
X10851334Y-8994008D02*
X10860858Y-9003531D01*
X10860858Y-9003531D02*
X10870382Y-9022579D01*
X10870382Y-9022579D02*
X10879905Y-9060674D01*
X10879905Y-9060674D02*
X10879905Y-9108293D01*
X10879905Y-9108293D02*
X10870382Y-9146389D01*
X10870382Y-9146389D02*
X10860858Y-9165436D01*
X10860858Y-9165436D02*
X10851334Y-9174960D01*
X10851334Y-9174960D02*
X10832286Y-9184484D01*
X10832286Y-9184484D02*
X10813239Y-9184484D01*
X10813239Y-9184484D02*
X10794191Y-9174960D01*
X10794191Y-9174960D02*
X10784667Y-9165436D01*
X10784667Y-9165436D02*
X10775144Y-9146389D01*
X10775144Y-9146389D02*
X10765620Y-9108293D01*
X10765620Y-9108293D02*
X10765620Y-9060674D01*
X10765620Y-9060674D02*
X10775144Y-9022579D01*
X10775144Y-9022579D02*
X10784667Y-9003531D01*
X10784667Y-9003531D02*
X10794191Y-8994008D01*
X10794191Y-8994008D02*
X10813239Y-8984484D01*
X10965620Y-9184484D02*
X10965620Y-9051150D01*
X10965620Y-9070198D02*
X10975144Y-9060674D01*
X10975144Y-9060674D02*
X10994191Y-9051150D01*
X10994191Y-9051150D02*
X11022763Y-9051150D01*
X11022763Y-9051150D02*
X11041810Y-9060674D01*
X11041810Y-9060674D02*
X11051334Y-9079722D01*
X11051334Y-9079722D02*
X11051334Y-9184484D01*
X11051334Y-9079722D02*
X11060858Y-9060674D01*
X11060858Y-9060674D02*
X11079905Y-9051150D01*
X11079905Y-9051150D02*
X11108477Y-9051150D01*
X11108477Y-9051150D02*
X11127525Y-9060674D01*
X11127525Y-9060674D02*
X11137048Y-9079722D01*
X11137048Y-9079722D02*
X11137048Y-9184484D01*
X11232286Y-9184484D02*
X11232286Y-9051150D01*
X11232286Y-9070198D02*
X11241810Y-9060674D01*
X11241810Y-9060674D02*
X11260858Y-9051150D01*
X11260858Y-9051150D02*
X11289429Y-9051150D01*
X11289429Y-9051150D02*
X11308477Y-9060674D01*
X11308477Y-9060674D02*
X11318001Y-9079722D01*
X11318001Y-9079722D02*
X11318001Y-9184484D01*
X11318001Y-9079722D02*
X11327524Y-9060674D01*
X11327524Y-9060674D02*
X11346572Y-9051150D01*
X11346572Y-9051150D02*
X11375143Y-9051150D01*
X11375143Y-9051150D02*
X11394191Y-9060674D01*
X11394191Y-9060674D02*
X11403715Y-9079722D01*
X11403715Y-9079722D02*
X11403715Y-9184484D01*
X11794191Y-8974960D02*
X11622763Y-9232103D01*
X12051334Y-8984484D02*
X12070382Y-8984484D01*
X12070382Y-8984484D02*
X12089429Y-8994008D01*
X12089429Y-8994008D02*
X12098953Y-9003531D01*
X12098953Y-9003531D02*
X12108477Y-9022579D01*
X12108477Y-9022579D02*
X12118001Y-9060674D01*
X12118001Y-9060674D02*
X12118001Y-9108293D01*
X12118001Y-9108293D02*
X12108477Y-9146389D01*
X12108477Y-9146389D02*
X12098953Y-9165436D01*
X12098953Y-9165436D02*
X12089429Y-9174960D01*
X12089429Y-9174960D02*
X12070382Y-9184484D01*
X12070382Y-9184484D02*
X12051334Y-9184484D01*
X12051334Y-9184484D02*
X12032286Y-9174960D01*
X12032286Y-9174960D02*
X12022763Y-9165436D01*
X12022763Y-9165436D02*
X12013239Y-9146389D01*
X12013239Y-9146389D02*
X12003715Y-9108293D01*
X12003715Y-9108293D02*
X12003715Y-9060674D01*
X12003715Y-9060674D02*
X12013239Y-9022579D01*
X12013239Y-9022579D02*
X12022763Y-9003531D01*
X12022763Y-9003531D02*
X12032286Y-8994008D01*
X12032286Y-8994008D02*
X12051334Y-8984484D01*
X12203715Y-9165436D02*
X12213239Y-9174960D01*
X12213239Y-9174960D02*
X12203715Y-9184484D01*
X12203715Y-9184484D02*
X12194191Y-9174960D01*
X12194191Y-9174960D02*
X12203715Y-9165436D01*
X12203715Y-9165436D02*
X12203715Y-9184484D01*
X12337048Y-8984484D02*
X12356096Y-8984484D01*
X12356096Y-8984484D02*
X12375144Y-8994008D01*
X12375144Y-8994008D02*
X12384667Y-9003531D01*
X12384667Y-9003531D02*
X12394191Y-9022579D01*
X12394191Y-9022579D02*
X12403715Y-9060674D01*
X12403715Y-9060674D02*
X12403715Y-9108293D01*
X12403715Y-9108293D02*
X12394191Y-9146389D01*
X12394191Y-9146389D02*
X12384667Y-9165436D01*
X12384667Y-9165436D02*
X12375144Y-9174960D01*
X12375144Y-9174960D02*
X12356096Y-9184484D01*
X12356096Y-9184484D02*
X12337048Y-9184484D01*
X12337048Y-9184484D02*
X12318001Y-9174960D01*
X12318001Y-9174960D02*
X12308477Y-9165436D01*
X12308477Y-9165436D02*
X12298953Y-9146389D01*
X12298953Y-9146389D02*
X12289429Y-9108293D01*
X12289429Y-9108293D02*
X12289429Y-9060674D01*
X12289429Y-9060674D02*
X12298953Y-9022579D01*
X12298953Y-9022579D02*
X12308477Y-9003531D01*
X12308477Y-9003531D02*
X12318001Y-8994008D01*
X12318001Y-8994008D02*
X12337048Y-8984484D01*
X12594191Y-9184484D02*
X12479906Y-9184484D01*
X12537048Y-9184484D02*
X12537048Y-8984484D01*
X12537048Y-8984484D02*
X12518001Y-9013055D01*
X12518001Y-9013055D02*
X12498953Y-9032103D01*
X12498953Y-9032103D02*
X12479906Y-9041627D01*
X12775144Y-8984484D02*
X12679906Y-8984484D01*
X12679906Y-8984484D02*
X12670382Y-9079722D01*
X12670382Y-9079722D02*
X12679906Y-9070198D01*
X12679906Y-9070198D02*
X12698953Y-9060674D01*
X12698953Y-9060674D02*
X12746572Y-9060674D01*
X12746572Y-9060674D02*
X12765620Y-9070198D01*
X12765620Y-9070198D02*
X12775144Y-9079722D01*
X12775144Y-9079722D02*
X12784667Y-9098770D01*
X12784667Y-9098770D02*
X12784667Y-9146389D01*
X12784667Y-9146389D02*
X12775144Y-9165436D01*
X12775144Y-9165436D02*
X12765620Y-9174960D01*
X12765620Y-9174960D02*
X12746572Y-9184484D01*
X12746572Y-9184484D02*
X12698953Y-9184484D01*
X12698953Y-9184484D02*
X12679906Y-9174960D01*
X12679906Y-9174960D02*
X12670382Y-9165436D01*
X12851334Y-8984484D02*
X12984667Y-8984484D01*
X12984667Y-8984484D02*
X12898953Y-9184484D01*
X13051334Y-8984484D02*
X13051334Y-9022579D01*
X13127525Y-8984484D02*
X13127525Y-9022579D01*
X13422763Y-9260674D02*
X13413239Y-9251150D01*
X13413239Y-9251150D02*
X13394191Y-9222579D01*
X13394191Y-9222579D02*
X13384668Y-9203531D01*
X13384668Y-9203531D02*
X13375144Y-9174960D01*
X13375144Y-9174960D02*
X13365620Y-9127341D01*
X13365620Y-9127341D02*
X13365620Y-9089246D01*
X13365620Y-9089246D02*
X13375144Y-9041627D01*
X13375144Y-9041627D02*
X13384668Y-9013055D01*
X13384668Y-9013055D02*
X13394191Y-8994008D01*
X13394191Y-8994008D02*
X13413239Y-8965436D01*
X13413239Y-8965436D02*
X13422763Y-8955912D01*
X13527525Y-9070198D02*
X13508477Y-9060674D01*
X13508477Y-9060674D02*
X13498953Y-9051150D01*
X13498953Y-9051150D02*
X13489429Y-9032103D01*
X13489429Y-9032103D02*
X13489429Y-9022579D01*
X13489429Y-9022579D02*
X13498953Y-9003531D01*
X13498953Y-9003531D02*
X13508477Y-8994008D01*
X13508477Y-8994008D02*
X13527525Y-8984484D01*
X13527525Y-8984484D02*
X13565620Y-8984484D01*
X13565620Y-8984484D02*
X13584668Y-8994008D01*
X13584668Y-8994008D02*
X13594191Y-9003531D01*
X13594191Y-9003531D02*
X13603715Y-9022579D01*
X13603715Y-9022579D02*
X13603715Y-9032103D01*
X13603715Y-9032103D02*
X13594191Y-9051150D01*
X13594191Y-9051150D02*
X13584668Y-9060674D01*
X13584668Y-9060674D02*
X13565620Y-9070198D01*
X13565620Y-9070198D02*
X13527525Y-9070198D01*
X13527525Y-9070198D02*
X13508477Y-9079722D01*
X13508477Y-9079722D02*
X13498953Y-9089246D01*
X13498953Y-9089246D02*
X13489429Y-9108293D01*
X13489429Y-9108293D02*
X13489429Y-9146389D01*
X13489429Y-9146389D02*
X13498953Y-9165436D01*
X13498953Y-9165436D02*
X13508477Y-9174960D01*
X13508477Y-9174960D02*
X13527525Y-9184484D01*
X13527525Y-9184484D02*
X13565620Y-9184484D01*
X13565620Y-9184484D02*
X13584668Y-9174960D01*
X13584668Y-9174960D02*
X13594191Y-9165436D01*
X13594191Y-9165436D02*
X13603715Y-9146389D01*
X13603715Y-9146389D02*
X13603715Y-9108293D01*
X13603715Y-9108293D02*
X13594191Y-9089246D01*
X13594191Y-9089246D02*
X13584668Y-9079722D01*
X13584668Y-9079722D02*
X13565620Y-9070198D01*
X13841810Y-9184484D02*
X13841810Y-8984484D01*
X13927525Y-9184484D02*
X13927525Y-9079722D01*
X13927525Y-9079722D02*
X13918001Y-9060674D01*
X13918001Y-9060674D02*
X13898953Y-9051150D01*
X13898953Y-9051150D02*
X13870382Y-9051150D01*
X13870382Y-9051150D02*
X13851334Y-9060674D01*
X13851334Y-9060674D02*
X13841810Y-9070198D01*
X14051334Y-9184484D02*
X14032287Y-9174960D01*
X14032287Y-9174960D02*
X14022763Y-9165436D01*
X14022763Y-9165436D02*
X14013239Y-9146389D01*
X14013239Y-9146389D02*
X14013239Y-9089246D01*
X14013239Y-9089246D02*
X14022763Y-9070198D01*
X14022763Y-9070198D02*
X14032287Y-9060674D01*
X14032287Y-9060674D02*
X14051334Y-9051150D01*
X14051334Y-9051150D02*
X14079906Y-9051150D01*
X14079906Y-9051150D02*
X14098953Y-9060674D01*
X14098953Y-9060674D02*
X14108477Y-9070198D01*
X14108477Y-9070198D02*
X14118001Y-9089246D01*
X14118001Y-9089246D02*
X14118001Y-9146389D01*
X14118001Y-9146389D02*
X14108477Y-9165436D01*
X14108477Y-9165436D02*
X14098953Y-9174960D01*
X14098953Y-9174960D02*
X14079906Y-9184484D01*
X14079906Y-9184484D02*
X14051334Y-9184484D01*
X14232287Y-9184484D02*
X14213239Y-9174960D01*
X14213239Y-9174960D02*
X14203715Y-9155912D01*
X14203715Y-9155912D02*
X14203715Y-8984484D01*
X14384668Y-9174960D02*
X14365620Y-9184484D01*
X14365620Y-9184484D02*
X14327525Y-9184484D01*
X14327525Y-9184484D02*
X14308477Y-9174960D01*
X14308477Y-9174960D02*
X14298953Y-9155912D01*
X14298953Y-9155912D02*
X14298953Y-9079722D01*
X14298953Y-9079722D02*
X14308477Y-9060674D01*
X14308477Y-9060674D02*
X14327525Y-9051150D01*
X14327525Y-9051150D02*
X14365620Y-9051150D01*
X14365620Y-9051150D02*
X14384668Y-9060674D01*
X14384668Y-9060674D02*
X14394191Y-9079722D01*
X14394191Y-9079722D02*
X14394191Y-9098770D01*
X14394191Y-9098770D02*
X14298953Y-9117817D01*
X14470382Y-9174960D02*
X14489430Y-9184484D01*
X14489430Y-9184484D02*
X14527525Y-9184484D01*
X14527525Y-9184484D02*
X14546572Y-9174960D01*
X14546572Y-9174960D02*
X14556096Y-9155912D01*
X14556096Y-9155912D02*
X14556096Y-9146389D01*
X14556096Y-9146389D02*
X14546572Y-9127341D01*
X14546572Y-9127341D02*
X14527525Y-9117817D01*
X14527525Y-9117817D02*
X14498953Y-9117817D01*
X14498953Y-9117817D02*
X14479906Y-9108293D01*
X14479906Y-9108293D02*
X14470382Y-9089246D01*
X14470382Y-9089246D02*
X14470382Y-9079722D01*
X14470382Y-9079722D02*
X14479906Y-9060674D01*
X14479906Y-9060674D02*
X14498953Y-9051150D01*
X14498953Y-9051150D02*
X14527525Y-9051150D01*
X14527525Y-9051150D02*
X14546572Y-9060674D01*
X14622763Y-9260674D02*
X14632287Y-9251150D01*
X14632287Y-9251150D02*
X14651334Y-9222579D01*
X14651334Y-9222579D02*
X14660858Y-9203531D01*
X14660858Y-9203531D02*
X14670382Y-9174960D01*
X14670382Y-9174960D02*
X14679906Y-9127341D01*
X14679906Y-9127341D02*
X14679906Y-9089246D01*
X14679906Y-9089246D02*
X14670382Y-9041627D01*
X14670382Y-9041627D02*
X14660858Y-9013055D01*
X14660858Y-9013055D02*
X14651334Y-8994008D01*
X14651334Y-8994008D02*
X14632287Y-8965436D01*
X14632287Y-8965436D02*
X14622763Y-8955912D01*
D12*
X9847700Y-9357000D02*
G75*
G02*
X9747700Y-9357000I-50000J0D01*
G01*
X9747700Y-9357000D02*
G75*
G02*
X9847700Y-9357000I50000J0D01*
G01*
D11*
X10213239Y-9448484D02*
X10098953Y-9448484D01*
X10156096Y-9448484D02*
X10156096Y-9248484D01*
X10156096Y-9248484D02*
X10137048Y-9277055D01*
X10137048Y-9277055D02*
X10118001Y-9296103D01*
X10118001Y-9296103D02*
X10098953Y-9305627D01*
X10298953Y-9429436D02*
X10308477Y-9438960D01*
X10308477Y-9438960D02*
X10298953Y-9448484D01*
X10298953Y-9448484D02*
X10289429Y-9438960D01*
X10289429Y-9438960D02*
X10298953Y-9429436D01*
X10298953Y-9429436D02*
X10298953Y-9448484D01*
X10432286Y-9248484D02*
X10451334Y-9248484D01*
X10451334Y-9248484D02*
X10470382Y-9258008D01*
X10470382Y-9258008D02*
X10479905Y-9267531D01*
X10479905Y-9267531D02*
X10489429Y-9286579D01*
X10489429Y-9286579D02*
X10498953Y-9324674D01*
X10498953Y-9324674D02*
X10498953Y-9372293D01*
X10498953Y-9372293D02*
X10489429Y-9410389D01*
X10489429Y-9410389D02*
X10479905Y-9429436D01*
X10479905Y-9429436D02*
X10470382Y-9438960D01*
X10470382Y-9438960D02*
X10451334Y-9448484D01*
X10451334Y-9448484D02*
X10432286Y-9448484D01*
X10432286Y-9448484D02*
X10413239Y-9438960D01*
X10413239Y-9438960D02*
X10403715Y-9429436D01*
X10403715Y-9429436D02*
X10394191Y-9410389D01*
X10394191Y-9410389D02*
X10384667Y-9372293D01*
X10384667Y-9372293D02*
X10384667Y-9324674D01*
X10384667Y-9324674D02*
X10394191Y-9286579D01*
X10394191Y-9286579D02*
X10403715Y-9267531D01*
X10403715Y-9267531D02*
X10413239Y-9258008D01*
X10413239Y-9258008D02*
X10432286Y-9248484D01*
X10622763Y-9248484D02*
X10641810Y-9248484D01*
X10641810Y-9248484D02*
X10660858Y-9258008D01*
X10660858Y-9258008D02*
X10670382Y-9267531D01*
X10670382Y-9267531D02*
X10679905Y-9286579D01*
X10679905Y-9286579D02*
X10689429Y-9324674D01*
X10689429Y-9324674D02*
X10689429Y-9372293D01*
X10689429Y-9372293D02*
X10679905Y-9410389D01*
X10679905Y-9410389D02*
X10670382Y-9429436D01*
X10670382Y-9429436D02*
X10660858Y-9438960D01*
X10660858Y-9438960D02*
X10641810Y-9448484D01*
X10641810Y-9448484D02*
X10622763Y-9448484D01*
X10622763Y-9448484D02*
X10603715Y-9438960D01*
X10603715Y-9438960D02*
X10594191Y-9429436D01*
X10594191Y-9429436D02*
X10584667Y-9410389D01*
X10584667Y-9410389D02*
X10575144Y-9372293D01*
X10575144Y-9372293D02*
X10575144Y-9324674D01*
X10575144Y-9324674D02*
X10584667Y-9286579D01*
X10584667Y-9286579D02*
X10594191Y-9267531D01*
X10594191Y-9267531D02*
X10603715Y-9258008D01*
X10603715Y-9258008D02*
X10622763Y-9248484D01*
X10813239Y-9248484D02*
X10832286Y-9248484D01*
X10832286Y-9248484D02*
X10851334Y-9258008D01*
X10851334Y-9258008D02*
X10860858Y-9267531D01*
X10860858Y-9267531D02*
X10870382Y-9286579D01*
X10870382Y-9286579D02*
X10879905Y-9324674D01*
X10879905Y-9324674D02*
X10879905Y-9372293D01*
X10879905Y-9372293D02*
X10870382Y-9410389D01*
X10870382Y-9410389D02*
X10860858Y-9429436D01*
X10860858Y-9429436D02*
X10851334Y-9438960D01*
X10851334Y-9438960D02*
X10832286Y-9448484D01*
X10832286Y-9448484D02*
X10813239Y-9448484D01*
X10813239Y-9448484D02*
X10794191Y-9438960D01*
X10794191Y-9438960D02*
X10784667Y-9429436D01*
X10784667Y-9429436D02*
X10775144Y-9410389D01*
X10775144Y-9410389D02*
X10765620Y-9372293D01*
X10765620Y-9372293D02*
X10765620Y-9324674D01*
X10765620Y-9324674D02*
X10775144Y-9286579D01*
X10775144Y-9286579D02*
X10784667Y-9267531D01*
X10784667Y-9267531D02*
X10794191Y-9258008D01*
X10794191Y-9258008D02*
X10813239Y-9248484D01*
X10965620Y-9448484D02*
X10965620Y-9315150D01*
X10965620Y-9334198D02*
X10975144Y-9324674D01*
X10975144Y-9324674D02*
X10994191Y-9315150D01*
X10994191Y-9315150D02*
X11022763Y-9315150D01*
X11022763Y-9315150D02*
X11041810Y-9324674D01*
X11041810Y-9324674D02*
X11051334Y-9343722D01*
X11051334Y-9343722D02*
X11051334Y-9448484D01*
X11051334Y-9343722D02*
X11060858Y-9324674D01*
X11060858Y-9324674D02*
X11079905Y-9315150D01*
X11079905Y-9315150D02*
X11108477Y-9315150D01*
X11108477Y-9315150D02*
X11127525Y-9324674D01*
X11127525Y-9324674D02*
X11137048Y-9343722D01*
X11137048Y-9343722D02*
X11137048Y-9448484D01*
X11232286Y-9448484D02*
X11232286Y-9315150D01*
X11232286Y-9334198D02*
X11241810Y-9324674D01*
X11241810Y-9324674D02*
X11260858Y-9315150D01*
X11260858Y-9315150D02*
X11289429Y-9315150D01*
X11289429Y-9315150D02*
X11308477Y-9324674D01*
X11308477Y-9324674D02*
X11318001Y-9343722D01*
X11318001Y-9343722D02*
X11318001Y-9448484D01*
X11318001Y-9343722D02*
X11327524Y-9324674D01*
X11327524Y-9324674D02*
X11346572Y-9315150D01*
X11346572Y-9315150D02*
X11375143Y-9315150D01*
X11375143Y-9315150D02*
X11394191Y-9324674D01*
X11394191Y-9324674D02*
X11403715Y-9343722D01*
X11403715Y-9343722D02*
X11403715Y-9448484D01*
X11794191Y-9238960D02*
X11622763Y-9496103D01*
X12051334Y-9248484D02*
X12070382Y-9248484D01*
X12070382Y-9248484D02*
X12089429Y-9258008D01*
X12089429Y-9258008D02*
X12098953Y-9267531D01*
X12098953Y-9267531D02*
X12108477Y-9286579D01*
X12108477Y-9286579D02*
X12118001Y-9324674D01*
X12118001Y-9324674D02*
X12118001Y-9372293D01*
X12118001Y-9372293D02*
X12108477Y-9410389D01*
X12108477Y-9410389D02*
X12098953Y-9429436D01*
X12098953Y-9429436D02*
X12089429Y-9438960D01*
X12089429Y-9438960D02*
X12070382Y-9448484D01*
X12070382Y-9448484D02*
X12051334Y-9448484D01*
X12051334Y-9448484D02*
X12032286Y-9438960D01*
X12032286Y-9438960D02*
X12022763Y-9429436D01*
X12022763Y-9429436D02*
X12013239Y-9410389D01*
X12013239Y-9410389D02*
X12003715Y-9372293D01*
X12003715Y-9372293D02*
X12003715Y-9324674D01*
X12003715Y-9324674D02*
X12013239Y-9286579D01*
X12013239Y-9286579D02*
X12022763Y-9267531D01*
X12022763Y-9267531D02*
X12032286Y-9258008D01*
X12032286Y-9258008D02*
X12051334Y-9248484D01*
X12203715Y-9429436D02*
X12213239Y-9438960D01*
X12213239Y-9438960D02*
X12203715Y-9448484D01*
X12203715Y-9448484D02*
X12194191Y-9438960D01*
X12194191Y-9438960D02*
X12203715Y-9429436D01*
X12203715Y-9429436D02*
X12203715Y-9448484D01*
X12337048Y-9248484D02*
X12356096Y-9248484D01*
X12356096Y-9248484D02*
X12375144Y-9258008D01*
X12375144Y-9258008D02*
X12384667Y-9267531D01*
X12384667Y-9267531D02*
X12394191Y-9286579D01*
X12394191Y-9286579D02*
X12403715Y-9324674D01*
X12403715Y-9324674D02*
X12403715Y-9372293D01*
X12403715Y-9372293D02*
X12394191Y-9410389D01*
X12394191Y-9410389D02*
X12384667Y-9429436D01*
X12384667Y-9429436D02*
X12375144Y-9438960D01*
X12375144Y-9438960D02*
X12356096Y-9448484D01*
X12356096Y-9448484D02*
X12337048Y-9448484D01*
X12337048Y-9448484D02*
X12318001Y-9438960D01*
X12318001Y-9438960D02*
X12308477Y-9429436D01*
X12308477Y-9429436D02*
X12298953Y-9410389D01*
X12298953Y-9410389D02*
X12289429Y-9372293D01*
X12289429Y-9372293D02*
X12289429Y-9324674D01*
X12289429Y-9324674D02*
X12298953Y-9286579D01*
X12298953Y-9286579D02*
X12308477Y-9267531D01*
X12308477Y-9267531D02*
X12318001Y-9258008D01*
X12318001Y-9258008D02*
X12337048Y-9248484D01*
X12470382Y-9248484D02*
X12594191Y-9248484D01*
X12594191Y-9248484D02*
X12527525Y-9324674D01*
X12527525Y-9324674D02*
X12556096Y-9324674D01*
X12556096Y-9324674D02*
X12575144Y-9334198D01*
X12575144Y-9334198D02*
X12584667Y-9343722D01*
X12584667Y-9343722D02*
X12594191Y-9362770D01*
X12594191Y-9362770D02*
X12594191Y-9410389D01*
X12594191Y-9410389D02*
X12584667Y-9429436D01*
X12584667Y-9429436D02*
X12575144Y-9438960D01*
X12575144Y-9438960D02*
X12556096Y-9448484D01*
X12556096Y-9448484D02*
X12498953Y-9448484D01*
X12498953Y-9448484D02*
X12479906Y-9438960D01*
X12479906Y-9438960D02*
X12470382Y-9429436D01*
X12689429Y-9448484D02*
X12727525Y-9448484D01*
X12727525Y-9448484D02*
X12746572Y-9438960D01*
X12746572Y-9438960D02*
X12756096Y-9429436D01*
X12756096Y-9429436D02*
X12775144Y-9400865D01*
X12775144Y-9400865D02*
X12784667Y-9362770D01*
X12784667Y-9362770D02*
X12784667Y-9286579D01*
X12784667Y-9286579D02*
X12775144Y-9267531D01*
X12775144Y-9267531D02*
X12765620Y-9258008D01*
X12765620Y-9258008D02*
X12746572Y-9248484D01*
X12746572Y-9248484D02*
X12708477Y-9248484D01*
X12708477Y-9248484D02*
X12689429Y-9258008D01*
X12689429Y-9258008D02*
X12679906Y-9267531D01*
X12679906Y-9267531D02*
X12670382Y-9286579D01*
X12670382Y-9286579D02*
X12670382Y-9334198D01*
X12670382Y-9334198D02*
X12679906Y-9353246D01*
X12679906Y-9353246D02*
X12689429Y-9362770D01*
X12689429Y-9362770D02*
X12708477Y-9372293D01*
X12708477Y-9372293D02*
X12746572Y-9372293D01*
X12746572Y-9372293D02*
X12765620Y-9362770D01*
X12765620Y-9362770D02*
X12775144Y-9353246D01*
X12775144Y-9353246D02*
X12784667Y-9334198D01*
X12956096Y-9315150D02*
X12956096Y-9448484D01*
X12908477Y-9238960D02*
X12860858Y-9381817D01*
X12860858Y-9381817D02*
X12984667Y-9381817D01*
X13051334Y-9248484D02*
X13051334Y-9286579D01*
X13127525Y-9248484D02*
X13127525Y-9286579D01*
X13422763Y-9524674D02*
X13413239Y-9515150D01*
X13413239Y-9515150D02*
X13394191Y-9486579D01*
X13394191Y-9486579D02*
X13384668Y-9467531D01*
X13384668Y-9467531D02*
X13375144Y-9438960D01*
X13375144Y-9438960D02*
X13365620Y-9391341D01*
X13365620Y-9391341D02*
X13365620Y-9353246D01*
X13365620Y-9353246D02*
X13375144Y-9305627D01*
X13375144Y-9305627D02*
X13384668Y-9277055D01*
X13384668Y-9277055D02*
X13394191Y-9258008D01*
X13394191Y-9258008D02*
X13413239Y-9229436D01*
X13413239Y-9229436D02*
X13422763Y-9219912D01*
X13479906Y-9248484D02*
X13603715Y-9248484D01*
X13603715Y-9248484D02*
X13537048Y-9324674D01*
X13537048Y-9324674D02*
X13565620Y-9324674D01*
X13565620Y-9324674D02*
X13584668Y-9334198D01*
X13584668Y-9334198D02*
X13594191Y-9343722D01*
X13594191Y-9343722D02*
X13603715Y-9362770D01*
X13603715Y-9362770D02*
X13603715Y-9410389D01*
X13603715Y-9410389D02*
X13594191Y-9429436D01*
X13594191Y-9429436D02*
X13584668Y-9438960D01*
X13584668Y-9438960D02*
X13565620Y-9448484D01*
X13565620Y-9448484D02*
X13508477Y-9448484D01*
X13508477Y-9448484D02*
X13489429Y-9438960D01*
X13489429Y-9438960D02*
X13479906Y-9429436D01*
X13775144Y-9248484D02*
X13737048Y-9248484D01*
X13737048Y-9248484D02*
X13718001Y-9258008D01*
X13718001Y-9258008D02*
X13708477Y-9267531D01*
X13708477Y-9267531D02*
X13689429Y-9296103D01*
X13689429Y-9296103D02*
X13679906Y-9334198D01*
X13679906Y-9334198D02*
X13679906Y-9410389D01*
X13679906Y-9410389D02*
X13689429Y-9429436D01*
X13689429Y-9429436D02*
X13698953Y-9438960D01*
X13698953Y-9438960D02*
X13718001Y-9448484D01*
X13718001Y-9448484D02*
X13756096Y-9448484D01*
X13756096Y-9448484D02*
X13775144Y-9438960D01*
X13775144Y-9438960D02*
X13784668Y-9429436D01*
X13784668Y-9429436D02*
X13794191Y-9410389D01*
X13794191Y-9410389D02*
X13794191Y-9362770D01*
X13794191Y-9362770D02*
X13784668Y-9343722D01*
X13784668Y-9343722D02*
X13775144Y-9334198D01*
X13775144Y-9334198D02*
X13756096Y-9324674D01*
X13756096Y-9324674D02*
X13718001Y-9324674D01*
X13718001Y-9324674D02*
X13698953Y-9334198D01*
X13698953Y-9334198D02*
X13689429Y-9343722D01*
X13689429Y-9343722D02*
X13679906Y-9362770D01*
X14032287Y-9448484D02*
X14032287Y-9248484D01*
X14118001Y-9448484D02*
X14118001Y-9343722D01*
X14118001Y-9343722D02*
X14108477Y-9324674D01*
X14108477Y-9324674D02*
X14089430Y-9315150D01*
X14089430Y-9315150D02*
X14060858Y-9315150D01*
X14060858Y-9315150D02*
X14041810Y-9324674D01*
X14041810Y-9324674D02*
X14032287Y-9334198D01*
X14241810Y-9448484D02*
X14222763Y-9438960D01*
X14222763Y-9438960D02*
X14213239Y-9429436D01*
X14213239Y-9429436D02*
X14203715Y-9410389D01*
X14203715Y-9410389D02*
X14203715Y-9353246D01*
X14203715Y-9353246D02*
X14213239Y-9334198D01*
X14213239Y-9334198D02*
X14222763Y-9324674D01*
X14222763Y-9324674D02*
X14241810Y-9315150D01*
X14241810Y-9315150D02*
X14270382Y-9315150D01*
X14270382Y-9315150D02*
X14289430Y-9324674D01*
X14289430Y-9324674D02*
X14298953Y-9334198D01*
X14298953Y-9334198D02*
X14308477Y-9353246D01*
X14308477Y-9353246D02*
X14308477Y-9410389D01*
X14308477Y-9410389D02*
X14298953Y-9429436D01*
X14298953Y-9429436D02*
X14289430Y-9438960D01*
X14289430Y-9438960D02*
X14270382Y-9448484D01*
X14270382Y-9448484D02*
X14241810Y-9448484D01*
X14422763Y-9448484D02*
X14403715Y-9438960D01*
X14403715Y-9438960D02*
X14394191Y-9419912D01*
X14394191Y-9419912D02*
X14394191Y-9248484D01*
X14575144Y-9438960D02*
X14556096Y-9448484D01*
X14556096Y-9448484D02*
X14518001Y-9448484D01*
X14518001Y-9448484D02*
X14498953Y-9438960D01*
X14498953Y-9438960D02*
X14489430Y-9419912D01*
X14489430Y-9419912D02*
X14489430Y-9343722D01*
X14489430Y-9343722D02*
X14498953Y-9324674D01*
X14498953Y-9324674D02*
X14518001Y-9315150D01*
X14518001Y-9315150D02*
X14556096Y-9315150D01*
X14556096Y-9315150D02*
X14575144Y-9324674D01*
X14575144Y-9324674D02*
X14584668Y-9343722D01*
X14584668Y-9343722D02*
X14584668Y-9362770D01*
X14584668Y-9362770D02*
X14489430Y-9381817D01*
X14660858Y-9438960D02*
X14679906Y-9448484D01*
X14679906Y-9448484D02*
X14718001Y-9448484D01*
X14718001Y-9448484D02*
X14737049Y-9438960D01*
X14737049Y-9438960D02*
X14746572Y-9419912D01*
X14746572Y-9419912D02*
X14746572Y-9410389D01*
X14746572Y-9410389D02*
X14737049Y-9391341D01*
X14737049Y-9391341D02*
X14718001Y-9381817D01*
X14718001Y-9381817D02*
X14689430Y-9381817D01*
X14689430Y-9381817D02*
X14670382Y-9372293D01*
X14670382Y-9372293D02*
X14660858Y-9353246D01*
X14660858Y-9353246D02*
X14660858Y-9343722D01*
X14660858Y-9343722D02*
X14670382Y-9324674D01*
X14670382Y-9324674D02*
X14689430Y-9315150D01*
X14689430Y-9315150D02*
X14718001Y-9315150D01*
X14718001Y-9315150D02*
X14737049Y-9324674D01*
X14813239Y-9524674D02*
X14822763Y-9515150D01*
X14822763Y-9515150D02*
X14841811Y-9486579D01*
X14841811Y-9486579D02*
X14851334Y-9467531D01*
X14851334Y-9467531D02*
X14860858Y-9438960D01*
X14860858Y-9438960D02*
X14870382Y-9391341D01*
X14870382Y-9391341D02*
X14870382Y-9353246D01*
X14870382Y-9353246D02*
X14860858Y-9305627D01*
X14860858Y-9305627D02*
X14851334Y-9277055D01*
X14851334Y-9277055D02*
X14841811Y-9258008D01*
X14841811Y-9258008D02*
X14822763Y-9229436D01*
X14822763Y-9229436D02*
X14813239Y-9219912D01*
M02*
