M48
; DRILL file {KiCad 8.0.9-8.0.9-0~ubuntu24.04.1} date 2025-04-08T01:43:21+0930
; FORMAT={-:-/ absolute / metric / decimal}
; #@! TF.CreationDate,2025-04-08T01:43:21+09:30
; #@! TF.GenerationSoftware,Kicad,Pcbnew,8.0.9-8.0.9-0~ubuntu24.04.1
; #@! TF.FileFunction,Plated,1,2,PTH
FMAT,2
METRIC
; #@! TA.AperFunction,Plated,PTH,ViaDrill
T1C0.400
; #@! TA.AperFunction,Plated,PTH,ComponentDrill
T2C1.000
%
G90
G05
T1
X113.665Y-82.55
X114.935Y-76.835
X115.82Y-70.1
X116.84Y-74.155
X119.149Y-74.699
X119.38Y-77.47
X120.65Y-77.47
X121.92Y-71.12
T2
X101.6Y-69.85
X101.6Y-72.39
X101.6Y-74.93
X101.6Y-77.47
X101.6Y-80.01
X101.6Y-82.55
X104.14Y-69.85
X104.14Y-72.39
X104.14Y-74.93
X104.14Y-77.47
X104.14Y-80.01
X104.14Y-82.55
X109.22Y-69.85
X109.22Y-72.39
X109.22Y-74.93
X109.22Y-77.47
X109.22Y-80.01
X109.22Y-82.55
X111.76Y-69.85
X111.76Y-72.39
X111.76Y-74.93
X111.76Y-77.47
X111.76Y-80.01
X111.76Y-82.55
X125.73Y-69.85
X125.73Y-72.39
X125.73Y-74.93
X125.73Y-77.47
X125.73Y-80.01
X125.73Y-82.55
X128.27Y-69.85
X128.27Y-72.39
X128.27Y-74.93
X128.27Y-77.47
X128.27Y-80.01
X128.27Y-82.55
M30
