G04 #@! TF.GenerationSoftware,KiCad,Pcbnew,8.0.9-8.0.9-0~ubuntu24.04.1*
G04 #@! TF.CreationDate,2025-04-08T01:43:19+09:30*
G04 #@! TF.ProjectId,qspi-pmod-adapter,71737069-2d70-46d6-9f64-2d6164617074,rev?*
G04 #@! TF.SameCoordinates,Original*
G04 #@! TF.FileFunction,Copper,L1,Top*
G04 #@! TF.FilePolarity,Positive*
%FSLAX46Y46*%
G04 Gerber Fmt 4.6, Leading zero omitted, Abs format (unit mm)*
G04 Created by KiCad (PCBNEW 8.0.9-8.0.9-0~ubuntu24.04.1) date 2025-04-08 01:43:19*
%MOMM*%
%LPD*%
G01*
G04 APERTURE LIST*
G04 Aperture macros list*
%AMRoundRect*
0 Rectangle with rounded corners*
0 $1 Rounding radius*
0 $2 $3 $4 $5 $6 $7 $8 $9 X,Y pos of 4 corners*
0 Add a 4 corners polygon primitive as box body*
4,1,4,$2,$3,$4,$5,$6,$7,$8,$9,$2,$3,0*
0 Add four circle primitives for the rounded corners*
1,1,$1+$1,$2,$3*
1,1,$1+$1,$4,$5*
1,1,$1+$1,$6,$7*
1,1,$1+$1,$8,$9*
0 Add four rect primitives between the rounded corners*
20,1,$1+$1,$2,$3,$4,$5,0*
20,1,$1+$1,$4,$5,$6,$7,0*
20,1,$1+$1,$6,$7,$8,$9,0*
20,1,$1+$1,$8,$9,$2,$3,0*%
G04 Aperture macros list end*
G04 #@! TA.AperFunction,EtchedComponent*
%ADD10C,0.000000*%
G04 #@! TD*
G04 #@! TA.AperFunction,SMDPad,CuDef*
%ADD11C,0.500000*%
G04 #@! TD*
G04 #@! TA.AperFunction,ComponentPad*
%ADD12R,1.700000X1.700000*%
G04 #@! TD*
G04 #@! TA.AperFunction,ComponentPad*
%ADD13O,1.700000X1.700000*%
G04 #@! TD*
G04 #@! TA.AperFunction,ComponentPad*
%ADD14C,1.700000*%
G04 #@! TD*
G04 #@! TA.AperFunction,SMDPad,CuDef*
%ADD15RoundRect,0.250000X-0.337500X-0.475000X0.337500X-0.475000X0.337500X0.475000X-0.337500X0.475000X0*%
G04 #@! TD*
G04 #@! TA.AperFunction,SMDPad,CuDef*
%ADD16RoundRect,0.150000X0.150000X-0.650000X0.150000X0.650000X-0.150000X0.650000X-0.150000X-0.650000X0*%
G04 #@! TD*
G04 #@! TA.AperFunction,ViaPad*
%ADD17C,0.800000*%
G04 #@! TD*
G04 #@! TA.AperFunction,Conductor*
%ADD18C,0.350000*%
G04 #@! TD*
G04 APERTURE END LIST*
D10*
G04 #@! TA.AperFunction,EtchedComponent*
G36*
X114800000Y-71370000D02*
G01*
X113800000Y-71370000D01*
X113800000Y-70870000D01*
X114800000Y-70870000D01*
X114800000Y-71370000D01*
G37*
G04 #@! TD.AperFunction*
G04 #@! TA.AperFunction,EtchedComponent*
G36*
X114800000Y-73910000D02*
G01*
X113800000Y-73910000D01*
X113800000Y-73410000D01*
X114800000Y-73410000D01*
X114800000Y-73910000D01*
G37*
G04 #@! TD.AperFunction*
G04 #@! TA.AperFunction,EtchedComponent*
G36*
X114800000Y-72640000D02*
G01*
X113800000Y-72640000D01*
X113800000Y-72140000D01*
X114800000Y-72140000D01*
X114800000Y-72640000D01*
G37*
G04 #@! TD.AperFunction*
G04 #@! TA.AperFunction,EtchedComponent*
G36*
X113915000Y-79240000D02*
G01*
X113415000Y-79240000D01*
X113415000Y-78240000D01*
X113915000Y-78240000D01*
X113915000Y-79240000D01*
G37*
G04 #@! TD.AperFunction*
G04 #@! TA.AperFunction,EtchedComponent*
G36*
X114800000Y-75180000D02*
G01*
X113800000Y-75180000D01*
X113800000Y-74680000D01*
X114800000Y-74680000D01*
X114800000Y-75180000D01*
G37*
G04 #@! TD.AperFunction*
D11*
X113800000Y-71120000D03*
X114800000Y-71120000D03*
D12*
X109220000Y-69850000D03*
D13*
X109220000Y-72390000D03*
X109220000Y-74930000D03*
X109220000Y-77470000D03*
X109220000Y-80010000D03*
D14*
X109220000Y-82550000D03*
D13*
X111760000Y-69850000D03*
X111760000Y-72390000D03*
X111760000Y-74930000D03*
X111760000Y-77470000D03*
X111760000Y-80010000D03*
X111760000Y-82550000D03*
D11*
X113800000Y-73660000D03*
X114800000Y-73660000D03*
X113800000Y-72390000D03*
X114800000Y-72390000D03*
D15*
X114765000Y-82804000D03*
X116840000Y-82804000D03*
D11*
X113665000Y-78240000D03*
X113665000Y-79240000D03*
D16*
X117475000Y-79800000D03*
X118745000Y-79800000D03*
X120015000Y-79800000D03*
X121285000Y-79800000D03*
X121285000Y-72600000D03*
X120015000Y-72600000D03*
X118745000Y-72600000D03*
X117475000Y-72600000D03*
D12*
X125730000Y-69850000D03*
D13*
X125730000Y-72390000D03*
X125730000Y-74930000D03*
X125730000Y-77470000D03*
X125730000Y-80010000D03*
D14*
X125730000Y-82550000D03*
D13*
X128270000Y-69850000D03*
X128270000Y-72390000D03*
X128270000Y-74930000D03*
X128270000Y-77470000D03*
X128270000Y-80010000D03*
X128270000Y-82550000D03*
D11*
X113800000Y-74930000D03*
X114800000Y-74930000D03*
D12*
X104140000Y-69850000D03*
D13*
X104140000Y-72390000D03*
X104140000Y-74930000D03*
X104140000Y-77470000D03*
X104140000Y-80010000D03*
D14*
X104140000Y-82550000D03*
D13*
X101600000Y-69850000D03*
X101600000Y-72390000D03*
X101600000Y-74930000D03*
X101600000Y-77470000D03*
X101600000Y-80010000D03*
X101600000Y-82550000D03*
D17*
X113665000Y-82550000D03*
X116840000Y-74155000D03*
X119380000Y-77470000D03*
X114935000Y-76835000D03*
X115820000Y-70100000D03*
X120650000Y-77470000D03*
X121920000Y-71120000D03*
X119149492Y-74699492D03*
D18*
X113800000Y-72390000D02*
X111760000Y-72390000D01*
X110535000Y-71165000D02*
X111760000Y-72390000D01*
X101600000Y-72390000D02*
X102825000Y-71165000D01*
X102825000Y-71165000D02*
X110535000Y-71165000D01*
X101600000Y-77470000D02*
X102825000Y-76245000D01*
X111760000Y-77470000D02*
X112895000Y-77470000D01*
X102825000Y-76245000D02*
X110535000Y-76245000D01*
X110535000Y-76245000D02*
X111760000Y-77470000D01*
X112895000Y-77470000D02*
X113665000Y-78240000D01*
X109220000Y-69850000D02*
X109997818Y-69850000D01*
X111267818Y-71120000D02*
X113800000Y-71120000D01*
X104140000Y-69850000D02*
X109220000Y-69850000D01*
X109997818Y-69850000D02*
X111267818Y-71120000D01*
X113800000Y-73660000D02*
X111267818Y-73660000D01*
X104140000Y-72390000D02*
X109220000Y-72390000D01*
X109997818Y-72390000D02*
X109220000Y-72390000D01*
X111267818Y-73660000D02*
X109997818Y-72390000D01*
X113665000Y-82550000D02*
X114511000Y-82550000D01*
X111760000Y-82550000D02*
X113665000Y-82550000D01*
X125730000Y-82550000D02*
X128270000Y-82550000D01*
X101600000Y-82550000D02*
X111760000Y-82550000D01*
X115865000Y-83904000D02*
X124376000Y-83904000D01*
X114765000Y-82804000D02*
X115865000Y-83904000D01*
X116840000Y-73235000D02*
X117475000Y-72600000D01*
X114511000Y-82550000D02*
X114765000Y-82804000D01*
X116840000Y-74155000D02*
X116840000Y-73235000D01*
X124376000Y-83904000D02*
X125730000Y-82550000D01*
X121285000Y-79800000D02*
X125520000Y-79800000D01*
X121285000Y-80599999D02*
X121285000Y-79800000D01*
X115740000Y-81704000D02*
X116840000Y-82804000D01*
X111760000Y-80010000D02*
X113454000Y-81704000D01*
X113454000Y-81704000D02*
X115740000Y-81704000D01*
X101600000Y-80010000D02*
X111760000Y-80010000D01*
X125520000Y-79800000D02*
X125730000Y-80010000D01*
X119080999Y-82804000D02*
X121285000Y-80599999D01*
X116840000Y-82804000D02*
X119080999Y-82804000D01*
X104140000Y-77470000D02*
X109220000Y-77470000D01*
X110535000Y-68625000D02*
X111760000Y-69850000D01*
X102825000Y-68625000D02*
X110535000Y-68625000D01*
X101600000Y-69850000D02*
X102825000Y-68625000D01*
X101600000Y-74930000D02*
X102825000Y-73705000D01*
X110535000Y-73705000D02*
X111760000Y-74930000D01*
X102825000Y-73705000D02*
X110535000Y-73705000D01*
X113800000Y-74930000D02*
X111760000Y-74930000D01*
X104140000Y-74930000D02*
X109220000Y-74930000D01*
X119380000Y-77470000D02*
X118745000Y-78105000D01*
X114800000Y-74930000D02*
X118745000Y-78875000D01*
X118745000Y-78105000D02*
X118745000Y-79800000D01*
X118745000Y-78875000D02*
X118745000Y-79800000D01*
X114935000Y-76835000D02*
X117475000Y-79375000D01*
X116070000Y-69850000D02*
X115820000Y-70100000D01*
X125730000Y-69850000D02*
X116070000Y-69850000D01*
X115820000Y-70100000D02*
X114800000Y-71120000D01*
X117475000Y-79375000D02*
X117475000Y-79800000D01*
X115400000Y-80975000D02*
X119116618Y-80975000D01*
X120015000Y-80076618D02*
X120015000Y-79800000D01*
X119116618Y-80975000D02*
X120015000Y-80076618D01*
X120015000Y-78105000D02*
X120015000Y-79800000D01*
X113665000Y-79240000D02*
X115400000Y-80975000D01*
X120650000Y-77470000D02*
X120015000Y-78105000D01*
X120015000Y-72600000D02*
X120015000Y-73399999D01*
X119380000Y-75565000D02*
X120015000Y-74930000D01*
X120015000Y-73399999D02*
X124085001Y-77470000D01*
X114800000Y-73660000D02*
X116705000Y-75565000D01*
X124085001Y-77470000D02*
X125730000Y-77470000D01*
X120015000Y-74930000D02*
X120015000Y-73399999D01*
X116705000Y-75565000D02*
X119380000Y-75565000D01*
X128270000Y-72390000D02*
X127000000Y-71120000D01*
X118745000Y-74295000D02*
X118745000Y-72600000D01*
X119149492Y-74699492D02*
X118745000Y-74295000D01*
X127000000Y-71120000D02*
X121920000Y-71120000D01*
X120608908Y-71123909D02*
X116066091Y-71123909D01*
X121285000Y-71800001D02*
X120608908Y-71123909D01*
X125730000Y-72390000D02*
X121495000Y-72390000D01*
X121495000Y-72390000D02*
X121285000Y-72600000D01*
X116066091Y-71123909D02*
X114800000Y-72390000D01*
X121285000Y-72600000D02*
X121285000Y-71800001D01*
M02*
