G04 #@! TF.GenerationSoftware,KiCad,Pcbnew,8.0.9-8.0.9-0~ubuntu24.04.1*
G04 #@! TF.CreationDate,2025-04-27T15:56:27+09:30*
G04 #@! TF.ProjectId,qspi-pmod-adapter,71737069-2d70-46d6-9f64-2d6164617074,rev?*
G04 #@! TF.SameCoordinates,Original*
G04 #@! TF.FileFunction,Legend,Top*
G04 #@! TF.FilePolarity,Positive*
%FSLAX46Y46*%
G04 Gerber Fmt 4.6, Leading zero omitted, Abs format (unit mm)*
G04 Created by KiCad (PCBNEW 8.0.9-8.0.9-0~ubuntu24.04.1) date 2025-04-27 15:56:27*
%MOMM*%
%LPD*%
G01*
G04 APERTURE LIST*
G04 Aperture macros list*
%AMRoundRect*
0 Rectangle with rounded corners*
0 $1 Rounding radius*
0 $2 $3 $4 $5 $6 $7 $8 $9 X,Y pos of 4 corners*
0 Add a 4 corners polygon primitive as box body*
4,1,4,$2,$3,$4,$5,$6,$7,$8,$9,$2,$3,0*
0 Add four circle primitives for the rounded corners*
1,1,$1+$1,$2,$3*
1,1,$1+$1,$4,$5*
1,1,$1+$1,$6,$7*
1,1,$1+$1,$8,$9*
0 Add four rect primitives between the rounded corners*
20,1,$1+$1,$2,$3,$4,$5,0*
20,1,$1+$1,$4,$5,$6,$7,0*
20,1,$1+$1,$6,$7,$8,$9,0*
20,1,$1+$1,$8,$9,$2,$3,0*%
G04 Aperture macros list end*
%ADD10C,0.100000*%
%ADD11C,0.200000*%
%ADD12C,0.150000*%
%ADD13C,0.300000*%
%ADD14C,0.120000*%
%ADD15C,0.350000*%
%ADD16O,1.700000X1.700000*%
%ADD17C,1.700000*%
%ADD18R,1.700000X1.700000*%
%ADD19RoundRect,0.250000X-0.350000X-0.450000X0.350000X-0.450000X0.350000X0.450000X-0.350000X0.450000X0*%
%ADD20RoundRect,0.250000X0.350000X0.450000X-0.350000X0.450000X-0.350000X-0.450000X0.350000X-0.450000X0*%
%ADD21RoundRect,0.250000X0.325000X0.450000X-0.325000X0.450000X-0.325000X-0.450000X0.325000X-0.450000X0*%
%ADD22RoundRect,0.250000X-0.325000X-0.450000X0.325000X-0.450000X0.325000X0.450000X-0.325000X0.450000X0*%
%ADD23RoundRect,0.150000X0.150000X-0.650000X0.150000X0.650000X-0.150000X0.650000X-0.150000X-0.650000X0*%
G04 APERTURE END LIST*
D10*
X123036190Y-72912760D02*
X122998095Y-72988950D01*
X122998095Y-72988950D02*
X122998095Y-73103236D01*
X122998095Y-73103236D02*
X123036190Y-73217522D01*
X123036190Y-73217522D02*
X123112380Y-73293712D01*
X123112380Y-73293712D02*
X123188571Y-73331807D01*
X123188571Y-73331807D02*
X123340952Y-73369903D01*
X123340952Y-73369903D02*
X123455238Y-73369903D01*
X123455238Y-73369903D02*
X123607619Y-73331807D01*
X123607619Y-73331807D02*
X123683809Y-73293712D01*
X123683809Y-73293712D02*
X123760000Y-73217522D01*
X123760000Y-73217522D02*
X123798095Y-73103236D01*
X123798095Y-73103236D02*
X123798095Y-73027045D01*
X123798095Y-73027045D02*
X123760000Y-72912760D01*
X123760000Y-72912760D02*
X123721904Y-72874664D01*
X123721904Y-72874664D02*
X123455238Y-72874664D01*
X123455238Y-72874664D02*
X123455238Y-73027045D01*
X123798095Y-72531807D02*
X122998095Y-72531807D01*
X122998095Y-72531807D02*
X123798095Y-72074664D01*
X123798095Y-72074664D02*
X122998095Y-72074664D01*
X123798095Y-71693712D02*
X122998095Y-71693712D01*
X122998095Y-71693712D02*
X122998095Y-71503236D01*
X122998095Y-71503236D02*
X123036190Y-71388950D01*
X123036190Y-71388950D02*
X123112380Y-71312760D01*
X123112380Y-71312760D02*
X123188571Y-71274665D01*
X123188571Y-71274665D02*
X123340952Y-71236569D01*
X123340952Y-71236569D02*
X123455238Y-71236569D01*
X123455238Y-71236569D02*
X123607619Y-71274665D01*
X123607619Y-71274665D02*
X123683809Y-71312760D01*
X123683809Y-71312760D02*
X123760000Y-71388950D01*
X123760000Y-71388950D02*
X123798095Y-71503236D01*
X123798095Y-71503236D02*
X123798095Y-71693712D01*
X118171487Y-84644095D02*
X118438154Y-85444095D01*
X118438154Y-85444095D02*
X118704820Y-84644095D01*
X119428630Y-85367904D02*
X119390534Y-85406000D01*
X119390534Y-85406000D02*
X119276249Y-85444095D01*
X119276249Y-85444095D02*
X119200058Y-85444095D01*
X119200058Y-85444095D02*
X119085772Y-85406000D01*
X119085772Y-85406000D02*
X119009582Y-85329809D01*
X119009582Y-85329809D02*
X118971487Y-85253619D01*
X118971487Y-85253619D02*
X118933391Y-85101238D01*
X118933391Y-85101238D02*
X118933391Y-84986952D01*
X118933391Y-84986952D02*
X118971487Y-84834571D01*
X118971487Y-84834571D02*
X119009582Y-84758380D01*
X119009582Y-84758380D02*
X119085772Y-84682190D01*
X119085772Y-84682190D02*
X119200058Y-84644095D01*
X119200058Y-84644095D02*
X119276249Y-84644095D01*
X119276249Y-84644095D02*
X119390534Y-84682190D01*
X119390534Y-84682190D02*
X119428630Y-84720285D01*
X120228630Y-85367904D02*
X120190534Y-85406000D01*
X120190534Y-85406000D02*
X120076249Y-85444095D01*
X120076249Y-85444095D02*
X120000058Y-85444095D01*
X120000058Y-85444095D02*
X119885772Y-85406000D01*
X119885772Y-85406000D02*
X119809582Y-85329809D01*
X119809582Y-85329809D02*
X119771487Y-85253619D01*
X119771487Y-85253619D02*
X119733391Y-85101238D01*
X119733391Y-85101238D02*
X119733391Y-84986952D01*
X119733391Y-84986952D02*
X119771487Y-84834571D01*
X119771487Y-84834571D02*
X119809582Y-84758380D01*
X119809582Y-84758380D02*
X119885772Y-84682190D01*
X119885772Y-84682190D02*
X120000058Y-84644095D01*
X120000058Y-84644095D02*
X120076249Y-84644095D01*
X120076249Y-84644095D02*
X120190534Y-84682190D01*
X120190534Y-84682190D02*
X120228630Y-84720285D01*
X120242095Y-83288683D02*
X119708761Y-83288683D01*
X119861142Y-83288683D02*
X119784952Y-83250588D01*
X119784952Y-83250588D02*
X119746857Y-83212493D01*
X119746857Y-83212493D02*
X119708761Y-83136302D01*
X119708761Y-83136302D02*
X119708761Y-83060112D01*
X120204000Y-82450588D02*
X120242095Y-82526779D01*
X120242095Y-82526779D02*
X120242095Y-82679160D01*
X120242095Y-82679160D02*
X120204000Y-82755350D01*
X120204000Y-82755350D02*
X120165904Y-82793445D01*
X120165904Y-82793445D02*
X120089714Y-82831541D01*
X120089714Y-82831541D02*
X119861142Y-82831541D01*
X119861142Y-82831541D02*
X119784952Y-82793445D01*
X119784952Y-82793445D02*
X119746857Y-82755350D01*
X119746857Y-82755350D02*
X119708761Y-82679160D01*
X119708761Y-82679160D02*
X119708761Y-82526779D01*
X119708761Y-82526779D02*
X119746857Y-82450588D01*
X120204000Y-82145827D02*
X120242095Y-82069636D01*
X120242095Y-82069636D02*
X120242095Y-81917255D01*
X120242095Y-81917255D02*
X120204000Y-81841065D01*
X120204000Y-81841065D02*
X120127809Y-81802969D01*
X120127809Y-81802969D02*
X120089714Y-81802969D01*
X120089714Y-81802969D02*
X120013523Y-81841065D01*
X120013523Y-81841065D02*
X119975428Y-81917255D01*
X119975428Y-81917255D02*
X119975428Y-82031541D01*
X119975428Y-82031541D02*
X119937333Y-82107731D01*
X119937333Y-82107731D02*
X119861142Y-82145827D01*
X119861142Y-82145827D02*
X119823047Y-82145827D01*
X119823047Y-82145827D02*
X119746857Y-82107731D01*
X119746857Y-82107731D02*
X119708761Y-82031541D01*
X119708761Y-82031541D02*
X119708761Y-81917255D01*
X119708761Y-81917255D02*
X119746857Y-81841065D01*
X120242095Y-81167731D02*
X119708761Y-81167731D01*
X119861142Y-81167731D02*
X119784952Y-81129636D01*
X119784952Y-81129636D02*
X119746857Y-81091541D01*
X119746857Y-81091541D02*
X119708761Y-81015350D01*
X119708761Y-81015350D02*
X119708761Y-80939160D01*
X120204000Y-80329636D02*
X120242095Y-80405827D01*
X120242095Y-80405827D02*
X120242095Y-80558208D01*
X120242095Y-80558208D02*
X120204000Y-80634398D01*
X120204000Y-80634398D02*
X120165904Y-80672493D01*
X120165904Y-80672493D02*
X120089714Y-80710589D01*
X120089714Y-80710589D02*
X119861142Y-80710589D01*
X119861142Y-80710589D02*
X119784952Y-80672493D01*
X119784952Y-80672493D02*
X119746857Y-80634398D01*
X119746857Y-80634398D02*
X119708761Y-80558208D01*
X119708761Y-80558208D02*
X119708761Y-80405827D01*
X119708761Y-80405827D02*
X119746857Y-80329636D01*
X120242095Y-79872494D02*
X120204000Y-79948684D01*
X120204000Y-79948684D02*
X120127809Y-79986779D01*
X120127809Y-79986779D02*
X119442095Y-79986779D01*
X120242095Y-79567731D02*
X119442095Y-79567731D01*
X119937333Y-79491541D02*
X120242095Y-79262969D01*
X119708761Y-79262969D02*
X120013523Y-79567731D01*
X120242095Y-77853160D02*
X119708761Y-77853160D01*
X119861142Y-77853160D02*
X119784952Y-77815065D01*
X119784952Y-77815065D02*
X119746857Y-77776970D01*
X119746857Y-77776970D02*
X119708761Y-77700779D01*
X119708761Y-77700779D02*
X119708761Y-77624589D01*
X120242095Y-77015065D02*
X119442095Y-77015065D01*
X120204000Y-77015065D02*
X120242095Y-77091256D01*
X120242095Y-77091256D02*
X120242095Y-77243637D01*
X120242095Y-77243637D02*
X120204000Y-77319827D01*
X120204000Y-77319827D02*
X120165904Y-77357922D01*
X120165904Y-77357922D02*
X120089714Y-77396018D01*
X120089714Y-77396018D02*
X119861142Y-77396018D01*
X119861142Y-77396018D02*
X119784952Y-77357922D01*
X119784952Y-77357922D02*
X119746857Y-77319827D01*
X119746857Y-77319827D02*
X119708761Y-77243637D01*
X119708761Y-77243637D02*
X119708761Y-77091256D01*
X119708761Y-77091256D02*
X119746857Y-77015065D01*
X120242095Y-75757579D02*
X119708761Y-75757579D01*
X119442095Y-75757579D02*
X119480190Y-75795675D01*
X119480190Y-75795675D02*
X119518285Y-75757579D01*
X119518285Y-75757579D02*
X119480190Y-75719484D01*
X119480190Y-75719484D02*
X119442095Y-75757579D01*
X119442095Y-75757579D02*
X119518285Y-75757579D01*
X120242095Y-75262342D02*
X120204000Y-75338532D01*
X120204000Y-75338532D02*
X120165904Y-75376627D01*
X120165904Y-75376627D02*
X120089714Y-75414723D01*
X120089714Y-75414723D02*
X119861142Y-75414723D01*
X119861142Y-75414723D02*
X119784952Y-75376627D01*
X119784952Y-75376627D02*
X119746857Y-75338532D01*
X119746857Y-75338532D02*
X119708761Y-75262342D01*
X119708761Y-75262342D02*
X119708761Y-75148056D01*
X119708761Y-75148056D02*
X119746857Y-75071865D01*
X119746857Y-75071865D02*
X119784952Y-75033770D01*
X119784952Y-75033770D02*
X119861142Y-74995675D01*
X119861142Y-74995675D02*
X120089714Y-74995675D01*
X120089714Y-74995675D02*
X120165904Y-75033770D01*
X120165904Y-75033770D02*
X120204000Y-75071865D01*
X120204000Y-75071865D02*
X120242095Y-75148056D01*
X120242095Y-75148056D02*
X120242095Y-75262342D01*
X119442095Y-74729008D02*
X119442095Y-74233770D01*
X119442095Y-74233770D02*
X119746857Y-74500436D01*
X119746857Y-74500436D02*
X119746857Y-74386151D01*
X119746857Y-74386151D02*
X119784952Y-74309960D01*
X119784952Y-74309960D02*
X119823047Y-74271865D01*
X119823047Y-74271865D02*
X119899238Y-74233770D01*
X119899238Y-74233770D02*
X120089714Y-74233770D01*
X120089714Y-74233770D02*
X120165904Y-74271865D01*
X120165904Y-74271865D02*
X120204000Y-74309960D01*
X120204000Y-74309960D02*
X120242095Y-74386151D01*
X120242095Y-74386151D02*
X120242095Y-74614722D01*
X120242095Y-74614722D02*
X120204000Y-74690913D01*
X120204000Y-74690913D02*
X120165904Y-74729008D01*
X112333769Y-69150000D02*
X112409960Y-69188095D01*
X112409960Y-69188095D02*
X112562341Y-69188095D01*
X112562341Y-69188095D02*
X112638531Y-69150000D01*
X112638531Y-69150000D02*
X112676627Y-69073809D01*
X112676627Y-69073809D02*
X112676627Y-69035714D01*
X112676627Y-69035714D02*
X112638531Y-68959523D01*
X112638531Y-68959523D02*
X112562341Y-68921428D01*
X112562341Y-68921428D02*
X112448055Y-68921428D01*
X112448055Y-68921428D02*
X112371865Y-68883333D01*
X112371865Y-68883333D02*
X112333769Y-68807142D01*
X112333769Y-68807142D02*
X112333769Y-68769047D01*
X112333769Y-68769047D02*
X112371865Y-68692857D01*
X112371865Y-68692857D02*
X112448055Y-68654761D01*
X112448055Y-68654761D02*
X112562341Y-68654761D01*
X112562341Y-68654761D02*
X112638531Y-68692857D01*
X113362341Y-69150000D02*
X113286150Y-69188095D01*
X113286150Y-69188095D02*
X113133769Y-69188095D01*
X113133769Y-69188095D02*
X113057579Y-69150000D01*
X113057579Y-69150000D02*
X113019484Y-69111904D01*
X113019484Y-69111904D02*
X112981388Y-69035714D01*
X112981388Y-69035714D02*
X112981388Y-68807142D01*
X112981388Y-68807142D02*
X113019484Y-68730952D01*
X113019484Y-68730952D02*
X113057579Y-68692857D01*
X113057579Y-68692857D02*
X113133769Y-68654761D01*
X113133769Y-68654761D02*
X113286150Y-68654761D01*
X113286150Y-68654761D02*
X113362341Y-68692857D01*
X113705198Y-69188095D02*
X113705198Y-68388095D01*
X113781388Y-68883333D02*
X114009960Y-69188095D01*
X114009960Y-68654761D02*
X113705198Y-68959523D01*
D11*
G36*
X129975326Y-69358780D02*
G01*
X129765600Y-69358780D01*
X129705990Y-69328975D01*
X129681322Y-69304306D01*
X129651517Y-69244696D01*
X129651517Y-69196673D01*
X129681322Y-69137063D01*
X129705990Y-69112394D01*
X129765600Y-69082590D01*
X129975326Y-69082590D01*
X129975326Y-69358780D01*
G37*
G36*
X129975326Y-68882590D02*
G01*
X129758219Y-68882590D01*
X129653154Y-68847568D01*
X129633703Y-68828116D01*
X129603898Y-68768506D01*
X129603898Y-68672864D01*
X129633703Y-68613254D01*
X129658372Y-68588584D01*
X129717980Y-68558780D01*
X129975326Y-68558780D01*
X129975326Y-68882590D01*
G37*
G36*
X130975326Y-69358780D02*
G01*
X130717981Y-69358780D01*
X130658371Y-69328975D01*
X130633703Y-69304306D01*
X130603898Y-69244696D01*
X130603898Y-69149054D01*
X130633703Y-69089444D01*
X130658371Y-69064775D01*
X130717981Y-69034971D01*
X130975326Y-69034971D01*
X130975326Y-69358780D01*
G37*
G36*
X131286437Y-69669891D02*
G01*
X128292787Y-69669891D01*
X128292787Y-69458885D01*
X128403898Y-69458885D01*
X128405819Y-69468490D01*
X128405819Y-69478289D01*
X128409608Y-69487437D01*
X128411550Y-69497145D01*
X128417001Y-69505285D01*
X128420751Y-69514337D01*
X128427750Y-69521336D01*
X128433261Y-69529565D01*
X128441414Y-69535000D01*
X128448341Y-69541927D01*
X128457487Y-69545715D01*
X128465726Y-69551208D01*
X128475336Y-69553109D01*
X128484389Y-69556859D01*
X128503898Y-69558780D01*
X128504003Y-69558780D01*
X129170564Y-69558780D01*
X129190073Y-69556859D01*
X129226121Y-69541927D01*
X129253711Y-69514337D01*
X129268643Y-69478289D01*
X129268643Y-69439271D01*
X129253711Y-69403223D01*
X129226121Y-69375633D01*
X129190073Y-69360701D01*
X129170564Y-69358780D01*
X128690750Y-69358780D01*
X129163764Y-68649257D01*
X129403898Y-68649257D01*
X129403898Y-68792114D01*
X129405819Y-68811623D01*
X129407194Y-68814943D01*
X129407449Y-68818527D01*
X129414455Y-68836835D01*
X129462074Y-68932073D01*
X129467359Y-68940469D01*
X129468370Y-68942909D01*
X129470623Y-68945655D01*
X129472517Y-68948663D01*
X129474511Y-68950392D01*
X129480806Y-68958063D01*
X129528425Y-69005681D01*
X129529213Y-69006328D01*
X129528425Y-69007117D01*
X129522130Y-69014787D01*
X129520136Y-69016517D01*
X129518242Y-69019524D01*
X129515989Y-69022271D01*
X129514978Y-69024710D01*
X129509693Y-69033107D01*
X129462074Y-69128345D01*
X129455068Y-69146653D01*
X129454813Y-69150236D01*
X129453438Y-69153557D01*
X129451517Y-69173066D01*
X129451517Y-69268304D01*
X129453438Y-69287813D01*
X129454813Y-69291133D01*
X129455068Y-69294717D01*
X129462074Y-69313025D01*
X129509693Y-69408263D01*
X129514978Y-69416659D01*
X129515989Y-69419099D01*
X129518242Y-69421845D01*
X129520136Y-69424853D01*
X129522130Y-69426582D01*
X129528425Y-69434253D01*
X129576044Y-69481871D01*
X129583710Y-69488163D01*
X129585443Y-69490161D01*
X129588451Y-69492054D01*
X129591197Y-69494308D01*
X129593637Y-69495318D01*
X129602034Y-69500604D01*
X129697271Y-69548223D01*
X129715580Y-69555229D01*
X129719163Y-69555483D01*
X129722484Y-69556859D01*
X129741993Y-69558780D01*
X130075326Y-69558780D01*
X130094835Y-69556859D01*
X130130883Y-69541927D01*
X130158473Y-69514337D01*
X130173405Y-69478289D01*
X130175326Y-69458780D01*
X130175326Y-69125447D01*
X130403898Y-69125447D01*
X130403898Y-69268304D01*
X130405819Y-69287813D01*
X130407194Y-69291133D01*
X130407449Y-69294717D01*
X130414455Y-69313025D01*
X130462074Y-69408263D01*
X130467359Y-69416659D01*
X130468370Y-69419099D01*
X130470623Y-69421845D01*
X130472517Y-69424853D01*
X130474511Y-69426582D01*
X130480806Y-69434253D01*
X130528425Y-69481871D01*
X130536091Y-69488163D01*
X130537824Y-69490161D01*
X130540832Y-69492054D01*
X130543578Y-69494308D01*
X130546018Y-69495318D01*
X130554415Y-69500604D01*
X130649652Y-69548223D01*
X130667961Y-69555229D01*
X130671544Y-69555483D01*
X130674865Y-69556859D01*
X130694374Y-69558780D01*
X131075326Y-69558780D01*
X131094835Y-69556859D01*
X131130883Y-69541927D01*
X131158473Y-69514337D01*
X131173405Y-69478289D01*
X131175326Y-69458780D01*
X131175326Y-68458780D01*
X131173405Y-68439271D01*
X131158473Y-68403223D01*
X131130883Y-68375633D01*
X131094835Y-68360701D01*
X131055817Y-68360701D01*
X131019769Y-68375633D01*
X130992179Y-68403223D01*
X130977247Y-68439271D01*
X130975326Y-68458780D01*
X130975326Y-68834971D01*
X130889296Y-68834971D01*
X130585821Y-68401434D01*
X130573060Y-68386553D01*
X130540155Y-68365584D01*
X130501730Y-68358803D01*
X130463636Y-68367243D01*
X130431671Y-68389618D01*
X130410702Y-68422523D01*
X130403921Y-68460948D01*
X130412361Y-68499042D01*
X130421975Y-68516126D01*
X130651942Y-68844651D01*
X130649652Y-68845528D01*
X130554415Y-68893147D01*
X130546018Y-68898432D01*
X130543578Y-68899443D01*
X130540832Y-68901696D01*
X130537824Y-68903590D01*
X130536091Y-68905587D01*
X130528425Y-68911880D01*
X130480806Y-68959498D01*
X130474511Y-68967168D01*
X130472517Y-68968898D01*
X130470623Y-68971905D01*
X130468370Y-68974652D01*
X130467359Y-68977091D01*
X130462074Y-68985488D01*
X130414455Y-69080726D01*
X130407449Y-69099034D01*
X130407194Y-69102617D01*
X130405819Y-69105938D01*
X130403898Y-69125447D01*
X130175326Y-69125447D01*
X130175326Y-68458780D01*
X130173405Y-68439271D01*
X130158473Y-68403223D01*
X130130883Y-68375633D01*
X130094835Y-68360701D01*
X130075326Y-68358780D01*
X129694374Y-68358780D01*
X129674865Y-68360701D01*
X129671544Y-68362076D01*
X129667961Y-68362331D01*
X129649652Y-68369338D01*
X129554414Y-68416958D01*
X129546021Y-68422241D01*
X129543578Y-68423253D01*
X129540828Y-68425509D01*
X129537824Y-68427401D01*
X129536094Y-68429395D01*
X129528425Y-68435690D01*
X129480806Y-68483308D01*
X129474511Y-68490978D01*
X129472517Y-68492708D01*
X129470623Y-68495715D01*
X129468370Y-68498462D01*
X129467359Y-68500901D01*
X129462074Y-68509298D01*
X129414455Y-68604536D01*
X129407449Y-68622844D01*
X129407194Y-68626427D01*
X129405819Y-68629748D01*
X129403898Y-68649257D01*
X129163764Y-68649257D01*
X129253769Y-68514250D01*
X129262992Y-68496952D01*
X129264893Y-68487341D01*
X129268643Y-68478289D01*
X129268643Y-68468385D01*
X129270564Y-68458675D01*
X129268643Y-68449070D01*
X129268643Y-68439271D01*
X129264853Y-68430122D01*
X129262912Y-68420415D01*
X129257460Y-68412274D01*
X129253711Y-68403223D01*
X129246711Y-68396223D01*
X129241201Y-68387995D01*
X129233047Y-68382559D01*
X129226121Y-68375633D01*
X129216974Y-68371844D01*
X129208736Y-68366352D01*
X129199125Y-68364450D01*
X129190073Y-68360701D01*
X129170564Y-68358780D01*
X128503898Y-68358780D01*
X128484389Y-68360701D01*
X128448341Y-68375633D01*
X128420751Y-68403223D01*
X128405819Y-68439271D01*
X128405819Y-68478289D01*
X128420751Y-68514337D01*
X128448341Y-68541927D01*
X128484389Y-68556859D01*
X128503898Y-68558780D01*
X128983712Y-68558780D01*
X128420693Y-69403310D01*
X128411470Y-69420608D01*
X128409568Y-69430218D01*
X128405819Y-69439271D01*
X128405819Y-69449174D01*
X128403898Y-69458885D01*
X128292787Y-69458885D01*
X128292787Y-68247669D01*
X131286437Y-68247669D01*
X131286437Y-69669891D01*
G37*
G36*
X102155197Y-86371796D02*
G01*
X102136352Y-86381219D01*
X101945471Y-86381219D01*
X101901161Y-86359064D01*
X101879007Y-86314754D01*
X101879007Y-86266730D01*
X101901162Y-86222420D01*
X101945471Y-86200266D01*
X102155197Y-86200266D01*
X102155197Y-86371796D01*
G37*
G36*
X104180594Y-86692330D02*
G01*
X100234562Y-86692330D01*
X100234562Y-85481219D01*
X100345673Y-85481219D01*
X100345673Y-86481219D01*
X100347594Y-86500728D01*
X100362526Y-86536776D01*
X100390116Y-86564366D01*
X100426164Y-86579298D01*
X100465182Y-86579298D01*
X100501230Y-86564366D01*
X100528820Y-86536776D01*
X100543752Y-86500728D01*
X100545673Y-86481219D01*
X100545673Y-86057409D01*
X100779006Y-86057409D01*
X100798515Y-86055488D01*
X100834563Y-86040556D01*
X100862153Y-86012966D01*
X100877085Y-85976918D01*
X100877085Y-85937900D01*
X100862153Y-85901852D01*
X100834563Y-85874262D01*
X100798515Y-85859330D01*
X100779006Y-85857409D01*
X100545673Y-85857409D01*
X100545673Y-85581219D01*
X100921863Y-85581219D01*
X100941372Y-85579298D01*
X100977420Y-85564366D01*
X101005010Y-85536776D01*
X101019942Y-85500728D01*
X101019942Y-85481219D01*
X101202816Y-85481219D01*
X101202816Y-86338361D01*
X101204737Y-86357870D01*
X101206112Y-86361190D01*
X101206367Y-86364773D01*
X101213373Y-86383082D01*
X101260992Y-86478321D01*
X101263045Y-86481584D01*
X101263559Y-86483123D01*
X101265221Y-86485039D01*
X101271435Y-86494911D01*
X101280906Y-86503125D01*
X101289123Y-86512600D01*
X101298993Y-86518812D01*
X101300911Y-86520476D01*
X101302451Y-86520989D01*
X101305714Y-86523043D01*
X101400951Y-86570662D01*
X101419260Y-86577668D01*
X101458180Y-86580434D01*
X101495196Y-86568095D01*
X101524673Y-86542530D01*
X101542122Y-86507632D01*
X101544887Y-86468712D01*
X101532549Y-86431696D01*
X101506984Y-86402219D01*
X101490394Y-86391776D01*
X101424970Y-86359064D01*
X101402816Y-86314754D01*
X101402816Y-86243123D01*
X101679007Y-86243123D01*
X101679007Y-86338361D01*
X101680928Y-86357870D01*
X101682303Y-86361190D01*
X101682558Y-86364773D01*
X101689564Y-86383082D01*
X101737183Y-86478321D01*
X101739236Y-86481584D01*
X101739750Y-86483123D01*
X101741412Y-86485039D01*
X101747626Y-86494911D01*
X101757097Y-86503125D01*
X101765314Y-86512600D01*
X101775184Y-86518812D01*
X101777102Y-86520476D01*
X101778642Y-86520989D01*
X101781905Y-86523043D01*
X101877142Y-86570662D01*
X101895451Y-86577668D01*
X101899034Y-86577922D01*
X101902355Y-86579298D01*
X101921864Y-86581219D01*
X102159959Y-86581219D01*
X102179468Y-86579298D01*
X102182788Y-86577922D01*
X102186372Y-86577668D01*
X102204680Y-86570662D01*
X102209283Y-86568360D01*
X102235688Y-86579298D01*
X102274706Y-86579298D01*
X102310754Y-86564366D01*
X102338344Y-86536776D01*
X102353276Y-86500728D01*
X102355197Y-86481219D01*
X102355197Y-85957409D01*
X102583769Y-85957409D01*
X102583769Y-86005028D01*
X102585690Y-86024537D01*
X102587065Y-86027857D01*
X102587320Y-86031441D01*
X102594326Y-86049749D01*
X102641945Y-86144987D01*
X102643998Y-86148250D01*
X102644512Y-86149789D01*
X102646174Y-86151705D01*
X102652388Y-86161577D01*
X102661858Y-86169790D01*
X102670076Y-86179266D01*
X102679949Y-86185480D01*
X102681865Y-86187142D01*
X102683403Y-86187654D01*
X102686667Y-86189709D01*
X102781904Y-86237328D01*
X102800213Y-86244334D01*
X102803796Y-86244588D01*
X102807117Y-86245964D01*
X102826626Y-86247885D01*
X102945876Y-86247885D01*
X102990185Y-86270040D01*
X103012340Y-86314349D01*
X103012340Y-86314754D01*
X102990185Y-86359063D01*
X102945876Y-86381219D01*
X102802614Y-86381219D01*
X102728490Y-86344157D01*
X102710182Y-86337151D01*
X102671262Y-86334385D01*
X102634246Y-86346724D01*
X102604769Y-86372288D01*
X102587320Y-86407187D01*
X102584554Y-86446107D01*
X102596893Y-86483123D01*
X102622457Y-86512600D01*
X102639048Y-86523043D01*
X102734285Y-86570662D01*
X102752594Y-86577668D01*
X102756177Y-86577922D01*
X102759498Y-86579298D01*
X102779007Y-86581219D01*
X102969483Y-86581219D01*
X102988992Y-86579298D01*
X102992312Y-86577922D01*
X102995896Y-86577668D01*
X103014204Y-86570662D01*
X103109442Y-86523043D01*
X103112704Y-86520989D01*
X103114244Y-86520476D01*
X103116160Y-86518813D01*
X103126032Y-86512600D01*
X103134247Y-86503126D01*
X103143721Y-86494911D01*
X103149934Y-86485039D01*
X103151597Y-86483123D01*
X103152109Y-86481584D01*
X103154164Y-86478321D01*
X103201783Y-86383082D01*
X103208789Y-86364774D01*
X103209043Y-86361190D01*
X103210419Y-86357870D01*
X103212340Y-86338361D01*
X103212340Y-86290742D01*
X103210419Y-86271233D01*
X103209043Y-86267912D01*
X103208789Y-86264329D01*
X103201783Y-86246020D01*
X103154164Y-86150783D01*
X103152109Y-86147519D01*
X103151597Y-86145981D01*
X103149935Y-86144065D01*
X103143721Y-86134192D01*
X103134245Y-86125974D01*
X103126032Y-86116504D01*
X103116160Y-86110290D01*
X103114244Y-86108628D01*
X103112705Y-86108114D01*
X103109442Y-86106061D01*
X103014204Y-86058442D01*
X102995896Y-86051436D01*
X102992312Y-86051181D01*
X102988992Y-86049806D01*
X102969483Y-86047885D01*
X102850233Y-86047885D01*
X102805924Y-86025730D01*
X102783769Y-85981420D01*
X102783769Y-85981016D01*
X102805924Y-85936706D01*
X102850233Y-85914552D01*
X102945876Y-85914552D01*
X103019999Y-85951614D01*
X103038308Y-85958620D01*
X103077228Y-85961386D01*
X103114244Y-85949047D01*
X103143721Y-85923482D01*
X103161170Y-85888584D01*
X103163935Y-85849664D01*
X103151597Y-85812648D01*
X103126032Y-85783171D01*
X103109442Y-85772728D01*
X103014204Y-85725109D01*
X102995896Y-85718103D01*
X102992312Y-85717848D01*
X102988992Y-85716473D01*
X102969483Y-85714552D01*
X102826626Y-85714552D01*
X102807117Y-85716473D01*
X102803796Y-85717848D01*
X102800213Y-85718103D01*
X102781904Y-85725109D01*
X102686667Y-85772728D01*
X102683403Y-85774782D01*
X102681865Y-85775295D01*
X102679949Y-85776956D01*
X102670076Y-85783171D01*
X102661858Y-85792646D01*
X102652388Y-85800860D01*
X102646174Y-85810731D01*
X102644512Y-85812648D01*
X102643998Y-85814186D01*
X102641945Y-85817450D01*
X102594326Y-85912688D01*
X102587320Y-85930996D01*
X102587065Y-85934579D01*
X102585690Y-85937900D01*
X102583769Y-85957409D01*
X102355197Y-85957409D01*
X102353276Y-85937900D01*
X102351900Y-85934579D01*
X102351646Y-85930996D01*
X102344640Y-85912687D01*
X102297021Y-85817450D01*
X102294966Y-85814186D01*
X102294454Y-85812648D01*
X102292792Y-85810732D01*
X102286578Y-85800859D01*
X102277102Y-85792641D01*
X102268889Y-85783171D01*
X102259017Y-85776957D01*
X102257101Y-85775295D01*
X102255562Y-85774781D01*
X102252299Y-85772728D01*
X102157061Y-85725109D01*
X102138753Y-85718103D01*
X102135169Y-85717848D01*
X102131849Y-85716473D01*
X102112340Y-85714552D01*
X101921864Y-85714552D01*
X101902355Y-85716473D01*
X101899034Y-85717848D01*
X101895451Y-85718103D01*
X101877142Y-85725109D01*
X101781905Y-85772728D01*
X101765314Y-85783171D01*
X101739750Y-85812648D01*
X101727411Y-85849664D01*
X101730177Y-85888584D01*
X101747626Y-85923483D01*
X101777103Y-85949047D01*
X101814119Y-85961386D01*
X101853039Y-85958620D01*
X101871347Y-85951614D01*
X101945471Y-85914552D01*
X102088733Y-85914552D01*
X102133042Y-85936707D01*
X102155197Y-85981016D01*
X102155197Y-85990843D01*
X102136352Y-86000266D01*
X101921864Y-86000266D01*
X101902355Y-86002187D01*
X101899034Y-86003562D01*
X101895451Y-86003817D01*
X101877142Y-86010823D01*
X101781905Y-86058442D01*
X101778641Y-86060496D01*
X101777103Y-86061009D01*
X101775187Y-86062670D01*
X101765314Y-86068885D01*
X101757096Y-86078360D01*
X101747626Y-86086574D01*
X101741412Y-86096445D01*
X101739750Y-86098362D01*
X101739236Y-86099900D01*
X101737183Y-86103164D01*
X101689564Y-86198402D01*
X101682558Y-86216710D01*
X101682303Y-86220293D01*
X101680928Y-86223614D01*
X101679007Y-86243123D01*
X101402816Y-86243123D01*
X101402816Y-85481219D01*
X103440912Y-85481219D01*
X103440912Y-86481219D01*
X103442833Y-86500728D01*
X103457765Y-86536776D01*
X103485355Y-86564366D01*
X103521403Y-86579298D01*
X103560421Y-86579298D01*
X103596469Y-86564366D01*
X103624059Y-86536776D01*
X103638991Y-86500728D01*
X103640912Y-86481219D01*
X103640912Y-85951211D01*
X103647766Y-85944356D01*
X103707376Y-85914552D01*
X103803019Y-85914552D01*
X103847328Y-85936707D01*
X103869483Y-85981016D01*
X103869483Y-86481219D01*
X103871404Y-86500728D01*
X103886336Y-86536776D01*
X103913926Y-86564366D01*
X103949974Y-86579298D01*
X103988992Y-86579298D01*
X104025040Y-86564366D01*
X104052630Y-86536776D01*
X104067562Y-86500728D01*
X104069483Y-86481219D01*
X104069483Y-85957409D01*
X104067562Y-85937900D01*
X104066186Y-85934579D01*
X104065932Y-85930996D01*
X104058926Y-85912687D01*
X104011307Y-85817450D01*
X104009252Y-85814186D01*
X104008740Y-85812648D01*
X104007078Y-85810732D01*
X104000864Y-85800859D01*
X103991388Y-85792641D01*
X103983175Y-85783171D01*
X103973303Y-85776957D01*
X103971387Y-85775295D01*
X103969848Y-85774781D01*
X103966585Y-85772728D01*
X103871347Y-85725109D01*
X103853039Y-85718103D01*
X103849455Y-85717848D01*
X103846135Y-85716473D01*
X103826626Y-85714552D01*
X103683769Y-85714552D01*
X103664260Y-85716473D01*
X103660939Y-85717848D01*
X103657356Y-85718103D01*
X103640912Y-85724395D01*
X103640912Y-85481219D01*
X103638991Y-85461710D01*
X103624059Y-85425662D01*
X103596469Y-85398072D01*
X103560421Y-85383140D01*
X103521403Y-85383140D01*
X103485355Y-85398072D01*
X103457765Y-85425662D01*
X103442833Y-85461710D01*
X103440912Y-85481219D01*
X101402816Y-85481219D01*
X101400895Y-85461710D01*
X101385963Y-85425662D01*
X101358373Y-85398072D01*
X101322325Y-85383140D01*
X101283307Y-85383140D01*
X101247259Y-85398072D01*
X101219669Y-85425662D01*
X101204737Y-85461710D01*
X101202816Y-85481219D01*
X101019942Y-85481219D01*
X101019942Y-85461710D01*
X101005010Y-85425662D01*
X100977420Y-85398072D01*
X100941372Y-85383140D01*
X100921863Y-85381219D01*
X100445673Y-85381219D01*
X100426164Y-85383140D01*
X100390116Y-85398072D01*
X100362526Y-85425662D01*
X100347594Y-85461710D01*
X100345673Y-85481219D01*
X100234562Y-85481219D01*
X100234562Y-85270108D01*
X104180594Y-85270108D01*
X104180594Y-86692330D01*
G37*
D12*
X112504769Y-81820157D02*
X112504769Y-80920157D01*
X112890484Y-81820157D02*
X112890484Y-81348728D01*
X112890484Y-81348728D02*
X112847626Y-81263014D01*
X112847626Y-81263014D02*
X112761912Y-81220157D01*
X112761912Y-81220157D02*
X112633341Y-81220157D01*
X112633341Y-81220157D02*
X112547626Y-81263014D01*
X112547626Y-81263014D02*
X112504769Y-81305871D01*
X113190484Y-81220157D02*
X113533341Y-81220157D01*
X113319055Y-80920157D02*
X113319055Y-81691585D01*
X113319055Y-81691585D02*
X113361912Y-81777300D01*
X113361912Y-81777300D02*
X113447627Y-81820157D01*
X113447627Y-81820157D02*
X113533341Y-81820157D01*
X113704770Y-81220157D02*
X114047627Y-81220157D01*
X113833341Y-80920157D02*
X113833341Y-81691585D01*
X113833341Y-81691585D02*
X113876198Y-81777300D01*
X113876198Y-81777300D02*
X113961913Y-81820157D01*
X113961913Y-81820157D02*
X114047627Y-81820157D01*
X114347627Y-81220157D02*
X114347627Y-82120157D01*
X114347627Y-81263014D02*
X114433342Y-81220157D01*
X114433342Y-81220157D02*
X114604770Y-81220157D01*
X114604770Y-81220157D02*
X114690484Y-81263014D01*
X114690484Y-81263014D02*
X114733342Y-81305871D01*
X114733342Y-81305871D02*
X114776199Y-81391585D01*
X114776199Y-81391585D02*
X114776199Y-81648728D01*
X114776199Y-81648728D02*
X114733342Y-81734442D01*
X114733342Y-81734442D02*
X114690484Y-81777300D01*
X114690484Y-81777300D02*
X114604770Y-81820157D01*
X114604770Y-81820157D02*
X114433342Y-81820157D01*
X114433342Y-81820157D02*
X114347627Y-81777300D01*
X115119056Y-81777300D02*
X115204770Y-81820157D01*
X115204770Y-81820157D02*
X115376199Y-81820157D01*
X115376199Y-81820157D02*
X115461913Y-81777300D01*
X115461913Y-81777300D02*
X115504770Y-81691585D01*
X115504770Y-81691585D02*
X115504770Y-81648728D01*
X115504770Y-81648728D02*
X115461913Y-81563014D01*
X115461913Y-81563014D02*
X115376199Y-81520157D01*
X115376199Y-81520157D02*
X115247628Y-81520157D01*
X115247628Y-81520157D02*
X115161913Y-81477300D01*
X115161913Y-81477300D02*
X115119056Y-81391585D01*
X115119056Y-81391585D02*
X115119056Y-81348728D01*
X115119056Y-81348728D02*
X115161913Y-81263014D01*
X115161913Y-81263014D02*
X115247628Y-81220157D01*
X115247628Y-81220157D02*
X115376199Y-81220157D01*
X115376199Y-81220157D02*
X115461913Y-81263014D01*
X115890484Y-81734442D02*
X115933341Y-81777300D01*
X115933341Y-81777300D02*
X115890484Y-81820157D01*
X115890484Y-81820157D02*
X115847627Y-81777300D01*
X115847627Y-81777300D02*
X115890484Y-81734442D01*
X115890484Y-81734442D02*
X115890484Y-81820157D01*
X115890484Y-81263014D02*
X115933341Y-81305871D01*
X115933341Y-81305871D02*
X115890484Y-81348728D01*
X115890484Y-81348728D02*
X115847627Y-81305871D01*
X115847627Y-81305871D02*
X115890484Y-81263014D01*
X115890484Y-81263014D02*
X115890484Y-81348728D01*
X116961912Y-80877300D02*
X116190484Y-82034442D01*
X117904769Y-80877300D02*
X117133341Y-82034442D01*
X112890484Y-83269107D02*
X112890484Y-82797678D01*
X112890484Y-82797678D02*
X112847626Y-82711964D01*
X112847626Y-82711964D02*
X112761912Y-82669107D01*
X112761912Y-82669107D02*
X112590484Y-82669107D01*
X112590484Y-82669107D02*
X112504769Y-82711964D01*
X112890484Y-83226250D02*
X112804769Y-83269107D01*
X112804769Y-83269107D02*
X112590484Y-83269107D01*
X112590484Y-83269107D02*
X112504769Y-83226250D01*
X112504769Y-83226250D02*
X112461912Y-83140535D01*
X112461912Y-83140535D02*
X112461912Y-83054821D01*
X112461912Y-83054821D02*
X112504769Y-82969107D01*
X112504769Y-82969107D02*
X112590484Y-82926250D01*
X112590484Y-82926250D02*
X112804769Y-82926250D01*
X112804769Y-82926250D02*
X112890484Y-82883392D01*
X113447627Y-83269107D02*
X113361912Y-83226250D01*
X113361912Y-83226250D02*
X113319055Y-83140535D01*
X113319055Y-83140535D02*
X113319055Y-82369107D01*
X114176199Y-82669107D02*
X114176199Y-83397678D01*
X114176199Y-83397678D02*
X114133341Y-83483392D01*
X114133341Y-83483392D02*
X114090484Y-83526250D01*
X114090484Y-83526250D02*
X114004770Y-83569107D01*
X114004770Y-83569107D02*
X113876199Y-83569107D01*
X113876199Y-83569107D02*
X113790484Y-83526250D01*
X114176199Y-83226250D02*
X114090484Y-83269107D01*
X114090484Y-83269107D02*
X113919056Y-83269107D01*
X113919056Y-83269107D02*
X113833341Y-83226250D01*
X113833341Y-83226250D02*
X113790484Y-83183392D01*
X113790484Y-83183392D02*
X113747627Y-83097678D01*
X113747627Y-83097678D02*
X113747627Y-82840535D01*
X113747627Y-82840535D02*
X113790484Y-82754821D01*
X113790484Y-82754821D02*
X113833341Y-82711964D01*
X113833341Y-82711964D02*
X113919056Y-82669107D01*
X113919056Y-82669107D02*
X114090484Y-82669107D01*
X114090484Y-82669107D02*
X114176199Y-82711964D01*
X114733342Y-83269107D02*
X114647627Y-83226250D01*
X114647627Y-83226250D02*
X114604770Y-83183392D01*
X114604770Y-83183392D02*
X114561913Y-83097678D01*
X114561913Y-83097678D02*
X114561913Y-82840535D01*
X114561913Y-82840535D02*
X114604770Y-82754821D01*
X114604770Y-82754821D02*
X114647627Y-82711964D01*
X114647627Y-82711964D02*
X114733342Y-82669107D01*
X114733342Y-82669107D02*
X114861913Y-82669107D01*
X114861913Y-82669107D02*
X114947627Y-82711964D01*
X114947627Y-82711964D02*
X114990485Y-82754821D01*
X114990485Y-82754821D02*
X115033342Y-82840535D01*
X115033342Y-82840535D02*
X115033342Y-83097678D01*
X115033342Y-83097678D02*
X114990485Y-83183392D01*
X114990485Y-83183392D02*
X114947627Y-83226250D01*
X114947627Y-83226250D02*
X114861913Y-83269107D01*
X114861913Y-83269107D02*
X114733342Y-83269107D01*
X115419056Y-83183392D02*
X115461913Y-83226250D01*
X115461913Y-83226250D02*
X115419056Y-83269107D01*
X115419056Y-83269107D02*
X115376199Y-83226250D01*
X115376199Y-83226250D02*
X115419056Y-83183392D01*
X115419056Y-83183392D02*
X115419056Y-83269107D01*
X115976199Y-83269107D02*
X115890484Y-83226250D01*
X115890484Y-83226250D02*
X115847627Y-83183392D01*
X115847627Y-83183392D02*
X115804770Y-83097678D01*
X115804770Y-83097678D02*
X115804770Y-82840535D01*
X115804770Y-82840535D02*
X115847627Y-82754821D01*
X115847627Y-82754821D02*
X115890484Y-82711964D01*
X115890484Y-82711964D02*
X115976199Y-82669107D01*
X115976199Y-82669107D02*
X116104770Y-82669107D01*
X116104770Y-82669107D02*
X116190484Y-82711964D01*
X116190484Y-82711964D02*
X116233342Y-82754821D01*
X116233342Y-82754821D02*
X116276199Y-82840535D01*
X116276199Y-82840535D02*
X116276199Y-83097678D01*
X116276199Y-83097678D02*
X116233342Y-83183392D01*
X116233342Y-83183392D02*
X116190484Y-83226250D01*
X116190484Y-83226250D02*
X116104770Y-83269107D01*
X116104770Y-83269107D02*
X115976199Y-83269107D01*
X116661913Y-83269107D02*
X116661913Y-82669107D01*
X116661913Y-82840535D02*
X116704770Y-82754821D01*
X116704770Y-82754821D02*
X116747628Y-82711964D01*
X116747628Y-82711964D02*
X116833342Y-82669107D01*
X116833342Y-82669107D02*
X116919056Y-82669107D01*
X117604771Y-82669107D02*
X117604771Y-83397678D01*
X117604771Y-83397678D02*
X117561913Y-83483392D01*
X117561913Y-83483392D02*
X117519056Y-83526250D01*
X117519056Y-83526250D02*
X117433342Y-83569107D01*
X117433342Y-83569107D02*
X117304771Y-83569107D01*
X117304771Y-83569107D02*
X117219056Y-83526250D01*
X117604771Y-83226250D02*
X117519056Y-83269107D01*
X117519056Y-83269107D02*
X117347628Y-83269107D01*
X117347628Y-83269107D02*
X117261913Y-83226250D01*
X117261913Y-83226250D02*
X117219056Y-83183392D01*
X117219056Y-83183392D02*
X117176199Y-83097678D01*
X117176199Y-83097678D02*
X117176199Y-82840535D01*
X117176199Y-82840535D02*
X117219056Y-82754821D01*
X117219056Y-82754821D02*
X117261913Y-82711964D01*
X117261913Y-82711964D02*
X117347628Y-82669107D01*
X117347628Y-82669107D02*
X117519056Y-82669107D01*
X117519056Y-82669107D02*
X117604771Y-82711964D01*
X118676199Y-82326250D02*
X117904771Y-83483392D01*
X112376198Y-84118057D02*
X112719055Y-84118057D01*
X112504769Y-83818057D02*
X112504769Y-84589485D01*
X112504769Y-84589485D02*
X112547626Y-84675200D01*
X112547626Y-84675200D02*
X112633341Y-84718057D01*
X112633341Y-84718057D02*
X112719055Y-84718057D01*
X112890484Y-84118057D02*
X113233341Y-84118057D01*
X113019055Y-83818057D02*
X113019055Y-84589485D01*
X113019055Y-84589485D02*
X113061912Y-84675200D01*
X113061912Y-84675200D02*
X113147627Y-84718057D01*
X113147627Y-84718057D02*
X113233341Y-84718057D01*
X113704770Y-83818057D02*
X113790484Y-83818057D01*
X113790484Y-83818057D02*
X113876198Y-83860914D01*
X113876198Y-83860914D02*
X113919056Y-83903771D01*
X113919056Y-83903771D02*
X113961913Y-83989485D01*
X113961913Y-83989485D02*
X114004770Y-84160914D01*
X114004770Y-84160914D02*
X114004770Y-84375200D01*
X114004770Y-84375200D02*
X113961913Y-84546628D01*
X113961913Y-84546628D02*
X113919056Y-84632342D01*
X113919056Y-84632342D02*
X113876198Y-84675200D01*
X113876198Y-84675200D02*
X113790484Y-84718057D01*
X113790484Y-84718057D02*
X113704770Y-84718057D01*
X113704770Y-84718057D02*
X113619056Y-84675200D01*
X113619056Y-84675200D02*
X113576198Y-84632342D01*
X113576198Y-84632342D02*
X113533341Y-84546628D01*
X113533341Y-84546628D02*
X113490484Y-84375200D01*
X113490484Y-84375200D02*
X113490484Y-84160914D01*
X113490484Y-84160914D02*
X113533341Y-83989485D01*
X113533341Y-83989485D02*
X113576198Y-83903771D01*
X113576198Y-83903771D02*
X113619056Y-83860914D01*
X113619056Y-83860914D02*
X113704770Y-83818057D01*
X114304770Y-83818057D02*
X114904770Y-83818057D01*
X114904770Y-83818057D02*
X114519056Y-84718057D01*
X115247627Y-84718057D02*
X115247627Y-83818057D01*
X115247627Y-84160914D02*
X115333342Y-84118057D01*
X115333342Y-84118057D02*
X115504770Y-84118057D01*
X115504770Y-84118057D02*
X115590484Y-84160914D01*
X115590484Y-84160914D02*
X115633342Y-84203771D01*
X115633342Y-84203771D02*
X115676199Y-84289485D01*
X115676199Y-84289485D02*
X115676199Y-84546628D01*
X115676199Y-84546628D02*
X115633342Y-84632342D01*
X115633342Y-84632342D02*
X115590484Y-84675200D01*
X115590484Y-84675200D02*
X115504770Y-84718057D01*
X115504770Y-84718057D02*
X115333342Y-84718057D01*
X115333342Y-84718057D02*
X115247627Y-84675200D01*
X105372819Y-69421333D02*
X106087104Y-69421333D01*
X106087104Y-69421333D02*
X106229961Y-69468952D01*
X106229961Y-69468952D02*
X106325200Y-69564190D01*
X106325200Y-69564190D02*
X106372819Y-69707047D01*
X106372819Y-69707047D02*
X106372819Y-69802285D01*
X105372819Y-69040380D02*
X105372819Y-68421333D01*
X105372819Y-68421333D02*
X105753771Y-68754666D01*
X105753771Y-68754666D02*
X105753771Y-68611809D01*
X105753771Y-68611809D02*
X105801390Y-68516571D01*
X105801390Y-68516571D02*
X105849009Y-68468952D01*
X105849009Y-68468952D02*
X105944247Y-68421333D01*
X105944247Y-68421333D02*
X106182342Y-68421333D01*
X106182342Y-68421333D02*
X106277580Y-68468952D01*
X106277580Y-68468952D02*
X106325200Y-68516571D01*
X106325200Y-68516571D02*
X106372819Y-68611809D01*
X106372819Y-68611809D02*
X106372819Y-68897523D01*
X106372819Y-68897523D02*
X106325200Y-68992761D01*
X106325200Y-68992761D02*
X106277580Y-69040380D01*
X114641333Y-87068819D02*
X114308000Y-86592628D01*
X114069905Y-87068819D02*
X114069905Y-86068819D01*
X114069905Y-86068819D02*
X114450857Y-86068819D01*
X114450857Y-86068819D02*
X114546095Y-86116438D01*
X114546095Y-86116438D02*
X114593714Y-86164057D01*
X114593714Y-86164057D02*
X114641333Y-86259295D01*
X114641333Y-86259295D02*
X114641333Y-86402152D01*
X114641333Y-86402152D02*
X114593714Y-86497390D01*
X114593714Y-86497390D02*
X114546095Y-86545009D01*
X114546095Y-86545009D02*
X114450857Y-86592628D01*
X114450857Y-86592628D02*
X114069905Y-86592628D01*
X115593714Y-87068819D02*
X115022286Y-87068819D01*
X115308000Y-87068819D02*
X115308000Y-86068819D01*
X115308000Y-86068819D02*
X115212762Y-86211676D01*
X115212762Y-86211676D02*
X115117524Y-86306914D01*
X115117524Y-86306914D02*
X115022286Y-86354533D01*
X120250295Y-71133332D02*
X119869342Y-71399999D01*
X120250295Y-71590475D02*
X119450295Y-71590475D01*
X119450295Y-71590475D02*
X119450295Y-71285713D01*
X119450295Y-71285713D02*
X119488390Y-71209523D01*
X119488390Y-71209523D02*
X119526485Y-71171428D01*
X119526485Y-71171428D02*
X119602676Y-71133332D01*
X119602676Y-71133332D02*
X119716961Y-71133332D01*
X119716961Y-71133332D02*
X119793152Y-71171428D01*
X119793152Y-71171428D02*
X119831247Y-71209523D01*
X119831247Y-71209523D02*
X119869342Y-71285713D01*
X119869342Y-71285713D02*
X119869342Y-71590475D01*
X119526485Y-70828571D02*
X119488390Y-70790475D01*
X119488390Y-70790475D02*
X119450295Y-70714285D01*
X119450295Y-70714285D02*
X119450295Y-70523809D01*
X119450295Y-70523809D02*
X119488390Y-70447618D01*
X119488390Y-70447618D02*
X119526485Y-70409523D01*
X119526485Y-70409523D02*
X119602676Y-70371428D01*
X119602676Y-70371428D02*
X119678866Y-70371428D01*
X119678866Y-70371428D02*
X119793152Y-70409523D01*
X119793152Y-70409523D02*
X120250295Y-70866666D01*
X120250295Y-70866666D02*
X120250295Y-70371428D01*
X112992819Y-70691333D02*
X113707104Y-70691333D01*
X113707104Y-70691333D02*
X113849961Y-70738952D01*
X113849961Y-70738952D02*
X113945200Y-70834190D01*
X113945200Y-70834190D02*
X113992819Y-70977047D01*
X113992819Y-70977047D02*
X113992819Y-71072285D01*
X112992819Y-69738952D02*
X112992819Y-70215142D01*
X112992819Y-70215142D02*
X113469009Y-70262761D01*
X113469009Y-70262761D02*
X113421390Y-70215142D01*
X113421390Y-70215142D02*
X113373771Y-70119904D01*
X113373771Y-70119904D02*
X113373771Y-69881809D01*
X113373771Y-69881809D02*
X113421390Y-69786571D01*
X113421390Y-69786571D02*
X113469009Y-69738952D01*
X113469009Y-69738952D02*
X113564247Y-69691333D01*
X113564247Y-69691333D02*
X113802342Y-69691333D01*
X113802342Y-69691333D02*
X113897580Y-69738952D01*
X113897580Y-69738952D02*
X113945200Y-69786571D01*
X113945200Y-69786571D02*
X113992819Y-69881809D01*
X113992819Y-69881809D02*
X113992819Y-70119904D01*
X113992819Y-70119904D02*
X113945200Y-70215142D01*
X113945200Y-70215142D02*
X113897580Y-70262761D01*
X119046666Y-86068819D02*
X119046666Y-86783104D01*
X119046666Y-86783104D02*
X118999047Y-86925961D01*
X118999047Y-86925961D02*
X118903809Y-87021200D01*
X118903809Y-87021200D02*
X118760952Y-87068819D01*
X118760952Y-87068819D02*
X118665714Y-87068819D01*
X119951428Y-86402152D02*
X119951428Y-87068819D01*
X119713333Y-86021200D02*
X119475238Y-86735485D01*
X119475238Y-86735485D02*
X120094285Y-86735485D01*
X128444666Y-70066819D02*
X128444666Y-70781104D01*
X128444666Y-70781104D02*
X128397047Y-70923961D01*
X128397047Y-70923961D02*
X128301809Y-71019200D01*
X128301809Y-71019200D02*
X128158952Y-71066819D01*
X128158952Y-71066819D02*
X128063714Y-71066819D01*
X128873238Y-70162057D02*
X128920857Y-70114438D01*
X128920857Y-70114438D02*
X129016095Y-70066819D01*
X129016095Y-70066819D02*
X129254190Y-70066819D01*
X129254190Y-70066819D02*
X129349428Y-70114438D01*
X129349428Y-70114438D02*
X129397047Y-70162057D01*
X129397047Y-70162057D02*
X129444666Y-70257295D01*
X129444666Y-70257295D02*
X129444666Y-70352533D01*
X129444666Y-70352533D02*
X129397047Y-70495390D01*
X129397047Y-70495390D02*
X128825619Y-71066819D01*
X128825619Y-71066819D02*
X129444666Y-71066819D01*
X108354905Y-86306819D02*
X108354905Y-85306819D01*
X108354905Y-85306819D02*
X108593000Y-85306819D01*
X108593000Y-85306819D02*
X108735857Y-85354438D01*
X108735857Y-85354438D02*
X108831095Y-85449676D01*
X108831095Y-85449676D02*
X108878714Y-85544914D01*
X108878714Y-85544914D02*
X108926333Y-85735390D01*
X108926333Y-85735390D02*
X108926333Y-85878247D01*
X108926333Y-85878247D02*
X108878714Y-86068723D01*
X108878714Y-86068723D02*
X108831095Y-86163961D01*
X108831095Y-86163961D02*
X108735857Y-86259200D01*
X108735857Y-86259200D02*
X108593000Y-86306819D01*
X108593000Y-86306819D02*
X108354905Y-86306819D01*
X109878714Y-86306819D02*
X109307286Y-86306819D01*
X109593000Y-86306819D02*
X109593000Y-85306819D01*
X109593000Y-85306819D02*
X109497762Y-85449676D01*
X109497762Y-85449676D02*
X109402524Y-85544914D01*
X109402524Y-85544914D02*
X109307286Y-85592533D01*
X124487557Y-70260285D02*
X123587557Y-70260285D01*
X123587557Y-70260285D02*
X123587557Y-70045999D01*
X123587557Y-70045999D02*
X123630414Y-69917428D01*
X123630414Y-69917428D02*
X123716128Y-69831713D01*
X123716128Y-69831713D02*
X123801842Y-69788856D01*
X123801842Y-69788856D02*
X123973271Y-69745999D01*
X123973271Y-69745999D02*
X124101842Y-69745999D01*
X124101842Y-69745999D02*
X124273271Y-69788856D01*
X124273271Y-69788856D02*
X124358985Y-69831713D01*
X124358985Y-69831713D02*
X124444700Y-69917428D01*
X124444700Y-69917428D02*
X124487557Y-70045999D01*
X124487557Y-70045999D02*
X124487557Y-70260285D01*
X123673271Y-69403142D02*
X123630414Y-69360285D01*
X123630414Y-69360285D02*
X123587557Y-69274571D01*
X123587557Y-69274571D02*
X123587557Y-69060285D01*
X123587557Y-69060285D02*
X123630414Y-68974571D01*
X123630414Y-68974571D02*
X123673271Y-68931713D01*
X123673271Y-68931713D02*
X123758985Y-68888856D01*
X123758985Y-68888856D02*
X123844700Y-68888856D01*
X123844700Y-68888856D02*
X123973271Y-68931713D01*
X123973271Y-68931713D02*
X124487557Y-69445999D01*
X124487557Y-69445999D02*
X124487557Y-68888856D01*
X112099819Y-77114304D02*
X112909342Y-77114304D01*
X112909342Y-77114304D02*
X113004580Y-77066685D01*
X113004580Y-77066685D02*
X113052200Y-77019066D01*
X113052200Y-77019066D02*
X113099819Y-76923828D01*
X113099819Y-76923828D02*
X113099819Y-76733352D01*
X113099819Y-76733352D02*
X113052200Y-76638114D01*
X113052200Y-76638114D02*
X113004580Y-76590495D01*
X113004580Y-76590495D02*
X112909342Y-76542876D01*
X112909342Y-76542876D02*
X112099819Y-76542876D01*
X113099819Y-75542876D02*
X113099819Y-76114304D01*
X113099819Y-75828590D02*
X112099819Y-75828590D01*
X112099819Y-75828590D02*
X112242676Y-75923828D01*
X112242676Y-75923828D02*
X112337914Y-76019066D01*
X112337914Y-76019066D02*
X112385533Y-76114304D01*
X100758666Y-68288819D02*
X100758666Y-69003104D01*
X100758666Y-69003104D02*
X100711047Y-69145961D01*
X100711047Y-69145961D02*
X100615809Y-69241200D01*
X100615809Y-69241200D02*
X100472952Y-69288819D01*
X100472952Y-69288819D02*
X100377714Y-69288819D01*
X101758666Y-69288819D02*
X101187238Y-69288819D01*
X101472952Y-69288819D02*
X101472952Y-68288819D01*
X101472952Y-68288819D02*
X101377714Y-68431676D01*
X101377714Y-68431676D02*
X101282476Y-68526914D01*
X101282476Y-68526914D02*
X101187238Y-68574533D01*
D13*
X109220000Y-81788000D02*
X106680000Y-81788000D01*
X106680000Y-79248000D01*
X109220000Y-79248000D01*
X109220000Y-81788000D01*
X111760000Y-81788000D02*
X109220000Y-81788000D01*
X109220000Y-79248000D01*
X111760000Y-79248000D01*
X111760000Y-81788000D01*
D14*
X106620000Y-69028000D02*
X106620000Y-70358000D01*
X106620000Y-71628000D02*
X106620000Y-84388000D01*
X107950000Y-69028000D02*
X106620000Y-69028000D01*
X109220000Y-69028000D02*
X109220000Y-71628000D01*
X109220000Y-71628000D02*
X106620000Y-71628000D01*
X111820000Y-69028000D02*
X109220000Y-69028000D01*
X111820000Y-69028000D02*
X111820000Y-84388000D01*
X111820000Y-84388000D02*
X106620000Y-84388000D01*
X112040936Y-85117000D02*
X112495064Y-85117000D01*
X112040936Y-86587000D02*
X112495064Y-86587000D01*
X122020064Y-70331000D02*
X121565936Y-70331000D01*
X122020064Y-68861000D02*
X121565936Y-68861000D01*
X116840000Y-71180000D02*
X114240000Y-71180000D01*
X114240000Y-68520000D02*
X114240000Y-71180000D01*
X116840000Y-68520000D02*
X116840000Y-71180000D01*
X116840000Y-68520000D02*
X114240000Y-68520000D01*
X118110000Y-68520000D02*
X119440000Y-68520000D01*
X119440000Y-68520000D02*
X119440000Y-69850000D01*
X120590000Y-71060000D02*
X121920000Y-71060000D01*
X120590000Y-72390000D02*
X120590000Y-71060000D01*
X120590000Y-73660000D02*
X120590000Y-86420000D01*
X120590000Y-73660000D02*
X123250000Y-73660000D01*
X120590000Y-86420000D02*
X123250000Y-86420000D01*
X123250000Y-73660000D02*
X123250000Y-86420000D01*
D15*
X127000000Y-73660000D02*
X129540000Y-73660000D01*
X129540000Y-76200000D01*
X127000000Y-76200000D01*
X127000000Y-73660000D01*
X124460000Y-73660000D02*
X127000000Y-73660000D01*
X127000000Y-76200000D01*
X124460000Y-76200000D01*
X124460000Y-73660000D01*
D14*
X131040000Y-86420000D02*
X131040000Y-71060000D01*
X131040000Y-71060000D02*
X129710000Y-71060000D01*
X129710000Y-86420000D02*
X131040000Y-86420000D01*
X129710000Y-83820000D02*
X130810000Y-83820000D01*
X129710000Y-81280000D02*
X130810000Y-81280000D01*
X129710000Y-78740000D02*
X131040000Y-78740000D01*
X129710000Y-76200000D02*
X130810000Y-76200000D01*
X129710000Y-73660000D02*
X130810000Y-73660000D01*
X129710000Y-71060000D02*
X129710000Y-86420000D01*
X129312929Y-85470000D02*
X129710000Y-85470000D01*
X129312929Y-84710000D02*
X129710000Y-84710000D01*
X129312929Y-82930000D02*
X129710000Y-82930000D01*
X129312929Y-82170000D02*
X129710000Y-82170000D01*
X129312929Y-80390000D02*
X129710000Y-80390000D01*
X129312929Y-79630000D02*
X129710000Y-79630000D01*
X129312929Y-77850000D02*
X129710000Y-77850000D01*
X129312929Y-77090000D02*
X129710000Y-77090000D01*
X129312929Y-75310000D02*
X129710000Y-75310000D01*
X129312929Y-74550000D02*
X129710000Y-74550000D01*
X129312929Y-72770000D02*
X129710000Y-72770000D01*
X129312929Y-72010000D02*
X129710000Y-72010000D01*
X126840000Y-72770000D02*
X127227071Y-72770000D01*
X126840000Y-72010000D02*
X127227071Y-72010000D01*
X126772929Y-85470000D02*
X127227071Y-85470000D01*
X126772929Y-84710000D02*
X127227071Y-84710000D01*
X126772929Y-82930000D02*
X127227071Y-82930000D01*
X126772929Y-82170000D02*
X127227071Y-82170000D01*
X126772929Y-80390000D02*
X127227071Y-80390000D01*
X126772929Y-79630000D02*
X127227071Y-79630000D01*
X126772929Y-77850000D02*
X127227071Y-77850000D01*
X126772929Y-77090000D02*
X127227071Y-77090000D01*
X126772929Y-75310000D02*
X127227071Y-75310000D01*
X126772929Y-74550000D02*
X127227071Y-74550000D01*
X124460000Y-72390000D02*
X124460000Y-71120000D01*
X124460000Y-71120000D02*
X125730000Y-71120000D01*
X108032000Y-86812000D02*
X108032000Y-84892000D01*
X108032000Y-84892000D02*
X105172000Y-84892000D01*
X105172000Y-86812000D02*
X108032000Y-86812000D01*
X124759000Y-68636000D02*
X124759000Y-70556000D01*
X124759000Y-70556000D02*
X127619000Y-70556000D01*
X127619000Y-68636000D02*
X124759000Y-68636000D01*
X113740000Y-79859900D02*
X113410000Y-80099900D01*
X113410000Y-79619900D01*
X113740000Y-79859900D01*
G36*
X113740000Y-79859900D02*
G01*
X113410000Y-80099900D01*
X113410000Y-79619900D01*
X113740000Y-79859900D01*
G37*
X118930000Y-79077400D02*
X118670000Y-79077400D01*
X118930000Y-76352400D02*
X118930000Y-79077400D01*
X118930000Y-76352400D02*
X118930000Y-73627400D01*
X118930000Y-73627400D02*
X118670000Y-73627400D01*
X113480000Y-79077400D02*
X113740000Y-79077400D01*
X113480000Y-76352400D02*
X113480000Y-79077400D01*
X113480000Y-76352400D02*
X113480000Y-73627400D01*
X113480000Y-73627400D02*
X113740000Y-73627400D01*
X98830000Y-69028000D02*
X98830000Y-84388000D01*
X98830000Y-84388000D02*
X100160000Y-84388000D01*
X100160000Y-69028000D02*
X98830000Y-69028000D01*
X100160000Y-71628000D02*
X99060000Y-71628000D01*
X100160000Y-74168000D02*
X99060000Y-74168000D01*
X100160000Y-76708000D02*
X98830000Y-76708000D01*
X100160000Y-79248000D02*
X99060000Y-79248000D01*
X100160000Y-81788000D02*
X99060000Y-81788000D01*
X100160000Y-84388000D02*
X100160000Y-69028000D01*
X100557071Y-69978000D02*
X100160000Y-69978000D01*
X100557071Y-70738000D02*
X100160000Y-70738000D01*
X100557071Y-72518000D02*
X100160000Y-72518000D01*
X100557071Y-73278000D02*
X100160000Y-73278000D01*
X100557071Y-75058000D02*
X100160000Y-75058000D01*
X100557071Y-75818000D02*
X100160000Y-75818000D01*
X100557071Y-77598000D02*
X100160000Y-77598000D01*
X100557071Y-78358000D02*
X100160000Y-78358000D01*
X100557071Y-80138000D02*
X100160000Y-80138000D01*
X100557071Y-80898000D02*
X100160000Y-80898000D01*
X100557071Y-82678000D02*
X100160000Y-82678000D01*
X100557071Y-83438000D02*
X100160000Y-83438000D01*
X103030000Y-82678000D02*
X102642929Y-82678000D01*
X103030000Y-83438000D02*
X102642929Y-83438000D01*
X103097071Y-69978000D02*
X102642929Y-69978000D01*
X103097071Y-70738000D02*
X102642929Y-70738000D01*
X103097071Y-72518000D02*
X102642929Y-72518000D01*
X103097071Y-73278000D02*
X102642929Y-73278000D01*
X103097071Y-75058000D02*
X102642929Y-75058000D01*
X103097071Y-75818000D02*
X102642929Y-75818000D01*
X103097071Y-77598000D02*
X102642929Y-77598000D01*
X103097071Y-78358000D02*
X102642929Y-78358000D01*
X103097071Y-80138000D02*
X102642929Y-80138000D01*
X103097071Y-80898000D02*
X102642929Y-80898000D01*
X105410000Y-83058000D02*
X105410000Y-84328000D01*
X105410000Y-84328000D02*
X104140000Y-84328000D01*
D15*
X102870000Y-81788000D02*
X100330000Y-81788000D01*
X100330000Y-79248000D01*
X102870000Y-79248000D01*
X102870000Y-81788000D01*
X105410000Y-81788000D02*
X102870000Y-81788000D01*
X102870000Y-79248000D01*
X105410000Y-79248000D01*
X105410000Y-81788000D01*
%LPC*%
D16*
X110490000Y-83058000D03*
X110490000Y-80518000D03*
X110490000Y-77978000D03*
X110490000Y-75438000D03*
X110490000Y-72898000D03*
X110490000Y-70358000D03*
D17*
X107950000Y-83058000D03*
D16*
X107950000Y-80518000D03*
X107950000Y-77978000D03*
X107950000Y-75438000D03*
X107950000Y-72898000D03*
D18*
X107950000Y-70358000D03*
D19*
X111268000Y-85852000D03*
X113268000Y-85852000D03*
D20*
X122793000Y-69596000D03*
X120793000Y-69596000D03*
D16*
X115570000Y-69850000D03*
D18*
X118110000Y-69850000D03*
X121920000Y-72390000D03*
D16*
X121920000Y-74930000D03*
X121920000Y-77470000D03*
X121920000Y-80010000D03*
X121920000Y-82550000D03*
X121920000Y-85090000D03*
X128270000Y-72390000D03*
X128270000Y-74930000D03*
X128270000Y-77470000D03*
X128270000Y-80010000D03*
X128270000Y-82550000D03*
X128270000Y-85090000D03*
D17*
X125730000Y-72390000D03*
D16*
X125730000Y-74930000D03*
X125730000Y-77470000D03*
X125730000Y-80010000D03*
X125730000Y-82550000D03*
D18*
X125730000Y-85090000D03*
D21*
X107197000Y-85852000D03*
X105147000Y-85852000D03*
D22*
X125594000Y-69596000D03*
X127644000Y-69596000D03*
D23*
X114300000Y-72752400D03*
X115570000Y-72752400D03*
X116840000Y-72752400D03*
X118110000Y-72752400D03*
X118110000Y-79952400D03*
X116840000Y-79952400D03*
X115570000Y-79952400D03*
X114300000Y-79952400D03*
D18*
X104140000Y-70358000D03*
D16*
X104140000Y-72898000D03*
X104140000Y-75438000D03*
X104140000Y-77978000D03*
X104140000Y-80518000D03*
D17*
X104140000Y-83058000D03*
D16*
X101600000Y-70358000D03*
X101600000Y-72898000D03*
X101600000Y-75438000D03*
X101600000Y-77978000D03*
X101600000Y-80518000D03*
X101600000Y-83058000D03*
%LPD*%
M02*
